<?xml version="1.0" encoding="windows-1252" standalone="no"?>
<svg xmlns="http://www.w3.org/2000/svg" xmlns:xlink="http://www.w3.org/1999/xlink" contentStyleType="text/css" height="606px" preserveAspectRatio="none" style="width:997px;height:606px;background:#FFFFFF;" version="1.1" viewBox="0 0 997 606" width="997px" zoomAndPan="magnify"><defs/><g><!--class 1709941597--><g id="elem_1709941597"><rect codeLine="10" fill="#EEEEEE" height="48.2656" id="1709941597" rx="2.5" ry="2.5" style="stroke:#008000;stroke-width:0.5;" width="397" x="421" y="18.5659"/><text fill="#000000" font-family="sans-serif" font-size="13" lengthAdjust="spacing" textLength="4" x="617.5" y="35.6328"> </text><line style="stroke:#008000;stroke-width:0.5;" x1="422" x2="817" y1="43.6987" y2="43.6987"/><polygon fill="none" points="432,51.7651,436,55.7651,432,59.7651,428,55.7651" style="stroke:#B38D22;stroke-width:1.0;"/><text fill="#4169E1" font-family="sans-serif" font-size="13" lengthAdjust="spacing" textLength="97" x="441" y="59.7656">skos:inScheme</text><text fill="#000000" font-family="sans-serif" font-size="13" lengthAdjust="spacing" textLength="241" x="546" y="59.7656">dtv-perception, skos:ConceptScheme</text><text fill="#008000" font-family="sans-serif" font-size="13" lengthAdjust="spacing" textLength="17" x="795" y="59.7656">[*]</text></g><!--class -147215078--><g id="elem_-147215078"><rect codeLine="13" fill="#F1F1F1" height="25.1328" id="-147215078" rx="2.5" ry="2.5" style="stroke:#000000;stroke-width:0.5;" width="146" x="7" y="298.0659"/><text fill="#000000" font-family="sans-serif" font-size="13" lengthAdjust="spacing" textLength="140" x="10" y="315.1328">dto:Perception_active</text></g><!--class -2008326481--><g id="elem_-2008326481"><rect codeLine="15" fill="#F1F1F1" height="39.1016" id="-2008326481" rx="2.5" ry="2.5" style="stroke:#000000;stroke-width:0.5;" width="131" x="859" y="276.0659"/><text fill="#0000FF" font-family="sans-serif" font-size="12" font-style="italic" lengthAdjust="spacing" textLength="72" x="888.5" y="292.2046">«owl:Thing»</text><text fill="#000000" font-family="sans-serif" font-size="13" lengthAdjust="spacing" textLength="125" x="862" y="307.1016">crm:E1_CRM_Entity</text></g><!--class 2037747288--><g id="elem_2037747288"><rect codeLine="17" fill="#F1F1F1" height="39.1016" id="2037747288" rx="2.5" ry="2.5" style="stroke:#000000;stroke-width:0.5;" width="273" x="483" y="204.0659"/><text fill="#0000FF" font-family="sans-serif" font-size="12" font-style="italic" lengthAdjust="spacing" textLength="271" x="484" y="220.2046">«crm:E20_Biological_Object, crm:E39_Actor»</text><text fill="#000000" font-family="sans-serif" font-size="13" lengthAdjust="spacing" textLength="105" x="567" y="235.1016">crm:E21_Person</text></g><!--class -811589787--><g id="elem_-811589787"><rect codeLine="19" fill="#F1F1F1" height="25.1328" id="-811589787" rx="2.5" ry="2.5" style="stroke:#000000;stroke-width:0.5;" width="136" x="551.5" y="283.0659"/><text fill="#000000" font-family="sans-serif" font-size="13" lengthAdjust="spacing" textLength="130" x="554.5" y="300.1328">crm:E52_Time-Span</text></g><!--class 696186563--><g id="elem_696186563"><rect codeLine="21" fill="#F1F1F1" height="25.1328" id="696186563" rx="2.5" ry="2.5" style="stroke:#000000;stroke-width:0.5;" width="101" x="569" y="348.0659"/><text fill="#000000" font-family="sans-serif" font-size="13" lengthAdjust="spacing" textLength="95" x="572" y="365.1328">crm:E53_Place</text></g><!--class -121262668--><g id="elem_-121262668"><rect codeLine="23" fill="#F1F1F1" height="39.1016" id="-121262668" rx="2.5" ry="2.5" style="stroke:#000000;stroke-width:0.5;" width="107" x="566" y="425.0659"/><text fill="#0000FF" font-family="sans-serif" font-size="12" font-style="italic" lengthAdjust="spacing" textLength="99" x="570" y="441.2046">«crm:E5_Event»</text><text fill="#000000" font-family="sans-serif" font-size="13" lengthAdjust="spacing" textLength="101" x="569" y="456.1016">crm:E7_Activity</text></g><!--link -147215078 to -121262668--><g id="link_-147215078_-121262668"><path codeLine="25" d="M97.6789,323.1029 C115.417,335.8009 144.756,355.0259 173,365.5659 C299.005,412.5859 455.743,432.0489 545.739,439.7819 " fill="none" id="-147215078-to--121262668" style="stroke:#0000FF;stroke-width:1.0;"/><polygon fill="none" points="546.407,432.8129,565.777,441.4039,545.278,446.7679,546.407,432.8129" style="stroke:#0000FF;stroke-width:1.0;"/></g><!--link -147215078 to -121262668--><g id="link_-147215078_-121262668"><path codeLine="31" d="M84.8488,323.1559 C94.3585,351.7579 121.972,421.2559 173,448.5659 C297.823,515.3689 471.899,484.5988 560.984,461.6335 " fill="none" id="-147215078-to--121262668-1" style="stroke:#000000;stroke-width:1.0;"/><polygon fill="#000000" points="565.945,460.3401,556.227,458.7401,561.1067,461.6015,558.2453,466.4813,565.945,460.3401" style="stroke:#000000;stroke-width:1.0;"/><text fill="#000000" font-family="sans-serif" font-size="13" lengthAdjust="spacing" textLength="144" x="215" y="444.6328">crm:P9_forms_part_of</text><text fill="#000000" font-family="sans-serif" font-size="13" lengthAdjust="spacing" textLength="24" x="533.9555" y="475.2455">0..1</text></g><!--link -147215078 to -121262668--><g id="link_-147215078_-121262668"><path codeLine="33" d="M82.1235,323.1949 C86.2087,360.5769 103.9018,470.8379 173,515.5655 C303.216,599.8551 498.596,511.2271 580.373,466.787 " fill="none" id="-147215078-to--121262668-2" style="stroke:#000000;stroke-width:1.0;"/><polygon fill="#000000" points="585.124,464.1855,575.3091,465.0022,580.7391,466.5881,579.1532,472.0181,585.124,464.1855" style="stroke:#000000;stroke-width:1.0;"/><text fill="#000000" font-family="sans-serif" font-size="13" lengthAdjust="spacing" textLength="226" x="174" y="511.6324">crm:P183i_starts_after_the_end_of</text><text fill="#000000" font-family="sans-serif" font-size="13" lengthAdjust="spacing" textLength="7" x="566.9979" y="484.2234">*</text></g><!--link 2037747288 to -2008326481--><g id="link_2037747288_-2008326481"><path codeLine="26" d="M744.389,243.1109 C775.508,249.0319 808.672,256.2189 839,264.5659 C844.347,266.0369 849.836,267.6969 855.324,269.4629 " fill="none" id="2037747288-to--2008326481" style="stroke:#9999FF;stroke-width:1.0;"/><polygon fill="none" points="857.695,262.8759,874.351,275.9749,853.161,276.1219,857.695,262.8759" style="stroke:#9999FF;stroke-width:1.0;"/></g><!--link -811589787 to -2008326481--><g id="link_-811589787_-2008326481"><path codeLine="27" d="M687.746,295.5659 C732.268,295.5659 791.026,295.5659 838.743,295.5659 " fill="none" id="-811589787-to--2008326481" style="stroke:#0000FF;stroke-width:1.0;"/><polygon fill="none" points="838.781,288.5649,858.781,295.5659,838.781,302.5649,838.781,288.5649" style="stroke:#0000FF;stroke-width:1.0;"/></g><!--link 696186563 to -2008326481--><g id="link_696186563_-2008326481"><path codeLine="28" d="M670.397,354.4839 C710.561,349.1099 768.306,340.2999 818,328.5659 C827.371,326.3529 837.121,323.7399 846.741,320.9679 " fill="none" id="696186563-to--2008326481" style="stroke:#0000FF;stroke-width:1.0;"/><polygon fill="none" points="844.976,314.1899,866.144,315.1349,849.007,327.5969,844.976,314.1899" style="stroke:#0000FF;stroke-width:1.0;"/></g><!--link -121262668 to -2008326481--><g id="link_-121262668_-2008326481"><path codeLine="29" d="M673.01,438.2229 C714.386,431.5699 772.487,418.4669 818,393.5659 C847.36,377.5019 874.864,351.4389 894.424,330.2269 " fill="none" id="-121262668-to--2008326481" style="stroke:#9999FF;stroke-width:1.0;"/><polygon fill="none" points="889.233,325.5309,907.733,315.1989,899.714,334.8119,889.233,325.5309" style="stroke:#9999FF;stroke-width:1.0;"/></g><!--link -147215078 to -811589787--><g id="link_-147215078_-811589787"><path codeLine="30" d="M153.211,308.5499 C255.978,305.6819 443.334,300.4539 546.168,297.5839 " fill="none" id="-147215078-to--811589787" style="stroke:#000000;stroke-width:1.0;"/><polygon fill="#000000" points="551.303,297.4409,542.1945,293.6945,546.305,297.5809,542.4185,301.6913,551.303,297.4409" style="stroke:#000000;stroke-width:1.0;"/><text fill="#000000" font-family="sans-serif" font-size="13" lengthAdjust="spacing" textLength="148" x="213" y="297.6328">crm:P4_has_time-span</text><text fill="#000000" font-family="sans-serif" font-size="13" lengthAdjust="spacing" textLength="24" x="519.4086" y="310.4307">0..1</text></g><!--link -147215078 to 2037747288--><g id="link_-147215078_2037747288"><path codeLine="32" d="M107.771,297.9579 C125.812,289.9979 150.362,280.1889 173,274.5659 C273.289,249.6519 389.352,236.8629 477.867,230.3229 " fill="none" id="-147215078-to-2037747288" style="stroke:#000000;stroke-width:1.0;"/><polygon fill="#000000" points="482.858,229.9589,473.5914,226.6228,477.8712,230.3219,474.1721,234.6017,482.858,229.9589" style="stroke:#000000;stroke-width:1.0;"/><text fill="#000000" font-family="sans-serif" font-size="13" lengthAdjust="spacing" textLength="149" x="212.5" y="233.6328">dto:perceiver_agentive</text><text fill="#000000" font-family="sans-serif" font-size="13" lengthAdjust="spacing" textLength="8" x="467.1666" y="242.7864">1</text></g><!--link -147215078 to 1709941597--><g id="link_-147215078_1709941597"><path codeLine="34" d="M82.0636,297.8079 C86.0059,259.4409 103.395,144.5639 173,92.5659 C241.41,41.4599 333.011,24.9759 415.359,22.8239 " fill="none" id="-147215078-to-1709941597" style="stroke:#008000;stroke-width:2.0;"/><polygon fill="#008000" points="420.77,22.7029,411.6831,18.9045,415.7712,22.8144,411.8614,26.9025,420.77,22.7029" style="stroke:#008000;stroke-width:2.0;"/><text fill="#008000" font-family="sans-serif" font-size="13" lengthAdjust="spacing" textLength="112" x="231" y="19.6328">crm:P2_has_type</text><text fill="#008000" font-family="sans-serif" font-size="13" lengthAdjust="spacing" textLength="24" x="389.1969" y="34.3231">0..1</text></g><!--link -147215078 to -2008326481--><g id="link_-147215078_-2008326481"><path codeLine="35" d="M88.4204,297.7169 C102.0022,275.5519 133.163,230.5889 173,210.5659 C272.022,160.7939 310.325,190.3509 421,184.5659 C597.204,175.3539 655.857,114.9789 818,184.5659 C858.879,202.1099 891.389,244.1379 909.008,271.1499 " fill="none" id="-147215078-to--2008326481" style="stroke:#000000;stroke-width:1.0;"/><polygon fill="#000000" points="911.915,275.6799,910.4219,265.9449,909.2151,271.4715,903.6885,270.2647,911.915,275.6799" style="stroke:#000000;stroke-width:1.0;"/><text fill="#000000" font-family="sans-serif" font-size="13" lengthAdjust="spacing" textLength="111" x="564" y="146.6328">dto:phenomenon</text><text fill="#000000" font-family="sans-serif" font-size="13" lengthAdjust="spacing" textLength="8" x="899.2505" y="265.0489">1</text></g><!--link -147215078 to 696186563--><g id="link_-147215078_696186563"><path codeLine="36" d="M121.852,323.0669 C137.68,327.4219 156.043,331.8859 173,334.5659 C312.419,356.5989 479.029,360.4399 563.517,360.8229 " fill="none" id="-147215078-to-696186563" style="stroke:#000000;stroke-width:1.0;"/><polygon fill="#000000" points="568.715,360.8419,559.7299,356.8085,563.715,360.8233,559.7002,364.8085,568.715,360.8419" style="stroke:#000000;stroke-width:1.0;"/><text fill="#000000" font-family="sans-serif" font-size="13" lengthAdjust="spacing" textLength="139" x="217.5" y="330.6328">crm:P7_took_place at</text><text fill="#000000" font-family="sans-serif" font-size="13" lengthAdjust="spacing" textLength="24" x="537.0631" y="373.8565">0..1</text></g><!--SRC=[XLHTRzem57tdLrZXhIeiJiXd4TAAwDkqQlHjcYoJN8Y7OqUsIyUw_lSvIGbXOvcYI9RllUUUSwvj3bk3Z4IAxGg3SgOWCqoAKS5oG1bJ6OTs3MLbZgY4SWDAZ_IUYOegMg8DpVOx9Pz5lfHSAlHIC0Ez-99JhTS654XphE112jCcRlXpFq_873HKQERsDXKL-xys6yGQPyr-0i9-BxGkQ2vVcDYXBUKQHbcTYXpxKOrmv2R930T9XD1ujLhTSIOWtIa0WLv7hri6F7yRetbMqqkLF59-Rpakz5xgb8brLa09ymzDU85GRWwJ2bG6LMtOBMhIbbBK6sqkEc4rFHPVRxwTgaTl9sgvaUbZXqAeTVy03Tq9daKU3jmejdGRgXjklRPKk-9CbUaAa-MNJsGb33F7jj1ptTZtmbcCqNmkNtZwL5XB5ej160yJoqDBqM1uhXz5jdySMuWsxf9xPidlM4Ov-RpvRW_ABMf2Va8-PiRA6kuGUEI9bJ1PLxHjCean3k8aYgDXXO5F7csWjILCGXo7GUWFrqGr9NReFC4Uza8l33iz0LaTG9Whd9spymwQJ7uja7CkTz2uERZEsQ4kwUoxymwQ90yMhfDvFRF5wtGD9VLv_AVfXGQRw4wdDkE2pBZLd3PJV9oHWcfYwWbfEw41Y4ipUX09sKfLQc8leo5oUmMYhkyxrzNNzw2vJVRuAq9tTZHsTGNXPf01Zdr6jB7zDQ5R- -eGKm01aL-dywxe_3ASF6nkx9s17-PzMUzEDvBdfqvUQvTzqluXyy_vzNGM86Hf_m6JUyVXKc54Z9HxKjKN0b7p6m00]--></g></svg>