<?xml version="1.0" encoding="windows-1252" standalone="no"?>
<svg xmlns="http://www.w3.org/2000/svg" xmlns:xlink="http://www.w3.org/1999/xlink" contentStyleType="text/css" height="839px" preserveAspectRatio="none" style="width:1333px;height:839px;background:#FFFFFF;" version="1.1" viewBox="0 0 1333 839" width="1333px" zoomAndPan="magnify"><defs/><g><!--class 867227042--><g id="elem_867227042"><rect codeLine="10" fill="#EEEEEE" height="48.2656" id="867227042" rx="2.5" ry="2.5" style="stroke:#008000;stroke-width:0.5;" width="366" x="423.5" y="30.6837"/><text fill="#000000" font-family="sans-serif" font-size="13" lengthAdjust="spacing" textLength="4" x="604.5" y="47.7506"> </text><line style="stroke:#008000;stroke-width:0.5;" x1="424.5" x2="788.5" y1="55.8165" y2="55.8165"/><polygon fill="none" points="434.5,63.8829,438.5,67.8829,434.5,71.8829,430.5,67.8829" style="stroke:#B38D22;stroke-width:1.0;"/><text fill="#4169E1" font-family="sans-serif" font-size="13" lengthAdjust="spacing" textLength="97" x="443.5" y="71.8834">skos:inScheme</text><text fill="#000000" font-family="sans-serif" font-size="13" lengthAdjust="spacing" textLength="210" x="548.5" y="71.8834">dtv-travel, skos:ConceptScheme</text><text fill="#008000" font-family="sans-serif" font-size="13" lengthAdjust="spacing" textLength="17" x="766.5" y="71.8834">[*]</text></g><!--class -1573784823--><g id="elem_-1573784823"><rect codeLine="13" fill="#EEEEEE" height="48.2656" id="-1573784823" rx="2.5" ry="2.5" style="stroke:#008000;stroke-width:0.5;" width="420" x="396.5" y="118.6837"/><text fill="#000000" font-family="sans-serif" font-size="13" lengthAdjust="spacing" textLength="4" x="604.5" y="135.7506"> </text><line style="stroke:#008000;stroke-width:0.5;" x1="397.5" x2="815.5" y1="143.8165" y2="143.8165"/><polygon fill="none" points="407.5,151.8829,411.5,155.8829,407.5,159.8829,403.5,155.8829" style="stroke:#B38D22;stroke-width:1.0;"/><text fill="#4169E1" font-family="sans-serif" font-size="13" lengthAdjust="spacing" textLength="97" x="416.5" y="159.8834">skos:inScheme</text><text fill="#000000" font-family="sans-serif" font-size="13" lengthAdjust="spacing" textLength="264" x="521.5" y="159.8834">dtv-transportation, skos:ConceptScheme</text><text fill="#008000" font-family="sans-serif" font-size="13" lengthAdjust="spacing" textLength="17" x="793.5" y="159.8834">[*]</text></g><!--class 1156104975--><g id="elem_1156104975"><rect codeLine="16" fill="#EEEEEE" height="48.2656" id="1156104975" rx="2.5" ry="2.5" style="stroke:#008000;stroke-width:0.5;" width="353" x="973.5" y="746.6837"/><text fill="#000000" font-family="sans-serif" font-size="13" lengthAdjust="spacing" textLength="4" x="1148" y="763.7506"> </text><line style="stroke:#008000;stroke-width:0.5;" x1="974.5" x2="1325.5" y1="771.8165" y2="771.8165"/><polygon fill="none" points="984.5,779.8829,988.5,783.8829,984.5,787.8829,980.5,783.8829" style="stroke:#B38D22;stroke-width:1.0;"/><text fill="#4169E1" font-family="sans-serif" font-size="13" lengthAdjust="spacing" textLength="97" x="993.5" y="787.8834">skos:inScheme</text><text fill="#000000" font-family="sans-serif" font-size="13" lengthAdjust="spacing" textLength="197" x="1098.5" y="787.8834">dtv-unit, skos:ConceptScheme</text><text fill="#008000" font-family="sans-serif" font-size="13" lengthAdjust="spacing" textLength="17" x="1303.5" y="787.8834">[*]</text></g><!--class 1289419296--><g id="elem_1289419296"><rect codeLine="19" fill="#F1F1F1" height="39.1016" id="1289419296" rx="2.5" ry="2.5" style="stroke:#000000;stroke-width:0.5;" width="97" x="76.5" y="460.1837"/><text fill="#0000FF" font-family="sans-serif" font-size="12" font-style="italic" lengthAdjust="spacing" textLength="95" x="77.5" y="476.3224">«crm:E9_Move»</text><text fill="#000000" font-family="sans-serif" font-size="13" lengthAdjust="spacing" textLength="66" x="92" y="491.2193">dto:Travel</text></g><!--class 777202189--><g id="elem_777202189"><rect codeLine="21" fill="#F1F1F1" height="39.1016" id="777202189" rx="2.5" ry="2.5" style="stroke:#000000;stroke-width:0.5;" width="167" x="1066.5" y="304.1837"/><text fill="#0000FF" font-family="sans-serif" font-size="12" font-style="italic" lengthAdjust="spacing" textLength="160" x="1070" y="320.3224">«crm:E18_Physical_Thing»</text><text fill="#000000" font-family="sans-serif" font-size="13" lengthAdjust="spacing" textLength="161" x="1069.5" y="335.2193">crm:E19_Physical_Object</text></g><!--class 2037747288--><g id="elem_2037747288"><rect codeLine="23" fill="#F1F1F1" height="39.1016" id="2037747288" rx="2.5" ry="2.5" style="stroke:#000000;stroke-width:0.5;" width="175" x="519" y="383.1837"/><text fill="#0000FF" font-family="sans-serif" font-size="12" font-style="italic" lengthAdjust="spacing" textLength="173" x="520" y="399.3224">«crm:E20_Biological_Object»</text><text fill="#000000" font-family="sans-serif" font-size="13" lengthAdjust="spacing" textLength="105" x="554" y="414.2193">crm:E21_Person</text></g><!--class -214576153--><g id="elem_-214576153"><rect codeLine="25" fill="#F1F1F1" height="39.1016" id="-214576153" rx="2.5" ry="2.5" style="stroke:#000000;stroke-width:0.5;" width="248" x="482.5" y="304.1837"/><text fill="#0000FF" font-family="sans-serif" font-size="12" font-style="italic" lengthAdjust="spacing" textLength="246" x="483.5" y="320.3224">«crm:E24_Physical_Human-Made_Thing»</text><text fill="#000000" font-family="sans-serif" font-size="13" lengthAdjust="spacing" textLength="194" x="509.5" y="335.2193">crm:E22_Human-Made_Object</text></g><!--class -1773481607--><g id="elem_-1773481607"><rect codeLine="27" fill="#F1F1F1" height="39.1016" id="-1773481607" rx="2.5" ry="2.5" style="stroke:#000000;stroke-width:0.5;" width="167" x="1066.5" y="440.1837"/><text fill="#0000FF" font-family="sans-serif" font-size="12" font-style="italic" lengthAdjust="spacing" textLength="165" x="1067.5" y="456.3224">«crm:E77_Persistent_Item»</text><text fill="#000000" font-family="sans-serif" font-size="13" lengthAdjust="spacing" textLength="95" x="1102.5" y="471.2193">crm:E39_Actor</text></g><!--class -811589787--><g id="elem_-811589787"><rect codeLine="29" fill="#F1F1F1" height="39.1016" id="-811589787" rx="2.5" ry="2.5" style="stroke:#000000;stroke-width:0.5;" width="136" x="538.5" y="560.1837"/><text fill="#0000FF" font-family="sans-serif" font-size="12" font-style="italic" lengthAdjust="spacing" textLength="132" x="540.5" y="576.3224">«crm:E1_CRM_Entity»</text><text fill="#000000" font-family="sans-serif" font-size="13" lengthAdjust="spacing" textLength="130" x="541.5" y="591.2193">crm:E52_Time-Span</text></g><!--class 696186563--><g id="elem_696186563"><rect codeLine="31" fill="#F1F1F1" height="39.1016" id="696186563" rx="2.5" ry="2.5" style="stroke:#000000;stroke-width:0.5;" width="134" x="539.5" y="639.1837"/><text fill="#0000FF" font-family="sans-serif" font-size="12" font-style="italic" lengthAdjust="spacing" textLength="132" x="540.5" y="655.3224">«crm:E1_CRM_Entity»</text><text fill="#000000" font-family="sans-serif" font-size="13" lengthAdjust="spacing" textLength="92" x="560.5" y="670.2193">crm:E53 Place</text></g><!--class -1195048989--><g id="elem_-1195048989"><rect codeLine="33" fill="#F1F1F1" height="85.3672" id="-1195048989" rx="2.5" ry="2.5" style="stroke:#000000;stroke-width:0.5;" width="345" x="434" y="728.1837"/><text fill="#0000FF" font-family="sans-serif" font-size="12" font-style="italic" lengthAdjust="spacing" textLength="132" x="540.5" y="744.3224">«crm:E1_CRM_Entity»</text><text fill="#000000" font-family="sans-serif" font-size="13" lengthAdjust="spacing" textLength="129" x="542" y="759.2193">crm:E54_Dimension</text><line style="stroke:#000000;stroke-width:0.5;" x1="435" x2="778" y1="767.2853" y2="767.2853"/><ellipse cx="445" cy="780.3517" fill="none" rx="3" ry="3" style="stroke:#038048;stroke-width:1.0;"/><text fill="#4169E1" font-family="sans-serif" font-size="13" lengthAdjust="spacing" textLength="112" x="454" y="783.3522">crm:P3_has_note</text><text fill="#000000" font-family="sans-serif" font-size="13" lengthAdjust="spacing" textLength="69" x="574" y="783.3522">rdfs:Literal</text><text fill="#008000" font-family="sans-serif" font-size="13" lengthAdjust="spacing" textLength="34" x="651" y="783.3522">[0..1]</text><line style="stroke:#000000;stroke-width:0.5;" x1="435" x2="778" y1="790.4181" y2="790.4181"/><ellipse cx="445" cy="803.4845" fill="#84BE84" rx="3" ry="3" style="stroke:#038048;stroke-width:1.0;"/><text fill="#4169E1" font-family="sans-serif" font-size="13" lengthAdjust="spacing" textLength="126" x="454" y="806.485">crm:P90_has_value</text><text fill="#000000" font-family="sans-serif" font-size="13" lengthAdjust="spacing" textLength="159" x="588" y="806.485">xsd:decimal, xsd:integer</text><text fill="#008000" font-family="sans-serif" font-size="13" lengthAdjust="spacing" textLength="18" x="755" y="806.485">[1]</text></g><!--link 2037747288 to -1773481607--><g id="link_2037747288_-1773481607"><path codeLine="37" d="M694.201,411.8097 C790.037,421.8977 944.294,438.1357 1046.16,448.8587 " fill="none" id="2037747288-to--1773481607" style="stroke:#0000FF;stroke-width:1.0;"/><polygon fill="none" points="1046.96,441.9037,1066.11,450.9587,1045.49,455.8267,1046.96,441.9037" style="stroke:#0000FF;stroke-width:1.0;"/></g><!--link 2037747288 to 777202189--><g id="link_2037747288_777202189"><path codeLine="38" d="M694.201,390.0347 C790.037,376.0527 944.294,353.5487 1046.16,338.6877 " fill="none" id="2037747288-to-777202189" style="stroke:#9999FF;stroke-width:1.0;"/><polygon fill="none" points="1045.31,331.7367,1066.11,335.7757,1047.33,345.5897,1045.31,331.7367" style="stroke:#9999FF;stroke-width:1.0;"/></g><!--link -214576153 to 777202189--><g id="link_-214576153_777202189"><path codeLine="39" d="M730.713,323.6837 C825.972,323.6837 956.308,323.6837 1046.05,323.6837 " fill="none" id="-214576153-to-777202189" style="stroke:#0000FF;stroke-width:1.0;"/><polygon fill="none" points="1046.24,316.6837,1066.24,323.6837,1046.24,330.6837,1046.24,316.6837" style="stroke:#0000FF;stroke-width:1.0;"/></g><!--link 1289419296 to 777202189--><g id="link_1289419296_777202189"><path codeLine="40" d="M127.084,460.1777 C130.301,422.9227 143.048,341.9537 193.5,303.6837 C327.873,201.7557 851.411,274.3297 1061.27,308.5307 " fill="none" id="1289419296-to-777202189" style="stroke:#000000;stroke-width:1.0;"/><polygon fill="#000000" points="1066.48,309.3807,1058.2362,303.9919,1061.5444,308.5805,1056.9558,311.8888,1066.48,309.3807" style="stroke:#000000;stroke-width:1.0;"/><text fill="#000000" font-family="sans-serif" font-size="13" lengthAdjust="spacing" textLength="82" x="565.5" y="246.7506">dto:baggage</text><text fill="#000000" font-family="sans-serif" font-size="13" lengthAdjust="spacing" textLength="7" x="1051.4578" y="320.8219">*</text></g><!--link 1289419296 to 1289419296--><g id="link_1289419296_1289419296"><path codeLine="41" d="M117.053,460.1817 C112.664,441.1237 115.312,420.1837 125,420.1837 C133.855,420.1837 136.829,437.6787 133.923,455.2407 " fill="none" id="1289419296-to-1289419296" style="stroke:#000000;stroke-width:1.0;"/><polygon fill="#000000" points="132.947,460.1817,138.615,452.1273,133.9158,455.2765,130.7666,450.5772,132.947,460.1817" style="stroke:#000000;stroke-width:1.0;"/><text fill="#000000" font-family="sans-serif" font-size="13" lengthAdjust="spacing" textLength="226" x="12" y="411.2506">crm:P183i_starts_after_the_end_of</text><text fill="#000000" font-family="sans-serif" font-size="13" lengthAdjust="spacing" textLength="7" x="127.3089" y="448.984">*</text></g><!--link 1289419296 to 1289419296--><g id="link_1289419296_1289419296"><path codeLine="48" d="M113.613,460.1477 C99.1211,425.6747 102.9167,380.1837 125,380.1837 C146.048,380.1837 150.483,421.5097 138.304,455.2337 " fill="none" id="1289419296-to-1289419296-1" style="stroke:#000000;stroke-width:1.0;"/><polygon fill="#000000" points="136.387,460.1477,143.3848,453.2173,138.2045,455.4897,135.9321,450.3094,136.387,460.1477" style="stroke:#000000;stroke-width:1.0;"/><text fill="#000000" font-family="sans-serif" font-size="13" lengthAdjust="spacing" textLength="144" x="53" y="371.2506">crm:P9_forms_part_of</text><text fill="#000000" font-family="sans-serif" font-size="13" lengthAdjust="spacing" textLength="24" x="143.2569" y="449.2774">0..1</text></g><!--link 1289419296 to 1289419296--><g id="link_1289419296_1289419296"><path codeLine="49" d="M111.7,460.0107 C85.6447,411.0697 90.0781,340.1837 125,340.1837 C158.831,340.1837 164.048,406.7077 140.654,455.3607 " fill="none" id="1289419296-to-1289419296-2" style="stroke:#000000;stroke-width:1.0;"/><polygon fill="#000000" points="138.3,460.0107,145.9321,453.7857,140.5572,455.5492,138.7937,450.1742,138.3,460.0107" style="stroke:#000000;stroke-width:1.0;"/><text fill="#000000" font-family="sans-serif" font-size="13" lengthAdjust="spacing" textLength="132" x="59" y="331.2506">crm:P134_continued</text><text fill="#000000" font-family="sans-serif" font-size="13" lengthAdjust="spacing" textLength="24" x="114.6819" y="449.1001">0..1</text></g><!--link 1289419296 to 696186563--><g id="link_1289419296_696186563"><path codeLine="42" d="M128.629,499.2287 C135.98,550.6177 158.53,687.3747 193.5,713.6837 C265.62,767.9401 308.835,730.1275 396.5,708.6837 C442.294,697.4817 493.802,685.1567 534.225,675.5457 " fill="none" id="1289419296-to-696186563" style="stroke:#000000;stroke-width:1.0;"/><polygon fill="#000000" points="539.099,674.3877,529.4181,672.5765,534.2344,675.5435,531.2674,680.3598,539.099,674.3877" style="stroke:#000000;stroke-width:1.0;"/><text fill="#000000" font-family="sans-serif" font-size="13" lengthAdjust="spacing" textLength="53" x="258.5" y="709.7506">dto:goal</text><text fill="#000000" font-family="sans-serif" font-size="13" lengthAdjust="spacing" textLength="8" x="523.2895" y="688.9942">1</text></g><!--link 1289419296 to 696186563--><g id="link_1289419296_696186563"><path codeLine="43" d="M132.732,499.4617 C142.208,524.1007 161.937,565.5277 193.5,586.6837 C221.368,605.3637 423.731,634.5977 534.114,649.4117 " fill="none" id="1289419296-to-696186563-1" style="stroke:#000000;stroke-width:1.0;"/><polygon fill="#000000" points="539.3,650.1057,530.9112,644.9455,534.3443,649.4414,529.8484,652.8745,539.3,650.1057" style="stroke:#000000;stroke-width:1.0;"/><text fill="#000000" font-family="sans-serif" font-size="13" lengthAdjust="spacing" textLength="55" x="257.5" y="582.7506">dto:path</text><text fill="#000000" font-family="sans-serif" font-size="13" lengthAdjust="spacing" textLength="24" x="507.5038" y="662.068">0..1</text></g><!--link 1289419296 to 696186563--><g id="link_1289419296_696186563"><path codeLine="51" d="M127.012,499.3917 C130.105,536.5447 142.645,616.3737 193.5,651.6837 C246.736,688.6467 431.005,676.7937 534.154,666.7087 " fill="none" id="1289419296-to-696186563-2" style="stroke:#000000;stroke-width:1.0;"/><polygon fill="#000000" points="539.307,666.1997,529.9574,663.1037,534.3312,666.6911,530.7437,671.0649,539.307,666.1997" style="stroke:#000000;stroke-width:1.0;"/><text fill="#000000" font-family="sans-serif" font-size="13" lengthAdjust="spacing" textLength="69" x="250.5" y="647.7506">dto:source</text><text fill="#000000" font-family="sans-serif" font-size="13" lengthAdjust="spacing" textLength="8" x="523.5203" y="679.9107">1</text></g><!--link 1289419296 to 2037747288--><g id="link_1289419296_2037747288"><path codeLine="44" d="M168.239,460.0927 C176.479,456.8657 185.154,453.8667 193.5,451.6837 C301.179,423.5237 428.965,411.5057 513.359,406.4037 " fill="none" id="1289419296-to-2037747288" style="stroke:#000000;stroke-width:1.0;"/><polygon fill="#000000" points="518.603,406.0917,509.3822,402.631,513.6118,406.3874,509.8553,410.617,518.603,406.0917" style="stroke:#000000;stroke-width:1.0;"/><text fill="#000000" font-family="sans-serif" font-size="13" lengthAdjust="spacing" textLength="76" x="247" y="414.7506">dto:traveler</text><text fill="#000000" font-family="sans-serif" font-size="13" lengthAdjust="spacing" textLength="8" x="502.9928" y="419.0632">1</text></g><!--link 1289419296 to 867227042--><g id="link_1289419296_867227042"><path codeLine="45" d="M126.497,459.8057 C128.712,388.6957 140.093,148.5297 193.5,98.6837 C263.822,33.0507 373.093,23.9787 461.436,30.2867 " fill="none" id="1289419296-to-867227042" style="stroke:#008000;stroke-width:2.0;"/><polygon fill="#008000" points="466.423,30.6607,457.7476,25.9984,461.437,30.2865,457.1489,33.9759,466.423,30.6607" style="stroke:#008000;stroke-width:2.0;"/><text fill="#008000" font-family="sans-serif" font-size="13" lengthAdjust="spacing" textLength="112" x="229" y="26.7506">crm:P2_has_type</text><text fill="#008000" font-family="sans-serif" font-size="13" lengthAdjust="spacing" textLength="24" x="403.4533" y="19.6328">0..1</text></g><!--link 1289419296 to -811589787--><g id="link_1289419296_-811589787"><path codeLine="46" d="M147.781,499.3967 C160.268,509.5557 176.754,521.1527 193.5,527.6837 C253.773,551.1897 432.026,567.2947 533.215,574.8227 " fill="none" id="1289419296-to--811589787" style="stroke:#000000;stroke-width:1.0;"/><polygon fill="#000000" points="538.273,575.1967,529.5923,570.5443,533.2866,574.8282,529.0027,578.5225,538.273,575.1967" style="stroke:#000000;stroke-width:1.0;"/><text fill="#000000" font-family="sans-serif" font-size="13" lengthAdjust="spacing" textLength="148" x="211" y="523.7506">crm:P4_has_time-span</text><text fill="#000000" font-family="sans-serif" font-size="13" lengthAdjust="spacing" textLength="24" x="506.3757" y="587.5617">0..1</text></g><!--link 1289419296 to -214576153--><g id="link_1289419296_-214576153"><path codeLine="47" d="M135.393,460.0477 C146.331,439.4687 166.416,407.9197 193.5,391.6837 C279.003,340.4277 391.525,324.6157 477.369,320.9597 " fill="none" id="1289419296-to--214576153" style="stroke:#000000;stroke-width:1.0;"/><polygon fill="#000000" points="482.467,320.7557,473.3142,317.1188,477.471,320.9557,473.6342,325.1124,482.467,320.7557" style="stroke:#000000;stroke-width:1.0;"/><text fill="#000000" font-family="sans-serif" font-size="13" lengthAdjust="spacing" textLength="71" x="249.5" y="326.7506">dto:vehicle</text><text fill="#000000" font-family="sans-serif" font-size="13" lengthAdjust="spacing" textLength="24" x="450.6026" y="333.0878">0..1</text></g><!--link 1289419296 to -1573784823--><g id="link_1289419296_-1573784823"><path codeLine="50" d="M127.754,459.9557 C133.408,401.1317 153.175,228.7927 193.5,192.6837 C246.772,144.9827 320.658,126.7517 391.17,122.3097 " fill="none" id="1289419296-to--1573784823" style="stroke:#008000;stroke-width:2.0;"/><polygon fill="#008000" points="396.241,122.0137,387.0232,118.5451,391.2495,122.3051,387.4894,126.5315,396.241,122.0137" style="stroke:#008000;stroke-width:2.0;"/><text fill="#008000" font-family="sans-serif" font-size="13" lengthAdjust="spacing" textLength="181" x="194.5" y="119.7506">dto:mode_of_transportation</text><text fill="#008000" font-family="sans-serif" font-size="13" lengthAdjust="spacing" textLength="24" x="364.2536" y="133.6049">0..1</text></g><!--link 1289419296 to -1195048989--><g id="link_1289419296_-1195048989"><path codeLine="52" d="M127.527,499.2717 C132.588,558.4977 150.965,733.7122 193.5,767.6837 C261.453,821.9559 357.789,825.3544 440.221,813.9602 " fill="none" id="1289419296-to--1195048989" style="stroke:#000000;stroke-width:1.0;"/><polygon fill="#000000" points="445.63,813.1887,436.1548,810.5017,440.6803,813.8958,437.2861,818.4213,445.63,813.1887" style="stroke:#000000;stroke-width:1.0;"/><text fill="#000000" font-family="sans-serif" font-size="13" lengthAdjust="spacing" textLength="80" x="245" y="763.7506">dto:distance</text><text fill="#000000" font-family="sans-serif" font-size="13" lengthAdjust="spacing" textLength="24" x="401.6419" y="831.0239">0..1</text></g><!--link 1289419296 to -1773481607--><g id="link_1289419296_-1773481607"><path codeLine="53" d="M173.629,478.7527 C333.531,475.6267 852.799,465.4747 1061.23,461.3997 " fill="none" id="1289419296-to--1773481607" style="stroke:#000000;stroke-width:1.0;"/><polygon fill="#000000" points="1066.4,461.2987,1057.3218,457.4795,1061.401,461.3987,1057.4818,465.4779,1066.4,461.2987" style="stroke:#000000;stroke-width:1.0;"/><text fill="#000000" font-family="sans-serif" font-size="13" lengthAdjust="spacing" textLength="114" x="549.5" y="461.7506">dto:co-participant</text><text fill="#000000" font-family="sans-serif" font-size="13" lengthAdjust="spacing" textLength="7" x="1051.3705" y="474.2073">*</text></g><!--link -1195048989 to 1156104975--><g id="link_-1195048989_1156104975"><path codeLine="54" d="M779.206,770.6837 C839.465,770.6837 907.317,770.6837 968.292,770.6837 " fill="none" id="-1195048989-to-1156104975" style="stroke:#008000;stroke-width:2.0;"/><polygon fill="#008000" points="973.418,770.6837,964.418,766.6837,968.418,770.6837,964.418,774.6837,973.418,770.6837" style="stroke:#008000;stroke-width:2.0;"/><text fill="#008000" font-family="sans-serif" font-size="13" lengthAdjust="spacing" textLength="115" x="837.5" y="766.7506">crm:P91_has_unit</text><text fill="#008000" font-family="sans-serif" font-size="13" lengthAdjust="spacing" textLength="8" x="957.2354" y="783.0874">1</text></g><!--SRC=[hLRRRjiu47ttLn3EMxlAYf8iYcvWO9kws08D6jHvAnO4BOqbRYJI86ctRjf_BoLV9Bk-PBk5NsHovl1mvimCIvXPP1NI8YyioeI6r0ebUuN80AL2foMilw6QsnMge9g2DZtpAEISQrwXAKyVSwqMChjLfTBeSo4iTFPlIsxCn886PLTpUAkaNHjEoqNNJgeC3CnHv7SMDPUFFoqsY3NEH7m5XCFErgJWcVeiP8vcl3JGIsjJr7S_Rb0Iao0WVXGWT3KUZr-LGi8mrm0IFVMUPWBAxFiLkabhTaEjLhnyxIYEpACoGo4dQG4LtFpPR8yGokpIiveleVm3DIQtIgOmjsixjCLfy4UVNlopzUnztsVbuG49IH8bGVWxUKapLzhoEfV_Zn_6WnZx4IM3tqPl8ONzLLAPLSE79knhTa528qm36gERcrHNmp5bTse9en6wQeXEIwTFHtG7q1XXokwBbH4fBzc7wRzEymqQ8IJm0vpGBHXEMhk7mkdg0cw0sRqh3oKRkC0F2Ob8a2HRlC1dhuMxKTuv-H9amFvUL5nwTpo3BbalmD60n7WGxj2Zbct7vpd4Gyh-IgtI6qaI4aO9ZdsoXIQakPWm5gHbxonK5m070NiG5NYJELy7mqkSaX9AaXqcPhSVxzXOMc5Nbz12TEyse46AQOoJU127lm8KiJUEbZHYaoCFOphmeuHsaduERYFubpyBllQz3rd13PFATYIlivaPldTTKVFoKEB-zJLkLVvKWItKQNJgD_1BxbPQ_2yc6sQGYegxLbJ_4T923lhmBDmjftuhpZxol6yZrE-alO-kclPyn6fN8_rDP2Xzs-ktOZncjyPgQxMsSIOl-eTcTOo7gAxnASzpdf_owYxkt9eGuIGKp5YkhM5yvcBER04CPCRKx0WOTc0xFHrGo1KlZxZKAJlZDUUsE75GDvXxFkiv0lhqQRlPjOrwazDN5hxOpMUzUZrLPRQDHD1efPwvfs7ReZoCOxJshalOk18-0z79_Dwbbb28-lLmqlDq4YcRALqPveQwFPwtYn0uZ5ZgtWX2BY0xmxwTli-AR7snohrK72ksFsN_exYCMkZqN6RQldJWcRacp6LwgZGEgxXrJ9LN1rIamYNKzlQFs15kv_tpfKPnevPwhly0]--></g></svg>