<?xml version="1.0" encoding="UTF-8"?>
<!DOCTYPE svg PUBLIC "-//W3C//DTD SVG 1.0//EN" "http://www.w3.org/TR/2001/REC-SVG-20010904/DTD/svg10.dtd">
<svg xmlns="http://www.w3.org/2000/svg" viewBox="0 0 65 80"
  width="650" height="800"
  xmlns:xlink="http://www.w3.org/1999/xlink">
    <desc>Peas in a box</desc>
<defs>
  
  <circle id="pea" r="2.5" cx="3" cy="-3"
      fill="lightgreen" stroke-width="1"/>
  
  <!--<path id="stem" d="M -1 -1 L 0 0 L -2 0 L 0 0 L -1 1" fill="none"/>-->

  <g id="pod">
    <!--<circle cx="0" cy="0" r="1" fill="red"/>-->
    <!--<path d="M -2 0 c -55 10 -15 -15 0 0 z" fill="lightgreen"/>-->
    
    <path d="M 0 0 C -5 1 -16 2 -30  0
      C -26 1.5  -26  3 -22 5
      C -18 7  1  11   0  0
      z " fill="lightgreen"/>
    <use xlink:href="#pea" x="-7.5" y="6.5"/>
    <use xlink:href="#pea" x="-13" y="7.25"/>
    <use xlink:href="#pea" x="-18" y="7"/>
    <circle r="2" cx="-20" cy="3.25"
      fill="lightgreen" stroke-width="1"/>
    <circle r="1.4" cx="-23.75" cy="2.15"
      fill="lightgreen" stroke-width="1"/>
    <path id="stem" d="M 0 0 L 1 -1 M 0 0 L 2 0 M 0 0 L 1 1"
      transform="rotate(-18)"
      fill="none" stroke-linecap="round"/>
  </g>
  
  
  
</defs>

  
 
  <g  transform="translate(20 72.86)" stroke="forestgreen" 
  >
  <!-- -->

    <use xlink:href="#pod" transform="translate(-7 -29) rotate(-75)"/>
    
    <!--<use xlink:href="#pea" x="-27.5" y="2.5"/>-->
    

    <use xlink:href="#pea" x="-12" y="-50"/>
    <use xlink:href="#pea" x="-10" y="-35"/>
    
    
    <use xlink:href="#pea" x="18" y="-1"/>
    
    <use xlink:href="#pea" x="0" y="0"/>
    
    <use xlink:href="#pea" x="6" y="0"/>
    <use xlink:href="#pea" x="3" y="0"/>
    <use xlink:href="#pea" x="9" y="0"/>
    <use xlink:href="#pea" x="14" y="0"/>
    <use xlink:href="#pea" x="14" y="0"/>
    <use xlink:href="#pea" x="19" y="0"/>

    <use xlink:href="#pea" x="21" y="-2"/>
    
    <use xlink:href="#pea" x="23" y="0"/>
    <use xlink:href="#pea" x="28" y="0"/>
 
    <use xlink:href="#pea" x="33" y="-4"/>
    
    <use xlink:href="#pea" x="34" y="0"/>

    <use xlink:href="#pea" x="30" y="0"/>
    <use xlink:href="#pea" x="26" y="-4"/>
 
    <use xlink:href="#pea" x="1" y="-5"/>
    <use xlink:href="#pea" x="6" y="-5"/>
    
    <use xlink:href="#pea" x="29" y="-7"/>
    <use xlink:href="#pea" x="9" y="-9"/>
    
    <use xlink:href="#pea" x="0" y="-18"/>
    <use xlink:href="#pea" x="5" y="-19"/>
    <use xlink:href="#pea" x="0" y="-23"/>
    <use xlink:href="#pea" x="5" y="-24"/>
    <use xlink:href="#pea" x="4.5" y="-29"/>
    <use xlink:href="#pea" x="0" y="-28"/>
    <use xlink:href="#pea" x="0" y="-33"/>
    
    <use xlink:href="#pea" x="34" y="-32"/>
    <use xlink:href="#pea" x="33" y="-27"/>
    <use xlink:href="#pea" x="24" y="-25"/>
    
    <text x="8" y="-3" font-family="Cambria"
      stroke="black" fill="rgb(129, 102, 135)"
      font-size="72" transform="rotate(-12)">P</text>
    
    <use xlink:href="#pea" x="3" y="-9"/>
    
    <use xlink:href="#pea" x="0" y="-10"/>
    <use xlink:href="#pea" x="7" y="-12"/>
    <use xlink:href="#pea" x="3" y="-14"/>
    
    <use xlink:href="#pea" x="21" y="-11"/>
    <use xlink:href="#pea" x="24" y="-10"/>
    <use xlink:href="#pea" x="34" y="-9"/>
    <use xlink:href="#pea" x="29" y="-11"/>
    <use xlink:href="#pea" x="32" y="-13"/>
    <use xlink:href="#pea" x="20" y="-16"/>
    <use xlink:href="#pea" x="25" y="-15"/>
    <use xlink:href="#pea" x="28" y="-16"/>
    <use xlink:href="#pea" x="31" y="-18"/>
    <use xlink:href="#pea" x="34" y="-22"/>

<!--
    <text x="-0.5" y="-17" font-family="Cambria"
      stroke="none" fill="black"
      font-size="16" font-weight="bold"
      transform="rotate(3)"
      >P</text>-->
    
    <use xlink:href="#pea" x="19" y="-21"/>
    <use xlink:href="#pea" x="24" y="-20"/>
    <use xlink:href="#pea" x="29" y="-23"/>
 
    
    <use xlink:href="#pea" x="17" y="-31"/>

<!--
    <text x="27" y="-13" font-family="Cambria"
      stroke="none" fill="black"
      font-size="18" font-weight="bold"
      transform="rotate(-3)"
      >P</text>-->
  
<!-- box -->
    <rect x="0" y="-64.72" width="40" height="64.72"
      fill="none" stroke="black" stroke-width="1"/>
    
    
    <path d="m -0.5 0 h 41"
      fill="none" stroke="black" stroke-width="2"/>


    <!-- the next 7 are spaced exactly 10 apart
    <g stroke="pink">
      <use xlink:href="#pea" x="0" y="10"/>
      <use xlink:href="#pea" x="10" y="10"/>
      <use xlink:href="#pea" x="20" y="10"/>
      <use xlink:href="#pea" x="30" y="10"/>
    </g>
       -->
    
    
</g>
  
  
</svg>