<?xml version="1.0" encoding="UTF-8" standalone="no"?>
<!-- Created with Inkscape (http://www.inkscape.org/) -->

<svg
   version="1.1"
   id="svg2"
   width="217.98666"
   height="295.93332"
   viewBox="0 0 217.98666 295.93332"
   xmlns="http://www.w3.org/2000/svg"
   xmlns:svg="http://www.w3.org/2000/svg">
  <defs
     id="defs6" />
  <g
     id="g10"
     transform="matrix(1.3333333,0,0,-1.3333333,0,295.93333)">
    <g
       id="g12"
       transform="scale(0.1)">
      <path
         d="M 763.055,1406.42 H 159.207 c -22.012,0 -39.852,-17.84 -39.852,-39.85 v -118.72 c 0,-22.01 17.84,-39.85 39.852,-39.85 h 603.848 c 22.008,0 39.851,17.84 39.851,39.85 v 118.72 c 0,22.01 -17.843,39.85 -39.851,39.85 z"
         style="fill:none;stroke:#000000;stroke-width:3.985;stroke-linecap:butt;stroke-linejoin:miter;stroke-miterlimit:10;stroke-dasharray:none;stroke-opacity:1"
         id="path14" />
      <g
         id="g16"
         transform="scale(10)">
        <text
           xml:space="preserve"
           transform="matrix(1,0,0,-1,15.257,128.231)"
           style="font-variant:normal;font-weight:normal;font-size:9.9626px;font-family:CMR10;-inkscape-font-specification:CMR10;writing-mode:lr-tb;fill:#000000;fill-opacity:1;fill-rule:nonzero;stroke:none"
           id="text22"><tspan
             x="0 5.5352197 10.793481 13.56109 16.328701 21.310001 26.845222 29.612833 35.148056 39.575436 44.556736 48.43119 51.198803 56.180103"
             y="0"
             id="tspan18">Syllabifcation</tspan><tspan
             x="1.60508 7.9730482 11.875399 16.856699 22.391922 26.321169 30.74855 34.650898 37.41851 42.953735 46.828182 49.595802 54.577103"
             y="-23.737101"
             id="tspan20">Transcription</tspan></text>
      </g>
      <path
         d="M 821.742,1679.65 H 100.52 c -22.0083,0 -39.852,-17.84 -39.852,-39.85 v -450.64 c 0,-22.01 17.8437,-39.85 39.852,-39.85 h 721.222 c 22.008,0 39.848,17.84 39.848,39.85 v 450.64 c 0,22.01 -17.84,39.85 -39.848,39.85 z"
         style="fill:none;stroke:#000000;stroke-width:3.985;stroke-linecap:butt;stroke-linejoin:miter;stroke-miterlimit:10;stroke-dasharray:none;stroke-opacity:1"
         id="path24" />
      <path
         d="m 1534.39,1551.19 h -487.23 c -22.01,0 -39.85,-17.84 -39.85,-39.85 v -193.71 c 0,-22.02 17.84,-39.86 39.85,-39.86 h 487.23 c 22.02,0 39.86,17.84 39.86,39.86 v 193.71 c 0,22.01 -17.84,39.85 -39.86,39.85 z"
         style="fill:none;stroke:#000000;stroke-width:3.985;stroke-linecap:butt;stroke-linejoin:miter;stroke-miterlimit:10;stroke-dasharray:none;stroke-opacity:1"
         id="path26" />
      <g
         id="g28"
         transform="scale(10)">
        <text
           xml:space="preserve"
           transform="matrix(1,0,0,-1,116.278,144.991)"
           style="font-variant:normal;font-weight:normal;font-size:9.9626px;font-family:CMR10;-inkscape-font-specification:CMR10;writing-mode:lr-tb;fill:#000000;fill-opacity:1;fill-rule:nonzero;stroke:none"
           id="text36"><tspan
             x="0 5.535212 9.4096727 13.31202 17.739407 21.66865"
             y="0"
             id="tspan30">Stress</tspan><tspan
             x="-11.1941 -6.2128 -2.2835562 1.6456878 4.4132991 9.394599 14.929811 23.231661 27.659035 32.915268"
             y="11.9559"
             id="tspan32">assignment</tspan><tspan
             x="-59.7332 -52.26125 -47.279949 -44.512333 -39.533195 -31.77812 -26.79682 -21.261597 -16.280296 -13.512685 -8.2544231 -4.3251791 -1.55758"
             y="-31.223"
             id="tspan34">Naiveanalysis</tspan></text>
      </g>
      <path
         d="M 1593.08,1923.22 H 41.832 c -22.0078,0 -39.84762,-17.84 -39.84762,-39.85 v -752.89 c 0,-22.02 17.83982,-39.85 39.84762,-39.85 H 1593.08 c 22.01,0 39.85,17.83 39.85,39.85 v 752.89 c 0,22.01 -17.84,39.85 -39.85,39.85 z"
         style="fill:none;stroke:#000000;stroke-width:3.985;stroke-linecap:butt;stroke-linejoin:miter;stroke-miterlimit:10;stroke-dasharray:none;stroke-opacity:1"
         id="path38" />
      <path
         d="m 533.988,2143.25 v 74.3 h 566.942 v -173.52 c -78.28,33.21 -205.196,33.21 -283.473,0 -78.277,-33.21 -205.191,-33.21 -283.469,0 v 99.22"
         style="fill:#ffffff;fill-opacity:1;fill-rule:nonzero;stroke:none"
         id="path40" />
      <path
         d="m 533.988,2143.25 v 74.3 h 566.942 v -173.52 c -78.28,33.21 -205.196,33.21 -283.473,0 -78.277,-33.21 -205.191,-33.21 -283.469,0 z"
         style="fill:none;stroke:#000000;stroke-width:3.985;stroke-linecap:butt;stroke-linejoin:miter;stroke-miterlimit:10;stroke-dasharray:none;stroke-opacity:1"
         id="path42" />
      <g
         id="g44"
         transform="scale(10)">
        <text
           xml:space="preserve"
           transform="matrix(1,0,0,-1,70.0809,210.92)"
           style="font-variant:normal;font-weight:normal;font-size:9.9626px;font-family:CMR10;-inkscape-font-specification:CMR10;writing-mode:lr-tb;fill:#000000;fill-opacity:1;fill-rule:nonzero;stroke:none"
           id="text48"><tspan
             x="0 6.6449237 11.072304 14.974657 18.903906"
             y="0"
             id="tspan46">Verse</tspan></text>
      </g>
      <path
         d="m 817.457,2042.03 v -70.99"
         style="fill:none;stroke:#000000;stroke-width:3.985;stroke-linecap:butt;stroke-linejoin:miter;stroke-miterlimit:10;stroke-dasharray:none;stroke-opacity:1"
         id="path50" />
      <path
         d="m 817.457,1933.43 c 1.129,4.62 7.516,24.92 14.465,37.61 h -28.93 c 6.953,-12.69 13.34,-32.99 14.465,-37.61"
         style="fill:#000000;fill-opacity:1;fill-rule:nonzero;stroke:none"
         id="path52" />
      <path
         d="m 817.457,1933.43 c 1.129,4.62 7.516,24.92 14.465,37.61 h -28.93 c 6.953,-12.69 13.34,-32.99 14.465,-37.61 z"
         style="fill:none;stroke:#000000;stroke-width:3.985;stroke-linecap:butt;stroke-linejoin:miter;stroke-miterlimit:10;stroke-dasharray:none;stroke-opacity:1"
         id="path54" />
      <path
         d="M 704.746,668.258 H 217.512 c -22.008,0 -39.852,-17.844 -39.852,-39.852 V 452.957 c 0,-22.008 17.844,-39.852 39.852,-39.852 h 487.234 c 22.012,0 39.852,17.844 39.852,39.852 v 175.449 c 0,22.008 -17.84,39.852 -39.852,39.852 z"
         style="fill:none;stroke:#000000;stroke-width:3.985;stroke-linecap:butt;stroke-linejoin:miter;stroke-miterlimit:10;stroke-dasharray:none;stroke-opacity:1"
         id="path56" />
      <g
         id="g58"
         transform="scale(10)">
        <text
           xml:space="preserve"
           transform="matrix(1,0,0,-1,23.1441,56.5879)"
           style="font-variant:normal;font-weight:normal;font-size:9.9626px;font-family:CMR10;-inkscape-font-specification:CMR10;writing-mode:lr-tb;fill:#000000;fill-opacity:1;fill-rule:nonzero;stroke:none"
           id="text64"><tspan
             x="0 7.4719501 15.49492 21.03014 23.797752 28.779053 34.314278 37.081886 40.677345"
             y="0"
             id="tspan60">Ambiguity</tspan><tspan
             x="0.23476601 4.137116 8.564496 12.493743 17.475042 20.242655 25.777876 28.545486 32.419941 35.187553 40.168854"
             y="11.9551"
             id="tspan62">resolultion</tspan></text>
      </g>
      <path
         d="M 1417.4,668.258 H 930.168 c -22.008,0 -39.852,-17.844 -39.852,-39.852 V 452.957 c 0,-22.008 17.844,-39.852 39.852,-39.852 H 1417.4 c 22.01,0 39.85,17.844 39.85,39.852 v 175.449 c 0,22.008 -17.84,39.852 -39.85,39.852 z"
         style="fill:none;stroke:#000000;stroke-width:3.985;stroke-linecap:butt;stroke-linejoin:miter;stroke-miterlimit:10;stroke-dasharray:none;stroke-opacity:1"
         id="path66" />
      <g
         id="g68"
         transform="scale(10)">
        <text
           xml:space="preserve"
           transform="matrix(1,0,0,-1,94.727,56.5879)"
           style="font-variant:normal;font-weight:normal;font-size:9.9626px;font-family:CMR10;-inkscape-font-specification:CMR10;writing-mode:lr-tb;fill:#000000;fill-opacity:1;fill-rule:nonzero;stroke:none"
           id="text76"><tspan
             x="0 6.7805495 10.682897 15.110282 18.154844 22.582232 26.484577 30.911964 36.447189 40.874573"
             y="0"
             id="tspan70">Preference</tspan><tspan
             x="-0.84414101 4.1371589 8.0664024 11.995646 16.423033 20.352276 24.281521 32.58337 37.010754 42.267185"
             y="11.9551"
             id="tspan72">assessment</tspan><tspan
             x="-56.04184 -50.506618 -45.24836 -42.480747 -39.713135 -34.731834 -29.196611 -26.428999 -18.684015 -13.702715 -8.16749 -5.1229219 0.41230267 4.3415527 8.2160015 16.517851 20.945236 26.201542"
             y="-21.563999"
             id="tspan74">Syllabicadjustment</tspan></text>
      </g>
      <path
         d="M 1476.09,942.59 H 158.828 c -22.012,0 -39.851,-17.84 -39.851,-39.852 V 394.27 c 0,-22.008 17.839,-39.848 39.851,-39.848 H 1476.09 c 22.01,0 39.85,17.84 39.85,39.848 v 508.468 c 0,22.012 -17.84,39.852 -39.85,39.852 z"
         style="fill:none;stroke:#000000;stroke-width:3.985;stroke-linecap:butt;stroke-linejoin:miter;stroke-miterlimit:10;stroke-dasharray:none;stroke-opacity:1"
         id="path78" />
      <path
         d="m 792.418,540.68 h 50.078"
         style="fill:none;stroke:#000000;stroke-width:3.985;stroke-linecap:butt;stroke-linejoin:miter;stroke-miterlimit:10;stroke-dasharray:none;stroke-opacity:1"
         id="path80" />
      <path
         d="m 754.805,540.68 c 4.621,-1.125 24.925,-7.512 37.613,-14.461 v 28.926 c -12.688,-6.95 -32.992,-13.336 -37.613,-14.465"
         style="fill:#000000;fill-opacity:1;fill-rule:nonzero;stroke:none"
         id="path82" />
      <path
         d="m 754.805,540.68 c 4.621,-1.125 24.925,-7.512 37.613,-14.461 v 28.926 c -12.688,-6.95 -32.992,-13.336 -37.613,-14.465 z"
         style="fill:none;stroke:#000000;stroke-width:3.985;stroke-linecap:butt;stroke-linejoin:miter;stroke-miterlimit:10;stroke-dasharray:none;stroke-opacity:1"
         id="path84" />
      <path
         d="m 880.109,540.68 c -4.621,1.129 -24.921,7.515 -37.613,14.465 v -28.926 c 12.692,6.949 32.992,13.336 37.613,14.461"
         style="fill:#000000;fill-opacity:1;fill-rule:nonzero;stroke:none"
         id="path86" />
      <path
         d="m 880.109,540.68 c -4.621,1.129 -24.921,7.515 -37.613,14.465 v -28.926 c 12.692,6.949 32.992,13.336 37.613,14.461 z"
         style="fill:none;stroke:#000000;stroke-width:3.985;stroke-linecap:butt;stroke-linejoin:miter;stroke-miterlimit:10;stroke-dasharray:none;stroke-opacity:1"
         id="path88" />
      <path
         d="M 817.457,1088.63 V 990.41"
         style="fill:none;stroke:#000000;stroke-width:3.985;stroke-linecap:butt;stroke-linejoin:miter;stroke-miterlimit:10;stroke-dasharray:none;stroke-opacity:1"
         id="path90" />
      <path
         d="m 817.457,952.797 c 1.129,4.621 7.516,24.926 14.465,37.613 h -28.93 c 6.953,-12.687 13.34,-32.992 14.465,-37.613"
         style="fill:#000000;fill-opacity:1;fill-rule:nonzero;stroke:none"
         id="path92" />
      <path
         d="m 817.457,952.797 c 1.129,4.621 7.516,24.926 14.465,37.613 h -28.93 c 6.953,-12.687 13.34,-32.992 14.465,-37.613 z"
         style="fill:none;stroke:#000000;stroke-width:3.985;stroke-linecap:butt;stroke-linejoin:miter;stroke-miterlimit:10;stroke-dasharray:none;stroke-opacity:1"
         id="path94" />
      <path
         d="m 512.906,134.395 v 74.308 H 1122.01 V 35.1797 c -84.1,33.2109 -220.451,33.2109 -304.553,0 -84.102,-33.20704 -220.453,-33.20704 -304.555,0 l 0.004,99.2153"
         style="fill:#ffffff;fill-opacity:1;fill-rule:nonzero;stroke:none"
         id="path96" />
      <path
         d="m 512.906,134.395 v 74.308 H 1122.01 V 35.1797 c -84.1,33.2109 -220.451,33.2109 -304.553,0 -84.102,-33.20704 -220.453,-33.20704 -304.555,0 z"
         style="fill:none;stroke:#000000;stroke-width:3.985;stroke-linecap:butt;stroke-linejoin:miter;stroke-miterlimit:10;stroke-dasharray:none;stroke-opacity:1"
         id="path98" />
      <g
         id="g100"
         transform="scale(10)">
        <text
           xml:space="preserve"
           transform="matrix(1,0,0,-1,54.6109,9.98203)"
           style="font-variant:normal;font-weight:normal;font-size:9.9626px;font-family:CMR10;-inkscape-font-specification:CMR10;writing-mode:lr-tb;fill:#000000;fill-opacity:1;fill-rule:nonzero;stroke:none"
           id="text104"><tspan
             x="0 6.501564 11.482863 15.385217 19.314466 23.741846 32.604694 37.583988 42.011372 45.913723 49.842968"
             y="0"
             id="tspan102">Parsedverse</tspan></text>
      </g>
      <path
         d="m 817.492,352.426 0.016,-95.883"
         style="fill:none;stroke:#000000;stroke-width:3.985;stroke-linecap:butt;stroke-linejoin:miter;stroke-miterlimit:10;stroke-dasharray:none;stroke-opacity:1"
         id="path106" />
      <path
         d="m 817.516,218.93 c 1.125,4.617 7.507,24.922 14.457,37.613 l -28.926,-0.004 c 6.949,-12.687 13.34,-32.992 14.469,-37.609"
         style="fill:#000000;fill-opacity:1;fill-rule:nonzero;stroke:none"
         id="path108" />
      <path
         d="m 817.516,218.93 c 1.125,4.617 7.507,24.922 14.457,37.613 l -28.926,-0.004 c 6.949,-12.687 13.34,-32.992 14.469,-37.609 z"
         style="fill:none;stroke:#000000;stroke-width:3.98492;stroke-linecap:butt;stroke-linejoin:miter;stroke-miterlimit:10;stroke-dasharray:none;stroke-opacity:1"
         id="path110" />
    </g>
  </g>
</svg>
