<svg width="1280" height="720" xmlns="http://www.w3.org/2000/svg" xmlns:xlink="http://www.w3.org/1999/xlink" overflow="hidden"><defs><clipPath id="clip0"><rect x="0" y="0" width="1280" height="720"/></clipPath></defs><g clip-path="url(#clip0)"><rect x="0" y="0" width="1280" height="720" fill="#FFFFFF"/><g><path d="M45.5001 504.5 1258.5 504.5M45.5001 405.5 1258.5 405.5M45.5001 306.5 1258.5 306.5M45.5001 207.5 1258.5 207.5M45.5001 108.5 1258.5 108.5M45.5001 8.50005 1258.5 8.50005" stroke="#D9D9D9" stroke-linejoin="round" stroke-miterlimit="10" fill="none"/></g><g><path d="M148.5 583.5 157.5 583.5 157.5 603.5 148.5 603.5ZM219.5 583.5 228.5 583.5 228.5 603.5 219.5 603.5ZM314.5 563.5 324.5 563.5 324.5 603.5 314.5 603.5ZM433.5 583.5 443.5 583.5 443.5 603.5 433.5 603.5ZM481.5 563.5 490.5 563.5 490.5 603.5 481.5 603.5ZM504.5 544.5 514.5 544.5 514.5 603.5 504.5 603.5ZM528.5 583.5 538.5 583.5 538.5 603.5 528.5 603.5ZM576.5 544.5 585.5 544.5 585.5 603.5 576.5 603.5ZM599.5 563.5 609.5 563.5 609.5 603.5 599.5 603.5ZM647.5 583.5 657.5 583.5 657.5 603.5 647.5 603.5ZM671.5 563.5 680.5 563.5 680.5 603.5 671.5 603.5ZM695.5 563.5 704.5 563.5 704.5 603.5 695.5 603.5ZM718.5 544.5 728.5 544.5 728.5 603.5 718.5 603.5ZM742.5 504.5 752.5 504.5 752.5 603.5 742.5 603.5ZM766.5 464.5 775.5 464.5 775.5 603.5 766.5 603.5ZM790.5 524.5 799.5 524.5 799.5 603.5 790.5 603.5ZM814.5 484.5 823.5 484.5 823.5 603.5 814.5 603.5ZM837.5 504.5 847.5 504.5 847.5 603.5 837.5 603.5ZM861.5 444.5 871.5 444.5 871.5 603.5 861.5 603.5ZM885.5 464.5 894.5 464.5 894.5 603.5 885.5 603.5ZM909.5 464.5 918.5 464.5 918.5 603.5 909.5 603.5ZM932.5 524.5 942.5 524.5 942.5 603.5 932.5 603.5ZM956.5 464.5 966.5 464.5 966.5 603.5 956.5 603.5ZM980.5 504.5 990.5 504.5 990.5 603.5 980.5 603.5ZM1004.5 464.5 1013.5 464.5 1013.5 603.5 1004.5 603.5ZM1028.5 484.5 1037.5 484.5 1037.5 603.5 1028.5 603.5ZM1051.5 583.5 1061.5 583.5 1061.5 603.5 1051.5 603.5ZM1075.5 504.5 1085.5 504.5 1085.5 603.5 1075.5 603.5ZM1099.5 365.5 1108.5 365.5 1108.5 603.5 1099.5 603.5ZM1123.5 484.5 1132.5 484.5 1132.5 603.5 1123.5 603.5ZM1146.5 484.5 1156.5 484.5 1156.5 603.5 1146.5 603.5ZM1170.5 425.5 1180.5 425.5 1180.5 603.5 1170.5 603.5ZM1194.5 524.5 1204.5 524.5 1204.5 603.5 1194.5 603.5ZM1218.5 464.5 1227.5 464.5 1227.5 603.5 1218.5 603.5ZM1242.5 504.5 1251.5 504.5 1251.5 603.5 1242.5 603.5Z" stroke="#C04F15" stroke-linejoin="round" stroke-miterlimit="10" fill="#E97132"/></g><g><path d="M124.5 563.5 133.5 563.5 133.5 603.5 124.5 603.5ZM148.5 563.5 157.5 563.5 157.5 583.5 148.5 583.5ZM219.5 563.5 228.5 563.5 228.5 583.5 219.5 583.5ZM267.5 583.5 276.5 583.5 276.5 603.5 267.5 603.5ZM314.5 544.5 324.5 544.5 324.5 563.5 314.5 563.5ZM385.5 583.5 395.5 583.5 395.5 603.5 385.5 603.5ZM409.5 563.5 419.5 563.5 419.5 603.5 409.5 603.5ZM481.5 544.5 490.5 544.5 490.5 563.5 481.5 563.5ZM528.5 563.5 538.5 563.5 538.5 583.5 528.5 583.5ZM552.5 583.5 561.5 583.5 561.5 603.5 552.5 603.5ZM576.5 484.5 585.5 484.5 585.5 544.5 576.5 544.5ZM599.5 504.5 609.5 504.5 609.5 563.5 599.5 563.5ZM671.5 484.5 680.5 484.5 680.5 563.5 671.5 563.5ZM695.5 524.5 704.5 524.5 704.5 563.5 695.5 563.5ZM718.5 444.5 728.5 444.5 728.5 544.5 718.5 544.5ZM742.5 444.5 752.5 444.5 752.5 504.5 742.5 504.5ZM766.5 425.5 775.5 425.5 775.5 464.5 766.5 464.5ZM790.5 504.5 799.5 504.5 799.5 524.5 790.5 524.5ZM814.5 444.5 823.5 444.5 823.5 484.5 814.5 484.5ZM861.5 266.5 871.5 266.5 871.5 444.5 861.5 444.5ZM885.5 365.5 894.5 365.5 894.5 464.5 885.5 464.5ZM909.5 425.5 918.5 425.5 918.5 464.5 909.5 464.5ZM932.5 425.5 942.5 425.5 942.5 524.5 932.5 524.5ZM956.5 286.5 966.5 286.5 966.5 464.5 956.5 464.5ZM980.5 425.5 990.5 425.5 990.5 504.5 980.5 504.5ZM1004.5 385.5 1013.5 385.5 1013.5 464.5 1004.5 464.5ZM1028.5 425.5 1037.5 425.5 1037.5 484.5 1028.5 484.5ZM1051.5 504.5 1061.5 504.5 1061.5 583.5 1051.5 583.5ZM1075.5 444.5 1085.5 444.5 1085.5 504.5 1075.5 504.5ZM1099.5 345.5 1108.5 345.5 1108.5 365.5 1099.5 365.5ZM1123.5 345.5 1132.5 345.5 1132.5 484.5 1123.5 484.5ZM1146.5 306.5 1156.5 306.5 1156.5 484.5 1146.5 484.5ZM1170.5 306.5 1180.5 306.5 1180.5 425.5 1170.5 425.5ZM1194.5 464.5 1204.5 464.5 1204.5 524.5 1194.5 524.5ZM1218.5 326.5 1227.5 326.5 1227.5 464.5 1218.5 464.5ZM1242.5 306.5 1251.5 306.5 1251.5 504.5 1242.5 504.5Z" stroke="#13501B" stroke-linejoin="round" stroke-miterlimit="10" fill="#196B24"/></g><g><path d="M45.5001 603.5 1258.5 603.5" stroke="#D9D9D9" stroke-linejoin="round" stroke-miterlimit="10" fill="none" fill-rule="evenodd"/></g><g><path d="M58 604 82 604 105 604 129 564 153 564 177 604 200 604 224 544 248 604 272 584 296 604 319 544 343 564 367 544 391 584 414 564 438 524 462 564 486 485 510 544 533 524 557 544 581 504 605 485 629 584 652 485 676 405 700 405 724 306 747 425 771 366 795 386 819 267 843 465 866 227 890 207 914 267 938 346 961 207 985 286 1009 346 1033 326 1057 386 1080 286 1104 267 1128 227 1152 187 1176 68 1199 247 1223 207 1247 207" stroke="#000000" stroke-width="2.33333" stroke-linecap="round" stroke-linejoin="round" stroke-miterlimit="10" fill="none"/></g><g><path d="M152.5 587.5 176.5 587.5 200.5 587.5 224.5 575.5 248.5 583.5 271.5 587.5 295.5 587.5 319.5 575.5 343.5 579.5 366.5 567.5 390.5 567.5 414.5 559.5 438.5 555.5 462.5 555.5 485.5 544.5 509.5 536.5 533.5 528.5 557.5 532.5 580.5 520.5 604.5 520.5 628.5 528.5 652.5 520.5 676.5 492.5 699.5 472.5 723.5 437.5 747.5 405.5 771.5 381.5 794.5 377.5 818.5 349.5 842.5 381.5 866.5 341.5 890.5 310.5 913.5 286.5 937.5 302.5 961.5 250.5 985.5 262.5 1009.5 290.5 1032.5 302.5 1056.5 310.5 1080.5 326.5 1104.5 322.5 1127.5 298.5 1151.5 270.5 1175.5 207.5 1199.5 199.5 1223.5 187.5 1246.5 183.5" stroke="#C00000" stroke-width="4.66667" stroke-linecap="round" stroke-linejoin="round" stroke-miterlimit="10" fill="none"/></g><g><text fill="#595959" font-family="Aptos,Aptos_MSFontService,sans-serif" font-weight="700" font-size="19" transform="translate(18.64 609)">0</text></g><g><text fill="#595959" font-family="Aptos,Aptos_MSFontService,sans-serif" font-weight="700" font-size="19" transform="translate(18.64 510)">5</text></g><g><text fill="#595959" font-family="Aptos,Aptos_MSFontService,sans-serif" font-weight="700" font-size="19" transform="translate(8.66667 411)">10</text></g><g><text fill="#595959" font-family="Aptos,Aptos_MSFontService,sans-serif" font-weight="700" font-size="19" transform="translate(8.66667 312)">15</text></g><g><text fill="#595959" font-family="Aptos,Aptos_MSFontService,sans-serif" font-weight="700" font-size="19" transform="translate(8.66667 213)">20</text></g><g><text fill="#595959" font-family="Aptos,Aptos_MSFontService,sans-serif" font-weight="700" font-size="19" transform="translate(8.66667 114)">25</text></g><g><text fill="#595959" font-family="Aptos,Aptos_MSFontService,sans-serif" font-weight="700" font-size="19" transform="translate(8.66667 14)">30</text></g><g><text fill="#595959" font-family="Aptos,Aptos_MSFontService,sans-serif" font-weight="700" font-size="22" transform="matrix(0.707107 -0.707107 0.707107 0.707107 30.9996 664)">Year</text></g><g><text fill="#595959" font-family="Aptos,Aptos_MSFontService,sans-serif" font-weight="700" font-size="22" transform="matrix(0.707107 -0.707107 0.707107 0.707107 77.4146 665)">1801</text></g><g><text fill="#595959" font-family="Aptos,Aptos_MSFontService,sans-serif" font-weight="700" font-size="22" transform="matrix(0.707107 -0.707107 0.707107 0.707107 124.98 665)">1803</text></g><g><text fill="#595959" font-family="Aptos,Aptos_MSFontService,sans-serif" font-weight="700" font-size="22" transform="matrix(0.707107 -0.707107 0.707107 0.707107 172.545 665)">1805</text></g><g><text fill="#595959" font-family="Aptos,Aptos_MSFontService,sans-serif" font-weight="700" font-size="22" transform="matrix(0.707107 -0.707107 0.707107 0.707107 220.11 665)">1807</text></g><g><text fill="#595959" font-family="Aptos,Aptos_MSFontService,sans-serif" font-weight="700" font-size="22" transform="matrix(0.707107 -0.707107 0.707107 0.707107 267.675 665)">1809</text></g><g><text fill="#595959" font-family="Aptos,Aptos_MSFontService,sans-serif" font-weight="700" font-size="22" transform="matrix(0.707107 -0.707107 0.707107 0.707107 315.24 665)">1811</text></g><g><text fill="#595959" font-family="Aptos,Aptos_MSFontService,sans-serif" font-weight="700" font-size="22" transform="matrix(0.707107 -0.707107 0.707107 0.707107 362.805 665)">1813</text></g><g><text fill="#595959" font-family="Aptos,Aptos_MSFontService,sans-serif" font-weight="700" font-size="22" transform="matrix(0.707107 -0.707107 0.707107 0.707107 410.37 665)">1815</text></g><g><text fill="#595959" font-family="Aptos,Aptos_MSFontService,sans-serif" font-weight="700" font-size="22" transform="matrix(0.707107 -0.707107 0.707107 0.707107 457.935 665)">1817</text></g><g><text fill="#595959" font-family="Aptos,Aptos_MSFontService,sans-serif" font-weight="700" font-size="22" transform="matrix(0.707107 -0.707107 0.707107 0.707107 505.5 665)">1819</text></g><g><text fill="#595959" font-family="Aptos,Aptos_MSFontService,sans-serif" font-weight="700" font-size="22" transform="matrix(0.707107 -0.707107 0.707107 0.707107 553.065 665)">1821</text></g><g><text fill="#595959" font-family="Aptos,Aptos_MSFontService,sans-serif" font-weight="700" font-size="22" transform="matrix(0.707107 -0.707107 0.707107 0.707107 600.63 665)">1823</text></g><g><text fill="#595959" font-family="Aptos,Aptos_MSFontService,sans-serif" font-weight="700" font-size="22" transform="matrix(0.707107 -0.707107 0.707107 0.707107 648.196 665)">1825</text></g><g><text fill="#595959" font-family="Aptos,Aptos_MSFontService,sans-serif" font-weight="700" font-size="22" transform="matrix(0.707107 -0.707107 0.707107 0.707107 695.761 665)">1827</text></g><g><text fill="#595959" font-family="Aptos,Aptos_MSFontService,sans-serif" font-weight="700" font-size="22" transform="matrix(0.707107 -0.707107 0.707107 0.707107 743.326 665)">1829</text></g><g><text fill="#595959" font-family="Aptos,Aptos_MSFontService,sans-serif" font-weight="700" font-size="22" transform="matrix(0.707107 -0.707107 0.707107 0.707107 790.891 665)">1831</text></g><g><text fill="#595959" font-family="Aptos,Aptos_MSFontService,sans-serif" font-weight="700" font-size="22" transform="matrix(0.707107 -0.707107 0.707107 0.707107 838.456 665)">1833</text></g><g><text fill="#595959" font-family="Aptos,Aptos_MSFontService,sans-serif" font-weight="700" font-size="22" transform="matrix(0.707107 -0.707107 0.707107 0.707107 886.021 665)">1835</text></g><g><text fill="#595959" font-family="Aptos,Aptos_MSFontService,sans-serif" font-weight="700" font-size="22" transform="matrix(0.707107 -0.707107 0.707107 0.707107 933.586 665)">1837</text></g><g><text fill="#595959" font-family="Aptos,Aptos_MSFontService,sans-serif" font-weight="700" font-size="22" transform="matrix(0.707107 -0.707107 0.707107 0.707107 981.151 665)">1839</text></g><g><text fill="#595959" font-family="Aptos,Aptos_MSFontService,sans-serif" font-weight="700" font-size="22" transform="matrix(0.707107 -0.707107 0.707107 0.707107 1028.72 665)">1841</text></g><g><text fill="#595959" font-family="Aptos,Aptos_MSFontService,sans-serif" font-weight="700" font-size="22" transform="matrix(0.707107 -0.707107 0.707107 0.707107 1076.28 665)">1843</text></g><g><text fill="#595959" font-family="Aptos,Aptos_MSFontService,sans-serif" font-weight="700" font-size="22" transform="matrix(0.707107 -0.707107 0.707107 0.707107 1123.85 665)">1845</text></g><g><text fill="#595959" font-family="Aptos,Aptos_MSFontService,sans-serif" font-weight="700" font-size="22" transform="matrix(0.707107 -0.707107 0.707107 0.707107 1171.41 665)">1847</text></g><g><text fill="#595959" font-family="Aptos,Aptos_MSFontService,sans-serif" font-weight="700" font-size="22" transform="matrix(0.707107 -0.707107 0.707107 0.707107 1218.98 665)">1849</text></g><g><rect x="136.5" y="689.5" width="26" height="11" stroke="#C04F15" stroke-linejoin="round" stroke-miterlimit="10" fill="#E97132"/></g><g><text fill="#595959" font-family="Aptos,Aptos_MSFontService,sans-serif" font-weight="700" font-size="21" transform="translate(165.012 701)">Accident~2</text></g><g><rect x="314.5" y="689.5" width="26" height="11" stroke="#13501B" stroke-linejoin="round" stroke-miterlimit="10" fill="#196B24"/></g><g><text fill="#595959" font-family="Aptos,Aptos_MSFontService,sans-serif" font-weight="700" font-size="21" transform="translate(342.715 701)">Fight*</text></g><g><path d="M440 695 466 695" stroke="#000000" stroke-width="2.33333" stroke-linecap="round" stroke-linejoin="round" stroke-miterlimit="10" fill="none" fill-rule="evenodd"/></g><g><text fill="#595959" font-family="Aptos,Aptos_MSFontService,sans-serif" font-weight="700" font-size="21" transform="translate(468.73 701)">All Manslaughter Trials</text></g><g><path d="M730.5 695.5 755.5 695.5" stroke="#C00000" stroke-width="4.66667" stroke-linecap="round" stroke-linejoin="round" stroke-miterlimit="10" fill="none" fill-rule="evenodd"/></g><g><text fill="#595959" font-family="Aptos,Aptos_MSFontService,sans-serif" font-weight="700" font-size="21" transform="translate(758.68 701)">5 per. Mov. Avg. (All Manslaughter Trials)</text></g></g></svg>