<svg width="624" height="352" xmlns="http://www.w3.org/2000/svg" xmlns:xlink="http://www.w3.org/1999/xlink" xml:space="preserve" overflow="hidden"><g><g><g><g><g><path d="M0 0 624 0 624 351 0 351Z" fill="#FFFFFF" fill-rule="nonzero" fill-opacity="1"/><path d="M35.295 254.865 612.885 254.865M35.295 218.205 612.885 218.205M35.295 181.935 612.885 181.935M35.295 145.665 612.885 145.665M35.295 109.005 612.885 109.005M35.295 72.735 612.885 72.735" stroke="#D9D9D9" stroke-width="0.4875" stroke-linecap="butt" stroke-linejoin="round" stroke-miterlimit="10" stroke-opacity="1" fill="none" fill-rule="nonzero"/><path d="M84.045 284.115 88.725 284.115 88.725 291.135 84.045 291.135ZM117.975 284.115 122.655 284.115 122.655 291.135 117.975 291.135ZM163.215 276.705 167.895 276.705 167.895 291.135 163.215 291.135ZM219.765 284.115 224.445 284.115 224.445 291.135 219.765 291.135ZM242.385 276.705 247.065 276.705 247.065 291.135 242.385 291.135ZM253.695 269.295 258.375 269.295 258.375 291.135 253.695 291.135ZM265.005 284.115 269.685 284.115 269.685 291.135 265.005 291.135ZM287.625 269.295 292.305 269.295 292.305 291.135 287.625 291.135ZM298.935 276.705 303.615 276.705 303.615 291.135 298.935 291.135ZM321.945 284.115 326.235 284.115 326.235 291.135 321.945 291.135ZM333.255 276.705 337.545 276.705 337.545 291.135 333.255 291.135ZM344.565 276.705 348.855 276.705 348.855 291.135 344.565 291.135ZM355.875 269.295 360.165 269.295 360.165 291.135 355.875 291.135ZM367.185 254.865 371.475 254.865 371.475 291.135 367.185 291.135ZM378.495 240.435 382.785 240.435 382.785 291.135 378.495 291.135ZM389.805 262.275 394.095 262.275 394.095 291.135 389.805 291.135ZM401.115 247.455 405.405 247.455 405.405 291.135 401.115 291.135ZM412.425 254.865 416.715 254.865 416.715 291.135 412.425 291.135ZM423.735 233.025 428.025 233.025 428.025 291.135 423.735 291.135ZM435.045 240.435 439.335 240.435 439.335 291.135 435.045 291.135ZM446.355 240.435 450.645 240.435 450.645 291.135 446.355 291.135ZM457.665 262.275 461.955 262.275 461.955 291.135 457.665 291.135ZM468.975 240.435 473.265 240.435 473.265 291.135 468.975 291.135ZM480.285 254.865 484.965 254.865 484.965 291.135 480.285 291.135ZM491.595 240.435 496.275 240.435 496.275 291.135 491.595 291.135ZM502.905 247.455 507.585 247.455 507.585 291.135 502.905 291.135ZM514.215 284.115 518.895 284.115 518.895 291.135 514.215 291.135ZM525.525 254.865 530.205 254.865 530.205 291.135 525.525 291.135ZM536.835 203.775 541.515 203.775 541.515 291.135 536.835 291.135ZM548.145 247.455 552.825 247.455 552.825 291.135 548.145 291.135ZM559.455 247.455 564.135 247.455 564.135 291.135 559.455 291.135ZM570.765 225.615 575.445 225.615 575.445 291.135 570.765 291.135ZM582.075 262.275 586.755 262.275 586.755 291.135 582.075 291.135ZM593.385 240.435 598.065 240.435 598.065 291.135 593.385 291.135ZM604.695 254.865 609.375 254.865 609.375 291.135 604.695 291.135Z" stroke="#104862" stroke-width="0.4875" stroke-linecap="butt" stroke-linejoin="round" stroke-miterlimit="10" stroke-opacity="1" fill="#156082" fill-rule="nonzero" fill-opacity="1"/><path d="M72.735 276.705 77.415 276.705 77.415 291.135 72.735 291.135ZM84.045 276.705 88.725 276.705 88.725 284.115 84.045 284.115ZM117.975 276.705 122.655 276.705 122.655 284.115 117.975 284.115ZM140.595 284.115 145.275 284.115 145.275 291.135 140.595 291.135ZM163.215 269.295 167.895 269.295 167.895 276.705 163.215 276.705ZM197.145 284.115 201.825 284.115 201.825 291.135 197.145 291.135ZM208.455 276.705 213.135 276.705 213.135 291.135 208.455 291.135ZM242.385 269.295 247.065 269.295 247.065 276.705 242.385 276.705ZM265.005 276.705 269.685 276.705 269.685 284.115 265.005 284.115ZM276.315 284.115 280.995 284.115 280.995 291.135 276.315 291.135ZM287.625 247.455 292.305 247.455 292.305 269.295 287.625 269.295ZM298.935 254.865 303.615 254.865 303.615 276.705 298.935 276.705ZM333.255 247.455 337.545 247.455 337.545 276.705 333.255 276.705ZM344.565 262.275 348.855 262.275 348.855 276.705 344.565 276.705ZM355.875 233.025 360.165 233.025 360.165 269.295 355.875 269.295ZM367.185 233.025 371.475 233.025 371.475 254.865 367.185 254.865ZM378.495 225.615 382.785 225.615 382.785 240.435 378.495 240.435ZM389.805 254.865 394.095 254.865 394.095 262.275 389.805 262.275ZM401.115 233.025 405.405 233.025 405.405 247.455 401.115 247.455ZM423.735 167.505 428.025 167.505 428.025 233.025 423.735 233.025ZM435.045 203.775 439.335 203.775 439.335 240.435 435.045 240.435ZM446.355 225.615 450.645 225.615 450.645 240.435 446.355 240.435ZM457.665 225.615 461.955 225.615 461.955 262.275 457.665 262.275ZM468.975 174.525 473.265 174.525 473.265 240.435 468.975 240.435ZM480.285 225.615 484.965 225.615 484.965 254.865 480.285 254.865ZM491.595 211.185 496.275 211.185 496.275 240.435 491.595 240.435ZM502.905 225.615 507.585 225.615 507.585 247.455 502.905 247.455ZM514.215 254.865 518.895 254.865 518.895 284.115 514.215 284.115ZM525.525 233.025 530.205 233.025 530.205 254.865 525.525 254.865ZM536.835 196.365 541.515 196.365 541.515 203.775 536.835 203.775ZM548.145 196.365 552.825 196.365 552.825 247.455 548.145 247.455ZM559.455 181.935 564.135 181.935 564.135 247.455 559.455 247.455ZM570.765 181.935 575.445 181.935 575.445 225.615 570.765 225.615ZM582.075 240.435 586.755 240.435 586.755 262.275 582.075 262.275ZM593.385 189.345 598.065 189.345 598.065 240.435 593.385 240.435ZM604.695 181.935 609.375 181.935 609.375 254.865 604.695 254.865Z" stroke="#C04F15" stroke-width="0.4875" stroke-linecap="butt" stroke-linejoin="round" stroke-miterlimit="10" stroke-opacity="1" fill="#E97132" fill-rule="nonzero" fill-opacity="1"/><path d="M35.295 291.135 612.885 291.135" stroke="#D9D9D9" stroke-width="0.4875" stroke-linecap="butt" stroke-linejoin="round" stroke-miterlimit="10" stroke-opacity="1" fill="none" fill-rule="evenodd"/><path d="M41.145 291.135 52.455 291.135 63.765 291.135 75.075 276.705 86.385 276.705 97.695 291.135 109.005 291.135 120.315 269.295 131.625 291.135 142.935 284.115 154.245 291.135 165.555 269.295 176.865 276.705 188.175 269.295 199.485 284.115 210.795 276.705 222.105 262.275 233.415 276.705 244.725 247.455 256.035 269.295 267.345 262.275 278.655 269.295 289.965 254.865 301.275 247.455 312.585 284.115 323.895 247.455 335.205 218.205 346.515 218.205 357.825 181.935 369.135 225.615 380.445 203.775 391.755 211.185 403.455 167.505 414.765 240.435 426.075 152.685 437.385 145.665 448.695 167.505 460.005 196.365 471.315 145.665 482.625 174.525 493.935 196.365 505.245 189.345 516.555 211.185 527.865 174.525 539.175 167.505 550.485 152.685 561.795 138.255 573.105 94.575 584.415 160.095 595.725 145.665 607.035 145.665" stroke="#000000" stroke-width="0.975" stroke-linecap="round" stroke-linejoin="round" stroke-miterlimit="10" stroke-opacity="1" fill="none" fill-rule="nonzero"/><path d="M86.19 285.48 97.5 285.48 108.81 285.48 120.12 281.19 131.43 283.92 142.74 285.48 154.05 285.48 165.36 281.19 176.67 282.75 187.98 278.07 199.68 278.07 210.99 275.34 222.3 273.78 233.61 273.78 244.92 269.49 256.23 266.37 267.54 263.64 278.85 265.2 290.16 260.52 301.47 260.52 312.78 263.64 324.09 260.52 335.4 250.38 346.71 243.36 358.02 230.1 369.33 218.4 380.64 209.82 391.95 208.26 403.26 198.12 414.57 209.82 425.88 195 437.19 183.3 448.5 174.72 459.81 180.57 471.12 161.46 482.43 165.75 493.74 176.28 505.05 180.57 516.36 183.3 527.67 189.15 538.98 187.59 550.29 179.01 561.6 168.87 572.91 145.47 584.22 142.74 595.53 138.06 607.23 136.89" stroke="#C00000" stroke-width="2.4375" stroke-linecap="round" stroke-linejoin="round" stroke-miterlimit="10" stroke-opacity="1" fill="none" fill-rule="nonzero"/><text fill="#595959" fill-opacity="1" font-family="Aptos,Aptos_MSFontService,sans-serif" font-style="normal" font-variant="normal" font-weight="700" font-stretch="normal" font-size="27" text-anchor="start" direction="ltr" writing-mode="lr-tb" unicode-bidi="normal" text-decoration="none" transform="matrix(0.39 0 0 0.39 20.1793 294)">0</text><text fill="#595959" fill-opacity="1" font-family="Aptos,Aptos_MSFontService,sans-serif" font-style="normal" font-variant="normal" font-weight="700" font-stretch="normal" font-size="27" text-anchor="start" direction="ltr" writing-mode="lr-tb" unicode-bidi="normal" text-decoration="none" transform="matrix(0.39 0 0 0.39 20.1793 258)">5</text><text fill="#595959" fill-opacity="1" font-family="Aptos,Aptos_MSFontService,sans-serif" font-style="normal" font-variant="normal" font-weight="700" font-stretch="normal" font-size="27" text-anchor="start" direction="ltr" writing-mode="lr-tb" unicode-bidi="normal" text-decoration="none" transform="matrix(0.39 0 0 0.39 14.625 221)">10</text><text fill="#595959" fill-opacity="1" font-family="Aptos,Aptos_MSFontService,sans-serif" font-style="normal" font-variant="normal" font-weight="700" font-stretch="normal" font-size="27" text-anchor="start" direction="ltr" writing-mode="lr-tb" unicode-bidi="normal" text-decoration="none" transform="matrix(0.39 0 0 0.39 14.625 185)">15</text><text fill="#595959" fill-opacity="1" font-family="Aptos,Aptos_MSFontService,sans-serif" font-style="normal" font-variant="normal" font-weight="700" font-stretch="normal" font-size="27" text-anchor="start" direction="ltr" writing-mode="lr-tb" unicode-bidi="normal" text-decoration="none" transform="matrix(0.39 0 0 0.39 14.625 148)">20</text><text fill="#595959" fill-opacity="1" font-family="Aptos,Aptos_MSFontService,sans-serif" font-style="normal" font-variant="normal" font-weight="700" font-stretch="normal" font-size="27" text-anchor="start" direction="ltr" writing-mode="lr-tb" unicode-bidi="normal" text-decoration="none" transform="matrix(0.39 0 0 0.39 14.625 112)">25</text><text fill="#595959" fill-opacity="1" font-family="Aptos,Aptos_MSFontService,sans-serif" font-style="normal" font-variant="normal" font-weight="700" font-stretch="normal" font-size="27" text-anchor="start" direction="ltr" writing-mode="lr-tb" unicode-bidi="normal" text-decoration="none" transform="matrix(0.39 0 0 0.39 14.625 75)">30</text><text fill="#595959" fill-opacity="1" font-family="Aptos,Aptos_MSFontService,sans-serif" font-style="normal" font-variant="normal" font-weight="700" font-stretch="normal" font-size="30" text-anchor="start" direction="ltr" writing-mode="lr-tb" unicode-bidi="normal" text-decoration="none" transform="matrix(0.275772 -0.275772 0.275772 0.275772 25.994 324)">1800</text><text fill="#595959" fill-opacity="1" font-family="Aptos,Aptos_MSFontService,sans-serif" font-style="normal" font-variant="normal" font-weight="700" font-stretch="normal" font-size="30" text-anchor="start" direction="ltr" writing-mode="lr-tb" unicode-bidi="normal" text-decoration="none" transform="matrix(0.275772 -0.275772 0.275772 0.275772 48.6357 324)">1802</text><text fill="#595959" fill-opacity="1" font-family="Aptos,Aptos_MSFontService,sans-serif" font-style="normal" font-variant="normal" font-weight="700" font-stretch="normal" font-size="30" text-anchor="start" direction="ltr" writing-mode="lr-tb" unicode-bidi="normal" text-decoration="none" transform="matrix(0.275772 -0.275772 0.275772 0.275772 71.2776 324)">1804</text><text fill="#595959" fill-opacity="1" font-family="Aptos,Aptos_MSFontService,sans-serif" font-style="normal" font-variant="normal" font-weight="700" font-stretch="normal" font-size="30" text-anchor="start" direction="ltr" writing-mode="lr-tb" unicode-bidi="normal" text-decoration="none" transform="matrix(0.275772 -0.275772 0.275772 0.275772 93.9194 324)">1806</text><text fill="#595959" fill-opacity="1" font-family="Aptos,Aptos_MSFontService,sans-serif" font-style="normal" font-variant="normal" font-weight="700" font-stretch="normal" font-size="30" text-anchor="start" direction="ltr" writing-mode="lr-tb" unicode-bidi="normal" text-decoration="none" transform="matrix(0.275772 -0.275772 0.275772 0.275772 116.561 324)">1808</text><text fill="#595959" fill-opacity="1" font-family="Aptos,Aptos_MSFontService,sans-serif" font-style="normal" font-variant="normal" font-weight="700" font-stretch="normal" font-size="30" text-anchor="start" direction="ltr" writing-mode="lr-tb" unicode-bidi="normal" text-decoration="none" transform="matrix(0.275772 -0.275772 0.275772 0.275772 139.203 324)">1810</text><text fill="#595959" fill-opacity="1" font-family="Aptos,Aptos_MSFontService,sans-serif" font-style="normal" font-variant="normal" font-weight="700" font-stretch="normal" font-size="30" text-anchor="start" direction="ltr" writing-mode="lr-tb" unicode-bidi="normal" text-decoration="none" transform="matrix(0.275772 -0.275772 0.275772 0.275772 161.845 324)">1812</text><text fill="#595959" fill-opacity="1" font-family="Aptos,Aptos_MSFontService,sans-serif" font-style="normal" font-variant="normal" font-weight="700" font-stretch="normal" font-size="30" text-anchor="start" direction="ltr" writing-mode="lr-tb" unicode-bidi="normal" text-decoration="none" transform="matrix(0.275772 -0.275772 0.275772 0.275772 184.487 324)">1814</text><text fill="#595959" fill-opacity="1" font-family="Aptos,Aptos_MSFontService,sans-serif" font-style="normal" font-variant="normal" font-weight="700" font-stretch="normal" font-size="30" text-anchor="start" direction="ltr" writing-mode="lr-tb" unicode-bidi="normal" text-decoration="none" transform="matrix(0.275772 -0.275772 0.275772 0.275772 207.129 324)">1816</text><text fill="#595959" fill-opacity="1" font-family="Aptos,Aptos_MSFontService,sans-serif" font-style="normal" font-variant="normal" font-weight="700" font-stretch="normal" font-size="30" text-anchor="start" direction="ltr" writing-mode="lr-tb" unicode-bidi="normal" text-decoration="none" transform="matrix(0.275772 -0.275772 0.275772 0.275772 229.77 324)">1818</text><text fill="#595959" fill-opacity="1" font-family="Aptos,Aptos_MSFontService,sans-serif" font-style="normal" font-variant="normal" font-weight="700" font-stretch="normal" font-size="30" text-anchor="start" direction="ltr" writing-mode="lr-tb" unicode-bidi="normal" text-decoration="none" transform="matrix(0.275772 -0.275772 0.275772 0.275772 252.412 324)">1820</text><text fill="#595959" fill-opacity="1" font-family="Aptos,Aptos_MSFontService,sans-serif" font-style="normal" font-variant="normal" font-weight="700" font-stretch="normal" font-size="30" text-anchor="start" direction="ltr" writing-mode="lr-tb" unicode-bidi="normal" text-decoration="none" transform="matrix(0.275772 -0.275772 0.275772 0.275772 275.054 324)">1822</text><text fill="#595959" fill-opacity="1" font-family="Aptos,Aptos_MSFontService,sans-serif" font-style="normal" font-variant="normal" font-weight="700" font-stretch="normal" font-size="30" text-anchor="start" direction="ltr" writing-mode="lr-tb" unicode-bidi="normal" text-decoration="none" transform="matrix(0.275772 -0.275772 0.275772 0.275772 297.696 324)">1824</text><text fill="#595959" fill-opacity="1" font-family="Aptos,Aptos_MSFontService,sans-serif" font-style="normal" font-variant="normal" font-weight="700" font-stretch="normal" font-size="30" text-anchor="start" direction="ltr" writing-mode="lr-tb" unicode-bidi="normal" text-decoration="none" transform="matrix(0.275772 -0.275772 0.275772 0.275772 320.337 324)">1826</text><text fill="#595959" fill-opacity="1" font-family="Aptos,Aptos_MSFontService,sans-serif" font-style="normal" font-variant="normal" font-weight="700" font-stretch="normal" font-size="30" text-anchor="start" direction="ltr" writing-mode="lr-tb" unicode-bidi="normal" text-decoration="none" transform="matrix(0.275772 -0.275772 0.275772 0.275772 342.979 324)">1828</text><text fill="#595959" fill-opacity="1" font-family="Aptos,Aptos_MSFontService,sans-serif" font-style="normal" font-variant="normal" font-weight="700" font-stretch="normal" font-size="30" text-anchor="start" direction="ltr" writing-mode="lr-tb" unicode-bidi="normal" text-decoration="none" transform="matrix(0.275772 -0.275772 0.275772 0.275772 365.621 324)">1830</text><text fill="#595959" fill-opacity="1" font-family="Aptos,Aptos_MSFontService,sans-serif" font-style="normal" font-variant="normal" font-weight="700" font-stretch="normal" font-size="30" text-anchor="start" direction="ltr" writing-mode="lr-tb" unicode-bidi="normal" text-decoration="none" transform="matrix(0.275772 -0.275772 0.275772 0.275772 388.263 324)">1832</text><text fill="#595959" fill-opacity="1" font-family="Aptos,Aptos_MSFontService,sans-serif" font-style="normal" font-variant="normal" font-weight="700" font-stretch="normal" font-size="30" text-anchor="start" direction="ltr" writing-mode="lr-tb" unicode-bidi="normal" text-decoration="none" transform="matrix(0.275772 -0.275772 0.275772 0.275772 410.904 324)">1834</text><text fill="#595959" fill-opacity="1" font-family="Aptos,Aptos_MSFontService,sans-serif" font-style="normal" font-variant="normal" font-weight="700" font-stretch="normal" font-size="30" text-anchor="start" direction="ltr" writing-mode="lr-tb" unicode-bidi="normal" text-decoration="none" transform="matrix(0.275772 -0.275772 0.275772 0.275772 433.547 324)">1836</text><text fill="#595959" fill-opacity="1" font-family="Aptos,Aptos_MSFontService,sans-serif" font-style="normal" font-variant="normal" font-weight="700" font-stretch="normal" font-size="30" text-anchor="start" direction="ltr" writing-mode="lr-tb" unicode-bidi="normal" text-decoration="none" transform="matrix(0.275772 -0.275772 0.275772 0.275772 456.187 324)">1838</text><text fill="#595959" fill-opacity="1" font-family="Aptos,Aptos_MSFontService,sans-serif" font-style="normal" font-variant="normal" font-weight="700" font-stretch="normal" font-size="30" text-anchor="start" direction="ltr" writing-mode="lr-tb" unicode-bidi="normal" text-decoration="none" transform="matrix(0.275772 -0.275772 0.275772 0.275772 478.83 324)">1840</text><text fill="#595959" fill-opacity="1" font-family="Aptos,Aptos_MSFontService,sans-serif" font-style="normal" font-variant="normal" font-weight="700" font-stretch="normal" font-size="30" text-anchor="start" direction="ltr" writing-mode="lr-tb" unicode-bidi="normal" text-decoration="none" transform="matrix(0.275772 -0.275772 0.275772 0.275772 501.474 324)">1842</text><text fill="#595959" fill-opacity="1" font-family="Aptos,Aptos_MSFontService,sans-serif" font-style="normal" font-variant="normal" font-weight="700" font-stretch="normal" font-size="30" text-anchor="start" direction="ltr" writing-mode="lr-tb" unicode-bidi="normal" text-decoration="none" transform="matrix(0.275772 -0.275772 0.275772 0.275772 524.113 324)">1844</text><text fill="#595959" fill-opacity="1" font-family="Aptos,Aptos_MSFontService,sans-serif" font-style="normal" font-variant="normal" font-weight="700" font-stretch="normal" font-size="30" text-anchor="start" direction="ltr" writing-mode="lr-tb" unicode-bidi="normal" text-decoration="none" transform="matrix(0.275772 -0.275772 0.275772 0.275772 546.757 324)">1846</text><text fill="#595959" fill-opacity="1" font-family="Aptos,Aptos_MSFontService,sans-serif" font-style="normal" font-variant="normal" font-weight="700" font-stretch="normal" font-size="30" text-anchor="start" direction="ltr" writing-mode="lr-tb" unicode-bidi="normal" text-decoration="none" transform="matrix(0.275772 -0.275772 0.275772 0.275772 569.396 324)">1848</text><text fill="#595959" fill-opacity="1" font-family="Aptos,Aptos_MSFontService,sans-serif" font-style="normal" font-variant="normal" font-weight="700" font-stretch="normal" font-size="30" text-anchor="start" direction="ltr" writing-mode="lr-tb" unicode-bidi="normal" text-decoration="none" transform="matrix(0.275772 -0.275772 0.275772 0.275772 592.039 324)">1850</text><text fill="#595959" fill-opacity="1" font-family="Aptos,Aptos_MSFontService,sans-serif" font-style="normal" font-variant="normal" font-weight="700" font-stretch="normal" font-size="40" text-anchor="start" direction="ltr" writing-mode="lr-tb" unicode-bidi="normal" text-decoration="none" transform="matrix(0.39 0 0 0.39 105.867 20)">Manslaughter Prosecutions, 1800</text><text fill="#595959" fill-opacity="1" font-family="Aptos,Aptos_MSFontService,sans-serif" font-style="normal" font-variant="normal" font-weight="700" font-stretch="normal" font-size="40" text-anchor="start" direction="ltr" writing-mode="lr-tb" unicode-bidi="normal" text-decoration="none" transform="matrix(0.39 0 0 0.39 341.658 20)">-</text><text fill="#595959" fill-opacity="1" font-family="Aptos,Aptos_MSFontService,sans-serif" font-style="normal" font-variant="normal" font-weight="700" font-stretch="normal" font-size="40" text-anchor="start" direction="ltr" writing-mode="lr-tb" unicode-bidi="normal" text-decoration="none" transform="matrix(0.39 0 0 0.39 345.948 20)">1850, including keywords:</text><text fill="#595959" fill-opacity="1" font-family="Aptos,Aptos_MSFontService,sans-serif" font-style="normal" font-variant="normal" font-weight="700" font-stretch="normal" font-size="40" text-anchor="start" direction="ltr" writing-mode="lr-tb" unicode-bidi="normal" text-decoration="none" transform="matrix(0.39 0 0 0.39 144.461 39)">'Accident' and 'Fight' (Counting by 'Trial'). Source:</text><text fill="#595959" fill-opacity="1" font-family="Aptos,Aptos_MSFontService,sans-serif" font-style="normal" font-variant="normal" font-weight="700" font-stretch="normal" font-size="40" text-anchor="start" direction="ltr" writing-mode="lr-tb" unicode-bidi="normal" text-decoration="none" transform="matrix(0.39 0 0 0.39 227.134 58)">www.oldbaileyonline.org.</text><path d="M71.955 335.985 84.435 335.985 84.435 341.835 71.955 341.835Z" stroke="#C04F15" stroke-width="0.4875" stroke-linecap="butt" stroke-linejoin="round" stroke-miterlimit="10" stroke-opacity="1" fill="#E97132" fill-rule="nonzero" fill-opacity="1"/><text fill="#595959" fill-opacity="1" font-family="Aptos,Aptos_MSFontService,sans-serif" font-style="normal" font-variant="normal" font-weight="700" font-stretch="normal" font-size="27" text-anchor="start" direction="ltr" writing-mode="lr-tb" unicode-bidi="normal" text-decoration="none" transform="matrix(0.39 0 0 0.39 85.6432 342)">Fight*</text><path d="M133.185 335.985 145.665 335.985 145.665 341.835 133.185 341.835Z" stroke="#104862" stroke-width="0.4875" stroke-linecap="butt" stroke-linejoin="round" stroke-miterlimit="10" stroke-opacity="1" fill="#156082" fill-rule="nonzero" fill-opacity="1"/><text fill="#595959" fill-opacity="1" font-family="Aptos,Aptos_MSFontService,sans-serif" font-style="normal" font-variant="normal" font-weight="700" font-stretch="normal" font-size="27" text-anchor="start" direction="ltr" writing-mode="lr-tb" unicode-bidi="normal" text-decoration="none" transform="matrix(0.39 0 0 0.39 147.076 342)">Accident~2</text><path d="M219.765 338.715 232.245 338.715" stroke="#000000" stroke-width="0.975" stroke-linecap="round" stroke-linejoin="round" stroke-miterlimit="10" stroke-opacity="1" fill="none" fill-rule="evenodd"/><text fill="#595959" fill-opacity="1" font-family="Aptos,Aptos_MSFontService,sans-serif" font-style="normal" font-variant="normal" font-weight="700" font-stretch="normal" font-size="27" text-anchor="start" direction="ltr" writing-mode="lr-tb" unicode-bidi="normal" text-decoration="none" transform="matrix(0.39 0 0 0.39 233.706 342)">All Manslaughter Trials</text><path d="M361.14 338.91 373.62 338.91" stroke="#C00000" stroke-width="2.4375" stroke-linecap="round" stroke-linejoin="round" stroke-miterlimit="10" stroke-opacity="1" fill="none" fill-rule="evenodd"/><text fill="#595959" fill-opacity="1" font-family="Aptos,Aptos_MSFontService,sans-serif" font-style="normal" font-variant="normal" font-weight="700" font-stretch="normal" font-size="27" text-anchor="start" direction="ltr" writing-mode="lr-tb" unicode-bidi="normal" text-decoration="none" transform="matrix(0.39 0 0 0.39 375.056 342)">5 per. Mov. Avg. (All Manslaughter Trials)</text></g></g></g></g></g></svg>