<svg width="653" height="264" viewBox="0 0 653 264" fill="none" xmlns="http://www.w3.org/2000/svg">
<rect width="653" height="264" fill="white"/>
<circle cx="133" cy="117" r="47" fill="#FFCE00" stroke="#B29101" stroke-width="6"/>
<path d="M118.518 121V112.636H121.134C122.97 112.636 123.954 113.464 123.954 115.024C123.954 116.608 122.958 117.472 121.134 117.472H119.79V121H118.518ZM119.79 116.284H121.002C122.142 116.284 122.658 115.888 122.658 115.048C122.658 114.196 122.154 113.824 121.002 113.824H119.79V116.284ZM127.189 114.976C128.725 114.976 129.661 115.84 129.661 117.28V121H128.533L128.437 120.16C128.053 120.76 127.369 121.108 126.529 121.108C125.269 121.108 124.429 120.352 124.429 119.224C124.429 118.552 124.717 118.048 125.245 117.784C125.653 117.58 126.205 117.484 127.045 117.484H128.425V117.28C128.425 116.512 127.957 116.056 127.177 116.056C126.529 116.056 125.953 116.368 125.509 116.98L124.609 116.224C125.293 115.384 126.133 114.976 127.189 114.976ZM126.757 120.064C127.717 120.064 128.425 119.392 128.425 118.456V118.432H127.189C126.505 118.432 126.157 118.492 125.929 118.672C125.749 118.792 125.665 118.996 125.665 119.248C125.665 119.752 126.085 120.064 126.757 120.064ZM134.224 114.976C134.608 114.976 134.956 115.06 135.316 115.276L134.716 116.356C134.488 116.224 134.26 116.152 133.984 116.152C133.096 116.152 132.58 116.74 132.58 117.916V121H131.344V115.084H132.592V116.056C132.892 115.312 133.576 114.976 134.224 114.976ZM136.171 113.932V112.636H137.491V113.932H136.171ZM136.219 121V115.084H137.455V121H136.219ZM141.497 120.16C142.685 120.328 144.185 120.472 144.185 121.84C144.185 123.04 143.081 123.556 141.521 123.556C139.793 123.556 138.797 122.908 138.797 121.708C138.797 121.564 138.809 121.504 138.821 121.444L139.709 120.82C139.277 120.592 138.977 120.232 138.977 119.62C138.977 119.116 139.181 118.744 139.565 118.456C139.253 118.084 139.073 117.616 139.073 117.1C139.073 115.852 140.129 114.976 141.437 114.976C141.965 114.976 142.457 115.12 142.853 115.384L143.729 114.628L144.377 115.42L143.537 116.104C143.717 116.416 143.813 116.776 143.813 117.172C143.813 118.456 142.757 119.284 141.473 119.284C141.041 119.284 140.657 119.188 140.309 119.032C140.153 119.128 140.069 119.26 140.069 119.44C140.069 119.92 140.717 120.052 141.497 120.16ZM141.461 116.008C140.765 116.008 140.297 116.464 140.297 117.136C140.297 117.772 140.705 118.264 141.449 118.264C142.193 118.264 142.577 117.784 142.577 117.136C142.577 116.452 142.145 116.008 141.461 116.008ZM141.569 122.608C142.325 122.608 142.949 122.416 142.949 121.948C142.949 121.408 142.133 121.336 141.233 121.204C141.041 121.18 140.837 121.144 140.633 121.108L140.033 121.696C140.021 121.744 140.021 121.78 140.021 121.804C140.021 122.416 140.789 122.608 141.569 122.608ZM145.44 113.932V112.636H146.76V113.932H145.44ZM145.488 121V115.084H146.724V121H145.488Z" fill="black"/>
<path d="M365.887 200.866C363.99 203.613 361.517 205.915 358.641 207.611L340.447 218.336C327.344 226.06 310.486 219.167 306.55 204.475L270.093 68.3985C266.868 56.3604 273.817 43.9437 285.764 40.3972L294.169 37.9025C301.285 35.79 308.983 37.2421 314.841 41.8017L395.835 104.846C397.278 105.969 398.582 107.26 399.719 108.692L403.646 113.637C408.542 119.802 409.944 128.042 407.364 135.479L404.079 144.948C403.368 146.997 402.371 148.935 401.118 150.704L377.507 184.037L365.887 200.866Z" fill="#FFF4BE"/>
<path d="M354.136 113.971C362.288 100.185 380.072 95.6168 393.859 103.769L395.326 104.636C409.188 112.833 413.717 130.754 405.414 144.552L400.007 153.537L376.507 186.537L363.177 204.102C361.736 206.001 360.535 208.069 359.6 210.262L357.657 214.821C355.957 218.808 352.776 221.981 348.785 223.669C344.466 225.496 339.579 225.427 335.314 223.479L328.471 220.353C312.804 213.197 306.791 194.042 315.558 179.215L354.136 113.971Z" fill="#FFE98F"/>
<line x1="294.414" y1="59.8588" x2="334.414" y2="201.859" stroke="#D9CD99" stroke-width="5"/>
<line x1="381.101" y1="131.903" x2="334.101" y2="203.903" stroke="#D9CD99" stroke-width="5"/>
<circle cx="296.007" cy="60.5367" r="25" fill="white" stroke="#B29101" stroke-width="6"/>
<path d="M281.525 65.5367V57.1727H284.141C285.977 57.1727 286.961 58.0007 286.961 59.5607C286.961 61.1447 285.965 62.0087 284.141 62.0087H282.797V65.5367H281.525ZM282.797 60.8207H284.009C285.149 60.8207 285.665 60.4247 285.665 59.5847C285.665 58.7327 285.161 58.3607 284.009 58.3607H282.797V60.8207ZM290.196 59.5127C291.732 59.5127 292.668 60.3767 292.668 61.8167V65.5367H291.54L291.444 64.6967C291.06 65.2967 290.376 65.6447 289.536 65.6447C288.276 65.6447 287.436 64.8887 287.436 63.7607C287.436 63.0887 287.724 62.5847 288.252 62.3207C288.66 62.1167 289.212 62.0207 290.052 62.0207H291.432V61.8167C291.432 61.0487 290.964 60.5927 290.184 60.5927C289.536 60.5927 288.96 60.9047 288.516 61.5167L287.616 60.7607C288.3 59.9207 289.14 59.5127 290.196 59.5127ZM289.764 64.6007C290.724 64.6007 291.432 63.9287 291.432 62.9927V62.9687H290.196C289.512 62.9687 289.164 63.0287 288.936 63.2087C288.756 63.3287 288.672 63.5327 288.672 63.7847C288.672 64.2887 289.092 64.6007 289.764 64.6007ZM297.231 59.5127C297.615 59.5127 297.963 59.5967 298.323 59.8127L297.723 60.8927C297.495 60.7607 297.267 60.6887 296.991 60.6887C296.103 60.6887 295.587 61.2767 295.587 62.4527V65.5367H294.351V59.6207H295.599V60.5927C295.899 59.8487 296.583 59.5127 297.231 59.5127ZM299.178 58.4687V57.1727H300.498V58.4687H299.178ZM299.226 65.5367V59.6207H300.462V65.5367H299.226ZM304.504 64.6967C305.692 64.8647 307.192 65.0087 307.192 66.3767C307.192 67.5767 306.088 68.0927 304.528 68.0927C302.8 68.0927 301.804 67.4447 301.804 66.2447C301.804 66.1007 301.816 66.0407 301.828 65.9807L302.716 65.3567C302.284 65.1287 301.984 64.7687 301.984 64.1567C301.984 63.6527 302.188 63.2807 302.572 62.9927C302.26 62.6207 302.08 62.1527 302.08 61.6367C302.08 60.3887 303.136 59.5127 304.444 59.5127C304.972 59.5127 305.464 59.6567 305.86 59.9207L306.736 59.1647L307.384 59.9567L306.544 60.6407C306.724 60.9527 306.82 61.3127 306.82 61.7087C306.82 62.9927 305.764 63.8207 304.48 63.8207C304.048 63.8207 303.664 63.7247 303.316 63.5687C303.16 63.6647 303.076 63.7967 303.076 63.9767C303.076 64.4567 303.724 64.5887 304.504 64.6967ZM304.468 60.5447C303.772 60.5447 303.304 61.0007 303.304 61.6727C303.304 62.3087 303.712 62.8007 304.456 62.8007C305.2 62.8007 305.584 62.3207 305.584 61.6727C305.584 60.9887 305.152 60.5447 304.468 60.5447ZM304.576 67.1447C305.332 67.1447 305.956 66.9527 305.956 66.4847C305.956 65.9447 305.14 65.8727 304.24 65.7407C304.048 65.7167 303.844 65.6807 303.64 65.6447L303.04 66.2327C303.028 66.2807 303.028 66.3167 303.028 66.3407C303.028 66.9527 303.796 67.1447 304.576 67.1447ZM308.448 58.4687V57.1727H309.768V58.4687H308.448ZM308.496 65.5367V59.6207H309.732V65.5367H308.496Z" fill="black"/>
<circle cx="379.007" cy="130.537" r="28" fill="#FF6C39"/>
<path d="M358.985 128.513C359.369 128.513 359.717 128.597 360.077 128.813L359.477 129.893C359.249 129.761 359.021 129.689 358.745 129.689C357.857 129.689 357.341 130.277 357.341 131.453V134.537H356.105V128.621H357.353V129.593C357.653 128.849 358.337 128.513 358.985 128.513ZM365.525 131.429C365.525 131.609 365.513 131.789 365.489 131.969H361.337C361.385 132.917 361.949 133.529 362.957 133.529C363.533 133.529 364.025 133.361 364.469 132.857L365.333 133.601C364.661 134.333 363.917 134.645 362.945 134.645C360.989 134.645 360.101 133.229 360.101 131.609C360.101 130.025 360.965 128.513 362.849 128.513C364.685 128.513 365.525 129.881 365.525 131.429ZM361.337 130.973H364.337V130.949C364.313 130.109 363.725 129.545 362.849 129.545C361.901 129.545 361.421 130.241 361.337 130.973ZM369.791 133.469L369.803 134.477C369.455 134.585 369.107 134.645 368.783 134.645C367.847 134.645 367.103 134.153 367.103 132.965V129.617H366.131V128.621H367.103V127.349L368.339 126.425V128.621H369.791V129.617H368.339V132.857C368.339 133.361 368.615 133.601 369.083 133.601C369.287 133.601 369.527 133.553 369.791 133.469ZM374.056 133.469L374.068 134.477C373.72 134.585 373.372 134.645 373.048 134.645C372.112 134.645 371.368 134.153 371.368 132.965V129.617H370.396V128.621H371.368V127.349L372.604 126.425V128.621H374.056V129.617H372.604V132.857C372.604 133.361 372.88 133.601 373.348 133.601C373.552 133.601 373.792 133.553 374.056 133.469ZM375.381 127.469V126.173H376.701V127.469H375.381ZM375.429 134.537V128.621H376.665V134.537H375.429ZM379.759 134.645C378.991 134.645 378.451 134.177 378.451 133.169V126.173H379.687V133.085C379.687 133.397 379.843 133.553 380.155 133.553C380.299 133.553 380.467 133.529 380.647 133.469V134.477C380.347 134.585 380.035 134.645 379.759 134.645ZM384.001 128.513C385.537 128.513 386.473 129.377 386.473 130.817V134.537H385.345L385.249 133.697C384.865 134.297 384.181 134.645 383.341 134.645C382.081 134.645 381.241 133.889 381.241 132.761C381.241 132.089 381.529 131.585 382.057 131.321C382.465 131.117 383.017 131.021 383.857 131.021H385.237V130.817C385.237 130.049 384.769 129.593 383.989 129.593C383.341 129.593 382.765 129.905 382.321 130.517L381.421 129.761C382.105 128.921 382.945 128.513 384.001 128.513ZM383.569 133.601C384.529 133.601 385.237 132.929 385.237 131.993V131.969H384.001C383.317 131.969 382.969 132.029 382.741 132.209C382.561 132.329 382.477 132.533 382.477 132.785C382.477 133.289 382.897 133.601 383.569 133.601ZM391.036 128.513C391.42 128.513 391.768 128.597 392.128 128.813L391.528 129.893C391.3 129.761 391.072 129.689 390.796 129.689C389.908 129.689 389.392 130.277 389.392 131.453V134.537H388.156V128.621H389.404V129.593C389.704 128.849 390.388 128.513 391.036 128.513ZM392.983 127.469V126.173H394.303V127.469H392.983ZM393.031 134.537V128.621H394.267V134.537H393.031ZM398.513 134.645C396.725 134.645 395.585 133.265 395.585 131.573C395.585 129.869 396.725 128.513 398.513 128.513C400.289 128.513 401.429 129.869 401.429 131.573C401.429 133.265 400.289 134.645 398.513 134.645ZM398.513 133.565C399.665 133.565 400.193 132.653 400.193 131.573C400.193 130.481 399.653 129.593 398.513 129.593C397.361 129.593 396.821 130.481 396.821 131.573C396.821 132.665 397.361 133.565 398.513 133.565Z" fill="black"/>
<circle cx="335.007" cy="202.537" r="25" fill="white" stroke="#B29101" stroke-width="6"/>
<path d="M288.755 207.693C287.159 207.693 286.103 206.685 285.983 204.981L287.243 204.837C287.315 205.965 287.831 206.505 288.755 206.505C289.751 206.505 290.231 205.869 290.231 204.537V200.361H287.003V199.173H291.515V204.609C291.515 206.553 290.483 207.693 288.755 207.693ZM295.635 201.513C297.171 201.513 298.107 202.377 298.107 203.817V207.537H296.979L296.883 206.697C296.499 207.297 295.815 207.645 294.975 207.645C293.715 207.645 292.875 206.889 292.875 205.761C292.875 205.089 293.163 204.585 293.691 204.321C294.099 204.117 294.651 204.021 295.491 204.021H296.871V203.817C296.871 203.049 296.403 202.593 295.623 202.593C294.975 202.593 294.399 202.905 293.955 203.517L293.055 202.761C293.739 201.921 294.579 201.513 295.635 201.513ZM295.203 206.601C296.163 206.601 296.871 205.929 296.871 204.993V204.969H295.635C294.951 204.969 294.603 205.029 294.375 205.209C294.195 205.329 294.111 205.533 294.111 205.785C294.111 206.289 294.531 206.601 295.203 206.601ZM302.671 201.513C303.055 201.513 303.403 201.597 303.763 201.813L303.163 202.893C302.935 202.761 302.707 202.689 302.431 202.689C301.543 202.689 301.027 203.277 301.027 204.453V207.537H299.791V201.621H301.039V202.593C301.339 201.849 302.023 201.513 302.671 201.513ZM308.143 199.173H309.379V207.537H308.143V206.877C307.735 207.405 307.063 207.645 306.355 207.645C304.711 207.645 303.823 206.349 303.823 204.573C303.823 202.665 304.843 201.501 306.355 201.501C307.087 201.501 307.771 201.801 308.143 202.281V199.173ZM306.631 206.517C307.747 206.517 308.263 205.689 308.263 204.585C308.263 203.457 307.723 202.617 306.643 202.617C305.599 202.617 305.059 203.373 305.059 204.585C305.059 205.761 305.575 206.517 306.631 206.517ZM311.192 200.469V199.173H312.512V200.469H311.192ZM311.24 207.537V201.621H312.476V207.537H311.24ZM317.406 201.513C318.714 201.513 319.434 202.329 319.434 203.781V207.537H318.198V204.093C318.198 203.397 318.066 202.593 317.046 202.593C315.774 202.593 315.558 203.817 315.558 205.077V207.537H314.322V201.621H315.558V202.353C315.966 201.789 316.638 201.513 317.406 201.513ZM328.053 199.173H329.289V207.537H328.053V206.877C327.645 207.405 326.973 207.645 326.265 207.645C324.621 207.645 323.733 206.349 323.733 204.573C323.733 202.665 324.753 201.501 326.265 201.501C326.997 201.501 327.681 201.801 328.053 202.281V199.173ZM326.541 206.517C327.657 206.517 328.173 205.689 328.173 204.585C328.173 203.457 327.633 202.617 326.553 202.617C325.509 202.617 324.969 203.373 324.969 204.585C324.969 205.761 325.485 206.517 326.541 206.517ZM336.082 204.429C336.082 204.609 336.07 204.789 336.046 204.969H331.894C331.942 205.917 332.506 206.529 333.514 206.529C334.09 206.529 334.582 206.361 335.026 205.857L335.89 206.601C335.218 207.333 334.474 207.645 333.502 207.645C331.546 207.645 330.658 206.229 330.658 204.609C330.658 203.025 331.522 201.513 333.406 201.513C335.242 201.513 336.082 202.881 336.082 204.429ZM331.894 203.973H334.894V203.949C334.87 203.109 334.282 202.545 333.406 202.545C332.458 202.545 331.978 203.241 331.894 203.973ZM339.267 207.645C338.043 207.645 337.095 206.949 336.807 206.025L337.803 205.581C337.983 206.073 338.379 206.601 339.219 206.601C339.927 206.601 340.299 206.217 340.299 205.797C340.299 204.609 337.131 205.377 337.131 203.217C337.131 202.113 338.091 201.513 339.255 201.513C340.251 201.513 341.019 201.957 341.451 202.773L340.491 203.301C340.263 202.881 339.891 202.509 339.207 202.509C338.655 202.509 338.307 202.761 338.307 203.121C338.307 204.189 341.511 203.541 341.511 205.725C341.511 207.045 340.395 207.645 339.267 207.645ZM346.156 207.537V199.173H348.772C350.608 199.173 351.592 200.001 351.592 201.561C351.592 203.145 350.596 204.009 348.772 204.009H347.428V207.537H346.156ZM347.428 202.821H348.64C349.78 202.821 350.296 202.425 350.296 201.585C350.296 200.733 349.792 200.361 348.64 200.361H347.428V202.821ZM354.043 207.645C353.275 207.645 352.735 207.177 352.735 206.169V199.173H353.971V206.085C353.971 206.397 354.127 206.553 354.439 206.553C354.583 206.553 354.751 206.529 354.931 206.469V207.477C354.631 207.585 354.319 207.645 354.043 207.645ZM358.284 201.513C359.82 201.513 360.756 202.377 360.756 203.817V207.537H359.628L359.532 206.697C359.148 207.297 358.464 207.645 357.624 207.645C356.364 207.645 355.524 206.889 355.524 205.761C355.524 205.089 355.812 204.585 356.34 204.321C356.748 204.117 357.3 204.021 358.14 204.021H359.52V203.817C359.52 203.049 359.052 202.593 358.272 202.593C357.624 202.593 357.048 202.905 356.604 203.517L355.704 202.761C356.388 201.921 357.228 201.513 358.284 201.513ZM357.852 206.601C358.812 206.601 359.52 205.929 359.52 204.993V204.969H358.284C357.6 204.969 357.252 205.029 357.024 205.209C356.844 205.329 356.76 205.533 356.76 205.785C356.76 206.289 357.18 206.601 357.852 206.601ZM365.523 201.513C366.831 201.513 367.551 202.329 367.551 203.781V207.537H366.315V204.093C366.315 203.397 366.183 202.593 365.163 202.593C363.891 202.593 363.675 203.817 363.675 205.077V207.537H362.439V201.621H363.675V202.353C364.083 201.789 364.755 201.513 365.523 201.513ZM372.187 206.469L372.199 207.477C371.851 207.585 371.503 207.645 371.179 207.645C370.243 207.645 369.499 207.153 369.499 205.965V202.617H368.527V201.621H369.499V200.349L370.735 199.425V201.621H372.187V202.617H370.735V205.857C370.735 206.361 371.011 206.601 371.479 206.601C371.683 206.601 371.923 206.553 372.187 206.469ZM378.434 204.429C378.434 204.609 378.422 204.789 378.398 204.969H374.246C374.294 205.917 374.858 206.529 375.866 206.529C376.442 206.529 376.934 206.361 377.378 205.857L378.242 206.601C377.57 207.333 376.826 207.645 375.854 207.645C373.898 207.645 373.01 206.229 373.01 204.609C373.01 203.025 373.874 201.513 375.758 201.513C377.594 201.513 378.434 202.881 378.434 204.429ZM374.246 203.973H377.246V203.949C377.222 203.109 376.634 202.545 375.758 202.545C374.81 202.545 374.33 203.241 374.246 203.973ZM381.619 207.645C380.395 207.645 379.447 206.949 379.159 206.025L380.155 205.581C380.335 206.073 380.731 206.601 381.571 206.601C382.279 206.601 382.651 206.217 382.651 205.797C382.651 204.609 379.483 205.377 379.483 203.217C379.483 202.113 380.443 201.513 381.607 201.513C382.603 201.513 383.371 201.957 383.803 202.773L382.843 203.301C382.615 202.881 382.243 202.509 381.559 202.509C381.007 202.509 380.659 202.761 380.659 203.121C380.659 204.189 383.863 203.541 383.863 205.725C383.863 207.045 382.747 207.645 381.619 207.645Z" fill="black"/>
<path d="M266.293 130.283C266.45 130.127 266.45 129.873 266.293 129.717L263.748 127.172C263.592 127.015 263.338 127.015 263.182 127.172C263.026 127.328 263.026 127.581 263.182 127.737L265.445 130L263.182 132.263C263.026 132.419 263.026 132.672 263.182 132.828C263.338 132.985 263.592 132.985 263.748 132.828L266.293 130.283ZM219 130.4H266.011V129.6H219V130.4Z" fill="black"/>
<path d="M288.603 115.102L288.832 114.101H289.506L289.276 115.102H288.603ZM287.255 121L288.378 116.122H289.018L287.899 121H287.255ZM289.618 121L290.741 116.122H291.386L291.19 116.928C291.635 116.337 292.265 116.044 292.895 116.044C294.052 116.044 294.413 116.879 294.188 117.934L293.485 121H292.841L293.52 118.036C293.729 117.143 293.441 116.645 292.66 116.645C291.815 116.645 291.142 117.191 290.922 118.139L290.268 121H289.618ZM296.898 121.073C295.482 121.073 294.936 119.926 295.258 118.51C295.551 117.265 296.527 116.044 297.978 116.044C298.886 116.044 299.501 116.537 299.657 117.411L299.008 117.602C298.925 116.991 298.524 116.635 297.914 116.635C296.85 116.635 296.122 117.602 295.888 118.632C295.658 119.599 295.917 120.487 296.957 120.487C297.611 120.487 298.207 120.087 298.539 119.481L299.081 119.755C298.583 120.604 297.782 121.073 296.898 121.073ZM300.917 121.073C300.204 121.073 300.082 120.634 300.238 119.945L301.591 114.101H302.235L300.912 119.828C300.824 120.204 300.79 120.492 301.259 120.492C301.381 120.492 301.532 120.468 301.684 120.438L301.601 121C301.371 121.044 301.112 121.073 300.917 121.073ZM304.232 121.073C303.075 121.073 302.719 120.238 302.943 119.184L303.646 116.122H304.286L303.607 119.086C303.397 119.975 303.686 120.473 304.467 120.473C305.312 120.473 305.99 119.931 306.215 118.979L306.869 116.122H307.509L306.386 121H305.746L305.941 120.189C305.497 120.785 304.862 121.073 304.232 121.073ZM309.867 121.073C308.534 121.073 307.929 119.921 308.246 118.495C308.563 117.152 309.652 116.044 310.946 116.044C311.732 116.044 312.313 116.498 312.45 117.216L313.183 114.101H313.837L312.245 121H311.645L311.874 119.911C311.4 120.648 310.639 121.073 309.867 121.073ZM310.077 120.487C311.107 120.487 311.957 119.628 312.211 118.495C312.465 117.44 312.035 116.635 311.039 116.635C310.004 116.635 309.135 117.499 308.881 118.617C308.637 119.672 309.071 120.487 310.077 120.487ZM318.593 117.299C318.593 118.539 316.693 118.764 314.77 118.759C314.745 118.92 314.73 119.081 314.73 119.242C314.73 120.028 315.121 120.487 315.99 120.487C316.586 120.487 317.06 120.268 317.558 119.843L317.934 120.287C317.289 120.824 316.679 121.073 315.927 121.073C314.652 121.073 314.081 120.37 314.081 119.242C314.081 117.641 315.224 116.044 316.991 116.044C318.065 116.044 318.593 116.64 318.593 117.299ZM316.967 116.596C315.946 116.596 315.219 117.333 314.906 118.231C315.961 118.227 318.007 118.207 318.007 117.289C318.007 116.884 317.597 116.596 316.967 116.596ZM320.844 121.073C319.511 121.073 318.905 119.921 319.223 118.495C319.54 117.152 320.629 116.044 321.923 116.044C322.709 116.044 323.29 116.498 323.427 117.216L324.159 114.101H324.813L323.222 121H322.621L322.851 119.911C322.377 120.648 321.615 121.073 320.844 121.073ZM321.054 120.487C322.084 120.487 322.934 119.628 323.188 118.495C323.441 117.44 323.012 116.635 322.016 116.635C320.98 116.635 320.111 117.499 319.857 118.617C319.613 119.672 320.048 120.487 321.054 120.487ZM328.866 115.102L329.096 114.101H329.77L329.54 115.102H328.866ZM327.519 121L328.642 116.122H329.281L328.163 121H327.519ZM329.882 121L331.005 116.122H331.649L331.454 116.928C331.898 116.337 332.528 116.044 333.158 116.044C334.315 116.044 334.677 116.879 334.452 117.934L333.749 121H333.104L333.783 118.036C333.993 117.143 333.705 116.645 332.924 116.645C332.079 116.645 331.405 117.191 331.186 118.139L330.531 121H329.882Z" fill="black"/>
<path d="M340.603 162.102L340.832 161.101H341.506L341.276 162.102H340.603ZM339.255 168L340.378 163.122H341.018L339.899 168H339.255ZM341.618 168L342.741 163.122H343.386L343.19 163.928C343.635 163.337 344.265 163.044 344.895 163.044C346.052 163.044 346.413 163.879 346.188 164.934L345.485 168H344.841L345.52 165.036C345.729 164.143 345.441 163.645 344.66 163.645C343.815 163.645 343.142 164.191 342.922 165.139L342.268 168H341.618ZM348.898 168.073C347.482 168.073 346.936 166.926 347.258 165.51C347.551 164.265 348.527 163.044 349.978 163.044C350.886 163.044 351.501 163.537 351.657 164.411L351.008 164.602C350.925 163.991 350.524 163.635 349.914 163.635C348.85 163.635 348.122 164.602 347.888 165.632C347.658 166.599 347.917 167.487 348.957 167.487C349.611 167.487 350.207 167.087 350.539 166.481L351.081 166.755C350.583 167.604 349.782 168.073 348.898 168.073ZM352.917 168.073C352.204 168.073 352.082 167.634 352.238 166.945L353.591 161.101H354.235L352.912 166.828C352.824 167.204 352.79 167.492 353.259 167.492C353.381 167.492 353.532 167.468 353.684 167.438L353.601 168C353.371 168.044 353.112 168.073 352.917 168.073ZM356.232 168.073C355.075 168.073 354.719 167.238 354.943 166.184L355.646 163.122H356.286L355.607 166.086C355.397 166.975 355.686 167.473 356.467 167.473C357.312 167.473 357.99 166.931 358.215 165.979L358.869 163.122H359.509L358.386 168H357.746L357.941 167.189C357.497 167.785 356.862 168.073 356.232 168.073ZM361.867 168.073C360.534 168.073 359.929 166.921 360.246 165.495C360.563 164.152 361.652 163.044 362.946 163.044C363.732 163.044 364.313 163.498 364.45 164.216L365.183 161.101H365.837L364.245 168H363.645L363.874 166.911C363.4 167.648 362.639 168.073 361.867 168.073ZM362.077 167.487C363.107 167.487 363.957 166.628 364.211 165.495C364.465 164.44 364.035 163.635 363.039 163.635C362.004 163.635 361.135 164.499 360.881 165.617C360.637 166.672 361.071 167.487 362.077 167.487ZM370.593 164.299C370.593 165.539 368.693 165.764 366.77 165.759C366.745 165.92 366.73 166.081 366.73 166.242C366.73 167.028 367.121 167.487 367.99 167.487C368.586 167.487 369.06 167.268 369.558 166.843L369.934 167.287C369.289 167.824 368.679 168.073 367.927 168.073C366.652 168.073 366.081 167.37 366.081 166.242C366.081 164.641 367.224 163.044 368.991 163.044C370.065 163.044 370.593 163.64 370.593 164.299ZM368.967 163.596C367.946 163.596 367.219 164.333 366.906 165.231C367.961 165.227 370.007 165.207 370.007 164.289C370.007 163.884 369.597 163.596 368.967 163.596ZM372.844 168.073C371.511 168.073 370.905 166.921 371.223 165.495C371.54 164.152 372.629 163.044 373.923 163.044C374.709 163.044 375.29 163.498 375.427 164.216L376.159 161.101H376.813L375.222 168H374.621L374.851 166.911C374.377 167.648 373.615 168.073 372.844 168.073ZM373.054 167.487C374.084 167.487 374.934 166.628 375.188 165.495C375.441 164.44 375.012 163.635 374.016 163.635C372.98 163.635 372.111 164.499 371.857 165.617C371.613 166.672 372.048 167.487 373.054 167.487ZM380.866 162.102L381.096 161.101H381.77L381.54 162.102H380.866ZM379.519 168L380.642 163.122H381.281L380.163 168H379.519ZM381.882 168L383.005 163.122H383.649L383.454 163.928C383.898 163.337 384.528 163.044 385.158 163.044C386.315 163.044 386.677 163.879 386.452 164.934L385.749 168H385.104L385.783 165.036C385.993 164.143 385.705 163.645 384.924 163.645C384.079 163.645 383.405 164.191 383.186 165.139L382.531 168H381.882Z" fill="black"/>
<path d="M65.6562 184L67.2432 177.101H67.9121L66.3252 184H65.6562ZM68.2734 184L69.3965 179.122H70.041L69.8457 179.928C70.29 179.337 70.9199 179.044 71.5498 179.044C72.707 179.044 73.0684 179.879 72.8438 180.934L72.1406 184H71.4961L72.1748 181.036C72.3848 180.143 72.0967 179.645 71.3154 179.645C70.4707 179.645 69.7969 180.191 69.5771 181.139L68.9229 184H68.2734ZM77.7998 184.073C76.916 184.073 76.5596 183.541 76.7744 182.608L77.4482 179.669H76.6377L76.7646 179.122H77.585L77.9023 177.711L78.6543 177.237L78.2197 179.122H79.582L79.46 179.669H78.0928L77.4238 182.555C77.2676 183.243 77.4629 183.502 77.9609 183.502C78.1953 183.502 78.4395 183.429 78.5762 183.375L78.4834 183.985C78.3223 184.034 78.0537 184.073 77.7998 184.073ZM79.5869 184L81.1787 177.101H81.833L81.1689 179.928C81.6133 179.337 82.2334 179.044 82.8633 179.044C84.0205 179.044 84.3965 179.879 84.167 180.934L83.4639 184H82.8096L83.4883 181.036C83.6934 180.167 83.4932 179.635 82.6533 179.635C81.7695 179.635 81.0908 180.309 80.876 181.241L80.2461 184H79.5869ZM89.6699 180.299C89.6699 181.539 87.7705 181.764 85.8467 181.759C85.8223 181.92 85.8076 182.081 85.8076 182.242C85.8076 183.028 86.1982 183.487 87.0674 183.487C87.6631 183.487 88.1367 183.268 88.6348 182.843L89.0107 183.287C88.3662 183.824 87.7559 184.073 87.0039 184.073C85.7295 184.073 85.1582 183.37 85.1582 182.242C85.1582 180.641 86.3008 179.044 88.0684 179.044C89.1426 179.044 89.6699 179.64 89.6699 180.299ZM88.0439 179.596C87.0234 179.596 86.2959 180.333 85.9834 181.231C87.0381 181.227 89.084 181.207 89.084 180.289C89.084 179.884 88.6738 179.596 88.0439 179.596ZM94.0352 178.102L94.2646 177.101H94.9385L94.709 178.102H94.0352ZM92.6875 184L93.8105 179.122H94.4502L93.332 184H92.6875ZM95.0508 184L96.1738 179.122H96.8184L96.623 179.928C97.0674 179.337 97.6973 179.044 98.3271 179.044C99.4844 179.044 99.8457 179.879 99.6211 180.934L98.918 184H98.2734L98.9521 181.036C99.1621 180.143 98.874 179.645 98.0928 179.645C97.248 179.645 96.5742 180.191 96.3545 181.139L95.7002 184H95.0508ZM102.019 184.073C101.135 184.073 100.778 183.541 100.993 182.608L101.667 179.669H100.856L100.983 179.122H101.804L102.121 177.711L102.873 177.237L102.438 179.122H103.801L103.679 179.669H102.312L101.643 182.555C101.486 183.243 101.682 183.502 102.18 183.502C102.414 183.502 102.658 183.429 102.795 183.375L102.702 183.985C102.541 184.034 102.272 184.073 102.019 184.073ZM108.498 180.299C108.498 181.539 106.599 181.764 104.675 181.759C104.65 181.92 104.636 182.081 104.636 182.242C104.636 183.028 105.026 183.487 105.896 183.487C106.491 183.487 106.965 183.268 107.463 182.843L107.839 183.287C107.194 183.824 106.584 184.073 105.832 184.073C104.558 184.073 103.986 183.37 103.986 182.242C103.986 180.641 105.129 179.044 106.896 179.044C107.971 179.044 108.498 179.64 108.498 180.299ZM106.872 179.596C105.852 179.596 105.124 180.333 104.812 181.231C105.866 181.227 107.912 181.207 107.912 180.289C107.912 179.884 107.502 179.596 106.872 179.596ZM108.957 184L110.08 179.122H110.71L110.48 180.118C110.896 179.366 111.628 179.044 112.199 179.044C112.482 179.044 112.751 179.142 112.932 179.298L112.541 179.801C112.395 179.708 112.214 179.674 112.033 179.674C111.369 179.674 110.461 180.211 110.148 181.534L109.582 184H108.957ZM114.626 184.073C113.293 184.073 112.688 182.921 113.005 181.495C113.322 180.152 114.411 179.044 115.705 179.044C116.491 179.044 117.072 179.498 117.209 180.216L117.468 179.122H118.127L117.004 184H116.403L116.633 182.911C116.159 183.648 115.397 184.073 114.626 184.073ZM114.836 183.487C115.866 183.487 116.716 182.628 116.97 181.495C117.224 180.44 116.794 179.635 115.798 179.635C114.763 179.635 113.894 180.499 113.64 181.617C113.396 182.672 113.83 183.487 114.836 183.487ZM120.534 184.073C119.118 184.073 118.571 182.926 118.894 181.51C119.187 180.265 120.163 179.044 121.613 179.044C122.521 179.044 123.137 179.537 123.293 180.411L122.644 180.602C122.561 179.991 122.16 179.635 121.55 179.635C120.485 179.635 119.758 180.602 119.523 181.632C119.294 182.599 119.553 183.487 120.593 183.487C121.247 183.487 121.843 183.087 122.175 182.481L122.717 182.755C122.219 183.604 121.418 184.073 120.534 184.073ZM125.173 184.073C124.289 184.073 123.933 183.541 124.147 182.608L124.821 179.669H124.011L124.138 179.122H124.958L125.275 177.711L126.027 177.237L125.593 179.122H126.955L126.833 179.669H125.466L124.797 182.555C124.641 183.243 124.836 183.502 125.334 183.502C125.568 183.502 125.812 183.429 125.949 183.375L125.856 183.985C125.695 184.034 125.427 184.073 125.173 184.073ZM128.449 178.102L128.679 177.101H129.353L129.123 178.102H128.449ZM127.102 184L128.225 179.122H128.864L127.746 184H127.102ZM130.764 184L129.885 179.122H130.583L131.208 183.18L133.713 179.122H134.426L131.311 184H130.764ZM138.791 180.299C138.791 181.539 136.892 181.764 134.968 181.759C134.943 181.92 134.929 182.081 134.929 182.242C134.929 183.028 135.319 183.487 136.188 183.487C136.784 183.487 137.258 183.268 137.756 182.843L138.132 183.287C137.487 183.824 136.877 184.073 136.125 184.073C134.851 184.073 134.279 183.37 134.279 182.242C134.279 180.641 135.422 179.044 137.189 179.044C138.264 179.044 138.791 179.64 138.791 180.299ZM137.165 179.596C136.145 179.596 135.417 180.333 135.104 181.231C136.159 181.227 138.205 181.207 138.205 180.289C138.205 179.884 137.795 179.596 137.165 179.596ZM143.107 184L142.229 179.122H142.927L143.552 183.18L146.057 179.122H146.77L143.654 184H143.107ZM151.135 180.299C151.135 181.539 149.235 181.764 147.312 181.759C147.287 181.92 147.272 182.081 147.272 182.242C147.272 183.028 147.663 183.487 148.532 183.487C149.128 183.487 149.602 183.268 150.1 182.843L150.476 183.287C149.831 183.824 149.221 184.073 148.469 184.073C147.194 184.073 146.623 183.37 146.623 182.242C146.623 180.641 147.766 179.044 149.533 179.044C150.607 179.044 151.135 179.64 151.135 180.299ZM149.509 179.596C148.488 179.596 147.761 180.333 147.448 181.231C148.503 181.227 150.549 181.207 150.549 180.289C150.549 179.884 150.139 179.596 149.509 179.596ZM151.594 184L152.717 179.122H153.347L153.117 180.118C153.532 179.366 154.265 179.044 154.836 179.044C155.119 179.044 155.388 179.142 155.568 179.298L155.178 179.801C155.031 179.708 154.851 179.674 154.67 179.674C154.006 179.674 153.098 180.211 152.785 181.534L152.219 184H151.594ZM156.711 184.073C155.725 184.073 155.08 183.521 154.987 182.765L155.544 182.584C155.612 183.131 155.993 183.531 156.735 183.531C157.507 183.531 158.127 183.082 158.127 182.428C158.127 181.314 155.754 181.983 155.754 180.606C155.754 179.679 156.638 179.044 157.712 179.044C158.513 179.044 159.035 179.444 159.23 180.089L158.688 180.309C158.557 179.869 158.239 179.566 157.644 179.566C156.95 179.566 156.389 179.928 156.389 180.475C156.389 181.451 158.771 180.895 158.771 182.345C158.771 183.37 157.834 184.073 156.711 184.073ZM161.096 178.102L161.325 177.101H161.999L161.77 178.102H161.096ZM159.748 184L160.871 179.122H161.511L160.393 184H159.748ZM164.06 184.073C162.653 184.073 161.936 182.931 162.263 181.49C162.58 180.128 163.771 179.044 165.148 179.044C166.555 179.044 167.292 180.182 166.965 181.612C166.643 182.975 165.432 184.073 164.06 184.073ZM164.118 183.512C165.192 183.512 166.062 182.604 166.32 181.49C166.564 180.45 166.135 179.61 165.09 179.61C164.021 179.61 163.166 180.494 162.907 181.612C162.663 182.662 163.078 183.512 164.118 183.512ZM167.717 184L168.84 179.122H169.484L169.289 179.928C169.733 179.337 170.363 179.044 170.993 179.044C172.15 179.044 172.512 179.879 172.287 180.934L171.584 184H170.939L171.618 181.036C171.828 180.143 171.54 179.645 170.759 179.645C169.914 179.645 169.24 180.191 169.021 181.139L168.366 184H167.717ZM177.692 184.073C176.286 184.073 175.568 182.931 175.896 181.49C176.213 180.128 177.404 179.044 178.781 179.044C180.188 179.044 180.925 180.182 180.598 181.612C180.275 182.975 179.064 184.073 177.692 184.073ZM177.751 183.512C178.825 183.512 179.694 182.604 179.953 181.49C180.197 180.45 179.768 179.61 178.723 179.61C177.653 179.61 176.799 180.494 176.54 181.612C176.296 182.662 176.711 183.512 177.751 183.512ZM181.687 184L182.683 179.669H181.667L181.794 179.122H182.81L182.995 178.341C183.2 177.462 183.85 177.027 184.646 177.027C184.924 177.027 185.148 177.105 185.354 177.218L185.046 177.726C184.914 177.638 184.772 177.604 184.641 177.604C184.128 177.604 183.757 177.887 183.625 178.448L183.474 179.122H184.904L184.777 179.669H183.347L182.351 184H181.687ZM188.845 184.073C187.961 184.073 187.604 183.541 187.819 182.608L188.493 179.669H187.683L187.81 179.122H188.63L188.947 177.711L189.699 177.237L189.265 179.122H190.627L190.505 179.669H189.138L188.469 182.555C188.312 183.243 188.508 183.502 189.006 183.502C189.24 183.502 189.484 183.429 189.621 183.375L189.528 183.985C189.367 184.034 189.099 184.073 188.845 184.073ZM190.632 184L192.224 177.101H192.878L192.214 179.928C192.658 179.337 193.278 179.044 193.908 179.044C195.065 179.044 195.441 179.879 195.212 180.934L194.509 184H193.854L194.533 181.036C194.738 180.167 194.538 179.635 193.698 179.635C192.814 179.635 192.136 180.309 191.921 181.241L191.291 184H190.632ZM200.715 180.299C200.715 181.539 198.815 181.764 196.892 181.759C196.867 181.92 196.853 182.081 196.853 182.242C196.853 183.028 197.243 183.487 198.112 183.487C198.708 183.487 199.182 183.268 199.68 182.843L200.056 183.287C199.411 183.824 198.801 184.073 198.049 184.073C196.774 184.073 196.203 183.37 196.203 182.242C196.203 180.641 197.346 179.044 199.113 179.044C200.188 179.044 200.715 179.64 200.715 180.299ZM199.089 179.596C198.068 179.596 197.341 180.333 197.028 181.231C198.083 181.227 200.129 181.207 200.129 180.289C200.129 179.884 199.719 179.596 199.089 179.596ZM59.7871 196L58.9082 191.122H59.6064L60.2314 195.18L62.7363 191.122H63.4492L60.334 196H59.7871ZM64.709 190.102L64.9385 189.101H65.6123L65.3828 190.102H64.709ZM63.3613 196L64.4844 191.122H65.124L64.0059 196H63.3613ZM67.2188 196.073C66.2324 196.073 65.5879 195.521 65.4951 194.765L66.0518 194.584C66.1201 195.131 66.501 195.531 67.2432 195.531C68.0146 195.531 68.6348 195.082 68.6348 194.428C68.6348 193.314 66.2617 193.983 66.2617 192.606C66.2617 191.679 67.1455 191.044 68.2197 191.044C69.0205 191.044 69.543 191.444 69.7383 192.089L69.1963 192.309C69.0645 191.869 68.7471 191.566 68.1514 191.566C67.458 191.566 66.8965 191.928 66.8965 192.475C66.8965 193.451 69.2793 192.895 69.2793 194.345C69.2793 195.37 68.3418 196.073 67.2188 196.073ZM71.7842 196.073C70.627 196.073 70.2705 195.238 70.4951 194.184L71.1982 191.122H71.8379L71.1592 194.086C70.9492 194.975 71.2373 195.473 72.0186 195.473C72.8633 195.473 73.542 194.931 73.7666 193.979L74.4209 191.122H75.0605L73.9375 196H73.2979L73.4932 195.189C73.0488 195.785 72.4141 196.073 71.7842 196.073ZM77.458 196.073C76.125 196.073 75.5195 194.921 75.8369 193.495C76.1543 192.152 77.2432 191.044 78.5371 191.044C79.3232 191.044 79.9043 191.498 80.041 192.216L80.2998 191.122H80.959L79.8359 196H79.2354L79.4648 194.911C78.9912 195.648 78.2295 196.073 77.458 196.073ZM77.668 195.487C78.6982 195.487 79.5479 194.628 79.8018 193.495C80.0557 192.44 79.626 191.635 78.6299 191.635C77.5947 191.635 76.7256 192.499 76.4717 193.617C76.2275 194.672 76.6621 195.487 77.668 195.487ZM82.4434 196.073C81.7305 196.073 81.6084 195.634 81.7646 194.945L83.1172 189.101H83.7617L82.4385 194.828C82.3506 195.204 82.3164 195.492 82.7852 195.492C82.9072 195.492 83.0586 195.468 83.21 195.438L83.127 196C82.8975 196.044 82.6387 196.073 82.4434 196.073ZM85.5684 190.102L85.7979 189.101H86.4717L86.2422 190.102H85.5684ZM84.2207 196L85.3438 191.122H85.9834L84.8652 196H84.2207ZM91.2275 191.122L91.1152 191.64L87.0479 195.448H90.207L90.0801 196H86.0469L86.1445 195.526L90.2998 191.669H87.2041L87.3311 191.122H91.2275ZM93.1709 196.073C91.8379 196.073 91.2324 194.921 91.5498 193.495C91.8672 192.152 92.9561 191.044 94.25 191.044C95.0361 191.044 95.6172 191.498 95.7539 192.216L96.0127 191.122H96.6719L95.5488 196H94.9482L95.1777 194.911C94.7041 195.648 93.9424 196.073 93.1709 196.073ZM93.3809 195.487C94.4111 195.487 95.2607 194.628 95.5146 193.495C95.7686 192.44 95.3389 191.635 94.3428 191.635C93.3076 191.635 92.4385 192.499 92.1846 193.617C91.9404 194.672 92.375 195.487 93.3809 195.487ZM98.7568 196.073C97.873 196.073 97.5166 195.541 97.7314 194.608L98.4053 191.669H97.5947L97.7217 191.122H98.542L98.8594 189.711L99.6113 189.237L99.1768 191.122H100.539L100.417 191.669H99.0498L98.3809 194.555C98.2246 195.243 98.4199 195.502 98.918 195.502C99.1523 195.502 99.3965 195.429 99.5332 195.375L99.4404 195.985C99.2793 196.034 99.0107 196.073 98.7568 196.073ZM102.033 190.102L102.263 189.101H102.937L102.707 190.102H102.033ZM100.686 196L101.809 191.122H102.448L101.33 196H100.686ZM104.997 196.073C103.591 196.073 102.873 194.931 103.2 193.49C103.518 192.128 104.709 191.044 106.086 191.044C107.492 191.044 108.229 192.182 107.902 193.612C107.58 194.975 106.369 196.073 104.997 196.073ZM105.056 195.512C106.13 195.512 106.999 194.604 107.258 193.49C107.502 192.45 107.072 191.61 106.027 191.61C104.958 191.61 104.104 192.494 103.845 193.612C103.601 194.662 104.016 195.512 105.056 195.512ZM108.654 196L109.777 191.122H110.422L110.227 191.928C110.671 191.337 111.301 191.044 111.931 191.044C113.088 191.044 113.449 191.879 113.225 192.934L112.521 196H111.877L112.556 193.036C112.766 192.143 112.478 191.645 111.696 191.645C110.852 191.645 110.178 192.191 109.958 193.139L109.304 196H108.654ZM113.659 197.538L115.329 194.721H116.081L114.118 197.538H113.659ZM119.89 198.09L121.218 195.941L120.256 191.122H120.959L121.726 195.185L124.167 191.122H124.885L120.603 198.09H119.89ZM126.53 196.073C125.124 196.073 124.406 194.931 124.733 193.49C125.051 192.128 126.242 191.044 127.619 191.044C129.025 191.044 129.763 192.182 129.436 193.612C129.113 194.975 127.902 196.073 126.53 196.073ZM126.589 195.512C127.663 195.512 128.532 194.604 128.791 193.49C129.035 192.45 128.605 191.61 127.561 191.61C126.491 191.61 125.637 192.494 125.378 193.612C125.134 194.662 125.549 195.512 126.589 195.512ZM131.726 196.073C130.568 196.073 130.212 195.238 130.437 194.184L131.14 191.122H131.779L131.101 194.086C130.891 194.975 131.179 195.473 131.96 195.473C132.805 195.473 133.483 194.931 133.708 193.979L134.362 191.122H135.002L133.879 196H133.239L133.435 195.189C132.99 195.785 132.355 196.073 131.726 196.073ZM138.161 196L139.753 189.101H140.407L139.743 191.928C140.188 191.337 140.808 191.044 141.438 191.044C142.595 191.044 142.971 191.879 142.741 192.934L142.038 196H141.384L142.062 193.036C142.268 192.167 142.067 191.635 141.228 191.635C140.344 191.635 139.665 192.309 139.45 193.241L138.82 196H138.161ZM145.427 196.073C144.094 196.073 143.488 194.921 143.806 193.495C144.123 192.152 145.212 191.044 146.506 191.044C147.292 191.044 147.873 191.498 148.01 192.216L148.269 191.122H148.928L147.805 196H147.204L147.434 194.911C146.96 195.648 146.198 196.073 145.427 196.073ZM145.637 195.487C146.667 195.487 147.517 194.628 147.771 193.495C148.024 192.44 147.595 191.635 146.599 191.635C145.563 191.635 144.694 192.499 144.44 193.617C144.196 194.672 144.631 195.487 145.637 195.487ZM150.783 196L149.904 191.122H150.603L151.228 195.18L153.732 191.122H154.445L151.33 196H150.783ZM158.811 192.299C158.811 193.539 156.911 193.764 154.987 193.759C154.963 193.92 154.948 194.081 154.948 194.242C154.948 195.028 155.339 195.487 156.208 195.487C156.804 195.487 157.277 195.268 157.775 194.843L158.151 195.287C157.507 195.824 156.896 196.073 156.145 196.073C154.87 196.073 154.299 195.37 154.299 194.242C154.299 192.641 155.441 191.044 157.209 191.044C158.283 191.044 158.811 191.64 158.811 192.299ZM157.185 191.596C156.164 191.596 155.437 192.333 155.124 193.231C156.179 193.227 158.225 193.207 158.225 192.289C158.225 191.884 157.814 191.596 157.185 191.596ZM163.327 196.073C162.443 196.073 162.087 195.541 162.302 194.608L162.976 191.669H162.165L162.292 191.122H163.112L163.43 189.711L164.182 189.237L163.747 191.122H165.109L164.987 191.669H163.62L162.951 194.555C162.795 195.243 162.99 195.502 163.488 195.502C163.723 195.502 163.967 195.429 164.104 195.375L164.011 195.985C163.85 196.034 163.581 196.073 163.327 196.073ZM167.146 196.073C165.739 196.073 165.021 194.931 165.349 193.49C165.666 192.128 166.857 191.044 168.234 191.044C169.641 191.044 170.378 192.182 170.051 193.612C169.729 194.975 168.518 196.073 167.146 196.073ZM167.204 195.512C168.278 195.512 169.147 194.604 169.406 193.49C169.65 192.45 169.221 191.61 168.176 191.61C167.106 191.61 166.252 192.494 165.993 193.612C165.749 194.662 166.164 195.512 167.204 195.512ZM175.153 196.073C173.82 196.073 173.215 194.921 173.532 193.495C173.85 192.152 174.938 191.044 176.232 191.044C177.019 191.044 177.6 191.498 177.736 192.216L178.469 189.101H179.123L177.531 196H176.931L177.16 194.911C176.687 195.648 175.925 196.073 175.153 196.073ZM175.363 195.487C176.394 195.487 177.243 194.628 177.497 193.495C177.751 192.44 177.321 191.635 176.325 191.635C175.29 191.635 174.421 192.499 174.167 193.617C173.923 194.672 174.357 195.487 175.363 195.487ZM181.218 196.073C179.812 196.073 179.094 194.931 179.421 193.49C179.738 192.128 180.93 191.044 182.307 191.044C183.713 191.044 184.45 192.182 184.123 193.612C183.801 194.975 182.59 196.073 181.218 196.073ZM181.276 195.512C182.351 195.512 183.22 194.604 183.479 193.49C183.723 192.45 183.293 191.61 182.248 191.61C181.179 191.61 180.324 192.494 180.065 193.612C179.821 194.662 180.236 195.512 181.276 195.512ZM186.413 196.073C185.256 196.073 184.899 195.238 185.124 194.184L185.827 191.122H186.467L185.788 194.086C185.578 194.975 185.866 195.473 186.647 195.473C187.492 195.473 188.171 194.931 188.396 193.979L189.05 191.122H189.689L188.566 196H187.927L188.122 195.189C187.678 195.785 187.043 196.073 186.413 196.073ZM192.722 196.073C191.936 196.073 191.359 195.619 191.218 194.901L190.959 196H190.29L191.882 189.101H192.546L191.828 192.177C192.297 191.459 193.044 191.044 193.801 191.044C195.139 191.044 195.646 192.196 195.324 193.617C195.007 194.965 194.016 196.073 192.722 196.073ZM192.639 195.473C193.679 195.473 194.44 194.613 194.694 193.495C194.943 192.45 194.602 191.635 193.596 191.635C192.565 191.635 191.711 192.489 191.452 193.617C191.203 194.677 191.643 195.473 192.639 195.473ZM197.004 196.073C196.291 196.073 196.169 195.634 196.325 194.945L197.678 189.101H198.322L196.999 194.828C196.911 195.204 196.877 195.492 197.346 195.492C197.468 195.492 197.619 195.468 197.771 195.438L197.688 196C197.458 196.044 197.199 196.073 197.004 196.073ZM203.391 192.299C203.391 193.539 201.491 193.764 199.567 193.759C199.543 193.92 199.528 194.081 199.528 194.242C199.528 195.028 199.919 195.487 200.788 195.487C201.384 195.487 201.857 195.268 202.355 194.843L202.731 195.287C202.087 195.824 201.477 196.073 200.725 196.073C199.45 196.073 198.879 195.37 198.879 194.242C198.879 192.641 200.021 191.044 201.789 191.044C202.863 191.044 203.391 191.64 203.391 192.299ZM201.765 191.596C200.744 191.596 200.017 192.333 199.704 193.231C200.759 193.227 202.805 193.207 202.805 192.289C202.805 191.884 202.395 191.596 201.765 191.596ZM204.44 193.212L204.562 192.709H207.199L207.077 193.212H204.44ZM66.916 208.073C65.5 208.073 64.9531 206.926 65.2754 205.51C65.5684 204.265 66.5449 203.044 67.9951 203.044C68.9033 203.044 69.5186 203.537 69.6748 204.411L69.0254 204.602C68.9424 203.991 68.542 203.635 67.9316 203.635C66.8672 203.635 66.1396 204.602 65.9053 205.632C65.6758 206.599 65.9346 207.487 66.9746 207.487C67.6289 207.487 68.2246 207.087 68.5566 206.481L69.0986 206.755C68.6006 207.604 67.7998 208.073 66.916 208.073ZM70.9346 208.073C70.2217 208.073 70.0996 207.634 70.2559 206.945L71.6084 201.101H72.2529L70.9297 206.828C70.8418 207.204 70.8076 207.492 71.2764 207.492C71.3984 207.492 71.5498 207.468 71.7012 207.438L71.6182 208C71.3887 208.044 71.1299 208.073 70.9346 208.073ZM74.0596 202.102L74.2891 201.101H74.9629L74.7334 202.102H74.0596ZM72.7119 208L73.835 203.122H74.4746L73.3564 208H72.7119ZM76.8867 208.073C75.4707 208.073 74.9238 206.926 75.2461 205.51C75.5391 204.265 76.5156 203.044 77.9658 203.044C78.874 203.044 79.4893 203.537 79.6455 204.411L78.9961 204.602C78.9131 203.991 78.5127 203.635 77.9023 203.635C76.8379 203.635 76.1104 204.602 75.876 205.632C75.6465 206.599 75.9053 207.487 76.9453 207.487C77.5996 207.487 78.1953 207.087 78.5273 206.481L79.0693 206.755C78.5713 207.604 77.7705 208.073 76.8867 208.073ZM85.1484 203.122L82.9561 204.938L84.2939 208H83.6445L82.4922 205.324L81.0078 206.555L80.6709 208H80.0215L81.6133 201.101H82.2578L81.1689 205.773L84.2939 203.122H85.1484ZM89.8164 208.073C88.4102 208.073 87.6924 206.931 88.0195 205.49C88.3369 204.128 89.5283 203.044 90.9053 203.044C92.3115 203.044 93.0488 204.182 92.7217 205.612C92.3994 206.975 91.1885 208.073 89.8164 208.073ZM89.875 207.512C90.9492 207.512 91.8184 206.604 92.0771 205.49C92.3213 204.45 91.8916 203.61 90.8467 203.61C89.7773 203.61 88.9229 204.494 88.6641 205.612C88.4199 206.662 88.835 207.512 89.875 207.512ZM93.4736 208L94.5967 203.122H95.2412L95.0459 203.928C95.4902 203.337 96.1201 203.044 96.75 203.044C97.9072 203.044 98.2686 203.879 98.0439 204.934L97.3408 208H96.6963L97.375 205.036C97.585 204.143 97.2969 203.645 96.5156 203.645C95.6709 203.645 94.9971 204.191 94.7773 205.139L94.123 208H93.4736ZM103 208.073C102.116 208.073 101.76 207.541 101.975 206.608L102.648 203.669H101.838L101.965 203.122H102.785L103.103 201.711L103.854 201.237L103.42 203.122H104.782L104.66 203.669H103.293L102.624 206.555C102.468 207.243 102.663 207.502 103.161 207.502C103.396 207.502 103.64 207.429 103.776 207.375L103.684 207.985C103.522 208.034 103.254 208.073 103 208.073ZM104.787 208L106.379 201.101H107.033L106.369 203.928C106.813 203.337 107.434 203.044 108.063 203.044C109.221 203.044 109.597 203.879 109.367 204.934L108.664 208H108.01L108.688 205.036C108.894 204.167 108.693 203.635 107.854 203.635C106.97 203.635 106.291 204.309 106.076 205.241L105.446 208H104.787ZM114.87 204.299C114.87 205.539 112.971 205.764 111.047 205.759C111.022 205.92 111.008 206.081 111.008 206.242C111.008 207.028 111.398 207.487 112.268 207.487C112.863 207.487 113.337 207.268 113.835 206.843L114.211 207.287C113.566 207.824 112.956 208.073 112.204 208.073C110.93 208.073 110.358 207.37 110.358 206.242C110.358 204.641 111.501 203.044 113.269 203.044C114.343 203.044 114.87 203.64 114.87 204.299ZM113.244 203.596C112.224 203.596 111.496 204.333 111.184 205.231C112.238 205.227 114.284 205.207 114.284 204.289C114.284 203.884 113.874 203.596 113.244 203.596ZM119.343 210.271C118.273 210.271 117.678 209.743 117.453 209.021L118.005 208.703C118.137 209.284 118.605 209.699 119.411 209.699C120.432 209.699 121.169 208.986 121.442 207.824L121.662 206.892C121.193 207.609 120.446 208.024 119.685 208.024C118.352 208.024 117.746 206.872 118.063 205.471C118.371 204.152 119.46 203.044 120.754 203.044C121.54 203.044 122.121 203.498 122.258 204.216L122.521 203.122H123.171L122.072 207.873C121.735 209.348 120.734 210.271 119.343 210.271ZM119.899 207.424C120.93 207.424 121.774 206.579 122.028 205.471C122.268 204.44 121.843 203.635 120.847 203.635C119.812 203.635 118.942 204.499 118.693 205.588C118.454 206.618 118.894 207.424 119.899 207.424ZM123.786 208L124.909 203.122H125.539L125.31 204.118C125.725 203.366 126.457 203.044 127.028 203.044C127.312 203.044 127.58 203.142 127.761 203.298L127.37 203.801C127.224 203.708 127.043 203.674 126.862 203.674C126.198 203.674 125.29 204.211 124.978 205.534L124.411 208H123.786ZM129.455 208.073C128.122 208.073 127.517 206.921 127.834 205.495C128.151 204.152 129.24 203.044 130.534 203.044C131.32 203.044 131.901 203.498 132.038 204.216L132.297 203.122H132.956L131.833 208H131.232L131.462 206.911C130.988 207.648 130.227 208.073 129.455 208.073ZM129.665 207.487C130.695 207.487 131.545 206.628 131.799 205.495C132.053 204.44 131.623 203.635 130.627 203.635C129.592 203.635 128.723 204.499 128.469 205.617C128.225 206.672 128.659 207.487 129.665 207.487ZM133.098 210.021L134.689 203.122H135.354L135.104 204.182C135.573 203.459 136.335 203.044 137.087 203.044C138.415 203.044 138.918 204.206 138.601 205.627C138.278 206.975 137.292 208.073 135.988 208.073C135.197 208.073 134.636 207.619 134.494 206.906L133.762 210.021H133.098ZM135.915 207.487C136.95 207.487 137.717 206.618 137.971 205.505C138.215 204.455 137.873 203.645 136.872 203.645C135.837 203.645 134.982 204.494 134.729 205.627C134.479 206.682 134.914 207.487 135.915 207.487ZM139.396 208L140.988 201.101H141.643L140.979 203.928C141.423 203.337 142.043 203.044 142.673 203.044C143.83 203.044 144.206 203.879 143.977 204.934L143.273 208H142.619L143.298 205.036C143.503 204.167 143.303 203.635 142.463 203.635C141.579 203.635 140.9 204.309 140.686 205.241L140.056 208H139.396ZM146.218 202.102L146.447 201.101H147.121L146.892 202.102H146.218ZM144.87 208L145.993 203.122H146.633L145.515 208H144.87ZM149.045 208.073C147.629 208.073 147.082 206.926 147.404 205.51C147.697 204.265 148.674 203.044 150.124 203.044C151.032 203.044 151.647 203.537 151.804 204.411L151.154 204.602C151.071 203.991 150.671 203.635 150.061 203.635C148.996 203.635 148.269 204.602 148.034 205.632C147.805 206.599 148.063 207.487 149.104 207.487C149.758 207.487 150.354 207.087 150.686 206.481L151.228 206.755C150.729 207.604 149.929 208.073 149.045 208.073ZM159.353 204.299C159.353 205.539 157.453 205.764 155.529 205.759C155.505 205.92 155.49 206.081 155.49 206.242C155.49 207.028 155.881 207.487 156.75 207.487C157.346 207.487 157.819 207.268 158.317 206.843L158.693 207.287C158.049 207.824 157.438 208.073 156.687 208.073C155.412 208.073 154.841 207.37 154.841 206.242C154.841 204.641 155.983 203.044 157.751 203.044C158.825 203.044 159.353 203.64 159.353 204.299ZM157.727 203.596C156.706 203.596 155.979 204.333 155.666 205.231C156.721 205.227 158.767 205.207 158.767 204.289C158.767 203.884 158.356 203.596 157.727 203.596ZM160.69 208.073C159.978 208.073 159.855 207.634 160.012 206.945L161.364 201.101H162.009L160.686 206.828C160.598 207.204 160.563 207.492 161.032 207.492C161.154 207.492 161.306 207.468 161.457 207.438L161.374 208C161.145 208.044 160.886 208.073 160.69 208.073ZM167.077 204.299C167.077 205.539 165.178 205.764 163.254 205.759C163.229 205.92 163.215 206.081 163.215 206.242C163.215 207.028 163.605 207.487 164.475 207.487C165.07 207.487 165.544 207.268 166.042 206.843L166.418 207.287C165.773 207.824 165.163 208.073 164.411 208.073C163.137 208.073 162.565 207.37 162.565 206.242C162.565 204.641 163.708 203.044 165.476 203.044C166.55 203.044 167.077 203.64 167.077 204.299ZM165.451 203.596C164.431 203.596 163.703 204.333 163.391 205.231C164.445 205.227 166.491 205.207 166.491 204.289C166.491 203.884 166.081 203.596 165.451 203.596ZM167.536 208L168.654 203.122H169.279L169.084 203.947C169.499 203.322 170.095 203.044 170.734 203.044C171.462 203.044 171.965 203.4 172.009 204.123C172.473 203.386 173.137 203.044 173.85 203.044C175.031 203.044 175.358 203.923 175.075 205.173L174.426 208H173.776L174.426 205.202C174.66 204.191 174.475 203.649 173.659 203.649C172.834 203.649 172.155 204.284 171.96 205.134L171.306 208H170.656L171.345 205.026C171.545 204.162 171.33 203.649 170.544 203.649C169.714 203.649 169.035 204.284 168.84 205.134L168.186 208H167.536ZM180.632 204.299C180.632 205.539 178.732 205.764 176.809 205.759C176.784 205.92 176.77 206.081 176.77 206.242C176.77 207.028 177.16 207.487 178.029 207.487C178.625 207.487 179.099 207.268 179.597 206.843L179.973 207.287C179.328 207.824 178.718 208.073 177.966 208.073C176.691 208.073 176.12 207.37 176.12 206.242C176.12 204.641 177.263 203.044 179.03 203.044C180.104 203.044 180.632 203.64 180.632 204.299ZM179.006 203.596C177.985 203.596 177.258 204.333 176.945 205.231C178 205.227 180.046 205.207 180.046 204.289C180.046 203.884 179.636 203.596 179.006 203.596ZM181.091 208L182.214 203.122H182.858L182.663 203.928C183.107 203.337 183.737 203.044 184.367 203.044C185.524 203.044 185.886 203.879 185.661 204.934L184.958 208H184.313L184.992 205.036C185.202 204.143 184.914 203.645 184.133 203.645C183.288 203.645 182.614 204.191 182.395 205.139L181.74 208H181.091ZM188.059 208.073C187.175 208.073 186.818 207.541 187.033 206.608L187.707 203.669H186.896L187.023 203.122H187.844L188.161 201.711L188.913 201.237L188.479 203.122H189.841L189.719 203.669H188.352L187.683 206.555C187.526 207.243 187.722 207.502 188.22 207.502C188.454 207.502 188.698 207.429 188.835 207.375L188.742 207.985C188.581 208.034 188.312 208.073 188.059 208.073ZM194.025 208.073C193.142 208.073 192.785 207.541 193 206.608L193.674 203.669H192.863L192.99 203.122H193.811L194.128 201.711L194.88 201.237L194.445 203.122H195.808L195.686 203.669H194.318L193.649 206.555C193.493 207.243 193.688 207.502 194.187 207.502C194.421 207.502 194.665 207.429 194.802 207.375L194.709 207.985C194.548 208.034 194.279 208.073 194.025 208.073ZM197.844 208.073C196.438 208.073 195.72 206.931 196.047 205.49C196.364 204.128 197.556 203.044 198.933 203.044C200.339 203.044 201.076 204.182 200.749 205.612C200.427 206.975 199.216 208.073 197.844 208.073ZM197.902 207.512C198.977 207.512 199.846 206.604 200.104 205.49C200.349 204.45 199.919 203.61 198.874 203.61C197.805 203.61 196.95 204.494 196.691 205.612C196.447 206.662 196.862 207.512 197.902 207.512ZM76.0664 220L77.1895 215.122H77.8193L77.5898 216.118C78.0049 215.366 78.7373 215.044 79.3086 215.044C79.5918 215.044 79.8604 215.142 80.041 215.298L79.6504 215.801C79.5039 215.708 79.3232 215.674 79.1426 215.674C78.4785 215.674 77.5703 216.211 77.2578 217.534L76.6914 220H76.0664ZM84.1816 216.299C84.1816 217.539 82.2822 217.764 80.3584 217.759C80.334 217.92 80.3193 218.081 80.3193 218.242C80.3193 219.028 80.71 219.487 81.5791 219.487C82.1748 219.487 82.6484 219.268 83.1465 218.843L83.5225 219.287C82.8779 219.824 82.2676 220.073 81.5156 220.073C80.2412 220.073 79.6699 219.37 79.6699 218.242C79.6699 216.641 80.8125 215.044 82.5801 215.044C83.6543 215.044 84.1816 215.64 84.1816 216.299ZM82.5557 215.596C81.5352 215.596 80.8076 216.333 80.4951 217.231C81.5498 217.227 83.5957 217.207 83.5957 216.289C83.5957 215.884 83.1855 215.596 82.5557 215.596ZM85.8418 220L84.9629 215.122H85.6611L86.2861 219.18L88.791 215.122H89.5039L86.3887 220H85.8418ZM93.8691 216.299C93.8691 217.539 91.9697 217.764 90.0459 217.759C90.0215 217.92 90.0068 218.081 90.0068 218.242C90.0068 219.028 90.3975 219.487 91.2666 219.487C91.8623 219.487 92.3359 219.268 92.834 218.843L93.21 219.287C92.5654 219.824 91.9551 220.073 91.2031 220.073C89.9287 220.073 89.3574 219.37 89.3574 218.242C89.3574 216.641 90.5 215.044 92.2676 215.044C93.3418 215.044 93.8691 215.64 93.8691 216.299ZM92.2432 215.596C91.2227 215.596 90.4951 216.333 90.1826 217.231C91.2373 217.227 93.2832 217.207 93.2832 216.289C93.2832 215.884 92.873 215.596 92.2432 215.596ZM96.1201 220.073C94.7871 220.073 94.1816 218.921 94.499 217.495C94.8164 216.152 95.9053 215.044 97.1992 215.044C97.9854 215.044 98.5664 215.498 98.7031 216.216L98.9619 215.122H99.6211L98.498 220H97.8975L98.127 218.911C97.6533 219.648 96.8916 220.073 96.1201 220.073ZM96.3301 219.487C97.3604 219.487 98.21 218.628 98.4639 217.495C98.7178 216.44 98.2881 215.635 97.292 215.635C96.2568 215.635 95.3877 216.499 95.1338 217.617C94.8896 218.672 95.3242 219.487 96.3301 219.487ZM101.105 220.073C100.393 220.073 100.271 219.634 100.427 218.945L101.779 213.101H102.424L101.101 218.828C101.013 219.204 100.979 219.492 101.447 219.492C101.569 219.492 101.721 219.468 101.872 219.438L101.789 220C101.56 220.044 101.301 220.073 101.105 220.073ZM106.94 220.073C106.057 220.073 105.7 219.541 105.915 218.608L106.589 215.669H105.778L105.905 215.122H106.726L107.043 213.711L107.795 213.237L107.36 215.122H108.723L108.601 215.669H107.233L106.564 218.555C106.408 219.243 106.604 219.502 107.102 219.502C107.336 219.502 107.58 219.429 107.717 219.375L107.624 219.985C107.463 220.034 107.194 220.073 106.94 220.073ZM108.728 220L110.319 213.101H110.974L110.31 215.928C110.754 215.337 111.374 215.044 112.004 215.044C113.161 215.044 113.537 215.879 113.308 216.934L112.604 220H111.95L112.629 217.036C112.834 216.167 112.634 215.635 111.794 215.635C110.91 215.635 110.231 216.309 110.017 217.241L109.387 220H108.728ZM118.811 216.299C118.811 217.539 116.911 217.764 114.987 217.759C114.963 217.92 114.948 218.081 114.948 218.242C114.948 219.028 115.339 219.487 116.208 219.487C116.804 219.487 117.277 219.268 117.775 218.843L118.151 219.287C117.507 219.824 116.896 220.073 116.145 220.073C114.87 220.073 114.299 219.37 114.299 218.242C114.299 216.641 115.441 215.044 117.209 215.044C118.283 215.044 118.811 215.64 118.811 216.299ZM117.185 215.596C116.164 215.596 115.437 216.333 115.124 217.231C116.179 217.227 118.225 217.207 118.225 216.289C118.225 215.884 117.814 215.596 117.185 215.596ZM122.707 220.073C121.994 220.073 121.872 219.634 122.028 218.945L123.381 213.101H124.025L122.702 218.828C122.614 219.204 122.58 219.492 123.049 219.492C123.171 219.492 123.322 219.468 123.474 219.438L123.391 220C123.161 220.044 122.902 220.073 122.707 220.073ZM126.433 220.073C125.026 220.073 124.309 218.931 124.636 217.49C124.953 216.128 126.145 215.044 127.521 215.044C128.928 215.044 129.665 216.182 129.338 217.612C129.016 218.975 127.805 220.073 126.433 220.073ZM126.491 219.512C127.565 219.512 128.435 218.604 128.693 217.49C128.938 216.45 128.508 215.61 127.463 215.61C126.394 215.61 125.539 216.494 125.28 217.612C125.036 218.662 125.451 219.512 126.491 219.512ZM131.901 220.073C130.485 220.073 129.938 218.926 130.261 217.51C130.554 216.265 131.53 215.044 132.98 215.044C133.889 215.044 134.504 215.537 134.66 216.411L134.011 216.602C133.928 215.991 133.527 215.635 132.917 215.635C131.853 215.635 131.125 216.602 130.891 217.632C130.661 218.599 130.92 219.487 131.96 219.487C132.614 219.487 133.21 219.087 133.542 218.481L134.084 218.755C133.586 219.604 132.785 220.073 131.901 220.073ZM136.794 220.073C135.461 220.073 134.855 218.921 135.173 217.495C135.49 216.152 136.579 215.044 137.873 215.044C138.659 215.044 139.24 215.498 139.377 216.216L139.636 215.122H140.295L139.172 220H138.571L138.801 218.911C138.327 219.648 137.565 220.073 136.794 220.073ZM137.004 219.487C138.034 219.487 138.884 218.628 139.138 217.495C139.392 216.44 138.962 215.635 137.966 215.635C136.931 215.635 136.062 216.499 135.808 217.617C135.563 218.672 135.998 219.487 137.004 219.487ZM142.38 220.073C141.496 220.073 141.14 219.541 141.354 218.608L142.028 215.669H141.218L141.345 215.122H142.165L142.482 213.711L143.234 213.237L142.8 215.122H144.162L144.04 215.669H142.673L142.004 218.555C141.848 219.243 142.043 219.502 142.541 219.502C142.775 219.502 143.02 219.429 143.156 219.375L143.063 219.985C142.902 220.034 142.634 220.073 142.38 220.073ZM145.656 214.102L145.886 213.101H146.56L146.33 214.102H145.656ZM144.309 220L145.432 215.122H146.071L144.953 220H144.309ZM148.62 220.073C147.214 220.073 146.496 218.931 146.823 217.49C147.141 216.128 148.332 215.044 149.709 215.044C151.115 215.044 151.853 216.182 151.525 217.612C151.203 218.975 149.992 220.073 148.62 220.073ZM148.679 219.512C149.753 219.512 150.622 218.604 150.881 217.49C151.125 216.45 150.695 215.61 149.65 215.61C148.581 215.61 147.727 216.494 147.468 217.612C147.224 218.662 147.639 219.512 148.679 219.512ZM152.277 220L153.4 215.122H154.045L153.85 215.928C154.294 215.337 154.924 215.044 155.554 215.044C156.711 215.044 157.072 215.879 156.848 216.934L156.145 220H155.5L156.179 217.036C156.389 216.143 156.101 215.645 155.319 215.645C154.475 215.645 153.801 216.191 153.581 217.139L152.927 220H152.277ZM159.24 220.073C158.254 220.073 157.609 219.521 157.517 218.765L158.073 218.584C158.142 219.131 158.522 219.531 159.265 219.531C160.036 219.531 160.656 219.082 160.656 218.428C160.656 217.314 158.283 217.983 158.283 216.606C158.283 215.679 159.167 215.044 160.241 215.044C161.042 215.044 161.564 215.444 161.76 216.089L161.218 216.309C161.086 215.869 160.769 215.566 160.173 215.566C159.479 215.566 158.918 215.928 158.918 216.475C158.918 217.451 161.301 216.895 161.301 218.345C161.301 219.37 160.363 220.073 159.24 220.073ZM166.184 214.102L166.413 213.101H167.087L166.857 214.102H166.184ZM164.836 220L165.959 215.122H166.599L165.48 220H164.836ZM167.199 220L168.322 215.122H168.967L168.771 215.928C169.216 215.337 169.846 215.044 170.476 215.044C171.633 215.044 171.994 215.879 171.77 216.934L171.066 220H170.422L171.101 217.036C171.311 216.143 171.022 215.645 170.241 215.645C169.396 215.645 168.723 216.191 168.503 217.139L167.849 220H167.199ZM174.162 220.073C173.176 220.073 172.531 219.521 172.438 218.765L172.995 218.584C173.063 219.131 173.444 219.531 174.187 219.531C174.958 219.531 175.578 219.082 175.578 218.428C175.578 217.314 173.205 217.983 173.205 216.606C173.205 215.679 174.089 215.044 175.163 215.044C175.964 215.044 176.486 215.444 176.682 216.089L176.14 216.309C176.008 215.869 175.69 215.566 175.095 215.566C174.401 215.566 173.84 215.928 173.84 216.475C173.84 217.451 176.223 216.895 176.223 218.345C176.223 219.37 175.285 220.073 174.162 220.073ZM178.547 214.102L178.776 213.101H179.45L179.221 214.102H178.547ZM177.199 220L178.322 215.122H178.962L177.844 220H177.199ZM181.354 220.073C180.021 220.073 179.416 218.921 179.733 217.495C180.051 216.152 181.14 215.044 182.434 215.044C183.22 215.044 183.801 215.498 183.938 216.216L184.67 213.101H185.324L183.732 220H183.132L183.361 218.911C182.888 219.648 182.126 220.073 181.354 220.073ZM181.564 219.487C182.595 219.487 183.444 218.628 183.698 217.495C183.952 216.44 183.522 215.635 182.526 215.635C181.491 215.635 180.622 216.499 180.368 217.617C180.124 218.672 180.559 219.487 181.564 219.487ZM190.08 216.299C190.08 217.539 188.181 217.764 186.257 217.759C186.232 217.92 186.218 218.081 186.218 218.242C186.218 219.028 186.608 219.487 187.478 219.487C188.073 219.487 188.547 219.268 189.045 218.843L189.421 219.287C188.776 219.824 188.166 220.073 187.414 220.073C186.14 220.073 185.568 219.37 185.568 218.242C185.568 216.641 186.711 215.044 188.479 215.044C189.553 215.044 190.08 215.64 190.08 216.299ZM188.454 215.596C187.434 215.596 186.706 216.333 186.394 217.231C187.448 217.227 189.494 217.207 189.494 216.289C189.494 215.884 189.084 215.596 188.454 215.596Z" fill="black"/>
<rect x="23.5" y="27.5" width="219" height="209" rx="13.5" stroke="#989292" stroke-dasharray="2 2"/>
<rect x="247.5" y="27.5" width="172" height="209" rx="13.5" stroke="#989292" stroke-dasharray="2 2"/>
<rect x="433.5" y="27.5" width="199" height="209" stroke="black"/>
<path d="M437.143 21V12.7207H438.631V17.0391L442.662 12.7207H444.654L441.344 16.1133L444.719 21H442.867L440.312 17.1094L438.631 18.8496V21H437.143ZM445.885 21V12.7207H451.393V14.0859H447.373V16.1777H451.117V17.543H447.373V19.5938H451.393V21H445.885ZM455.283 21V17.7715L452.178 12.7207H453.977L456.039 16.3418L458.119 12.7207H459.93L456.836 17.7715V21H455.283Z" fill="black"/>
<path d="M462.938 50L462.278 48.13H459.378L458.708 50H457.928L460.528 43.03H461.118L463.728 50H462.938ZM459.588 47.52H462.058L460.828 44.04L459.588 47.52ZM465.232 50V43.03H467.222C468.702 43.03 469.522 43.73 469.522 44.98C469.522 46.25 468.692 46.96 467.222 46.96H465.942V50H465.232ZM465.942 46.3H467.152C468.242 46.3 468.802 45.85 468.802 44.99C468.802 44.13 468.242 43.69 467.152 43.69H465.942V46.3ZM471.257 50V43.03H473.247C474.727 43.03 475.547 43.73 475.547 44.98C475.547 46.25 474.717 46.96 473.247 46.96H471.967V50H471.257ZM471.967 46.3H473.177C474.267 46.3 474.827 45.85 474.827 44.99C474.827 44.13 474.267 43.69 473.177 43.69H471.967V46.3ZM477.283 50V43.03H481.853V43.69H477.993V46.12H481.463V46.78H477.993V49.34H481.853V50H477.283ZM487.831 50L487.171 48.13H484.271L483.601 50H482.821L485.421 43.03H486.011L488.621 50H487.831ZM484.481 47.52H486.951L485.721 44.04L484.481 47.52ZM494.884 50H494.054L492.274 46.91H491.804H490.834V50H490.124V43.03H492.114C493.614 43.03 494.414 43.7 494.414 44.96C494.414 45.94 493.924 46.57 492.984 46.82L494.884 50ZM490.834 46.25H492.044C493.144 46.25 493.694 45.82 493.694 44.97C493.694 44.12 493.144 43.69 492.044 43.69H490.834V46.25ZM496.453 50V43.03H501.023V43.69H497.163V46.12H500.633V46.78H497.163V49.34H501.023V50H496.453ZM506.981 43.03H507.691V50H506.911L503.481 44.24V50H502.771V43.03H503.541L506.981 48.76V43.03ZM512.678 50.1C510.698 50.1 509.508 48.75 509.508 46.5C509.508 44.26 510.718 42.93 512.728 42.93C514.128 42.93 515.108 43.57 515.598 44.84L514.938 45.09C514.568 44.09 513.828 43.61 512.728 43.61C511.128 43.61 510.218 44.65 510.218 46.5C510.218 48.36 511.118 49.42 512.678 49.42C513.768 49.42 514.548 48.91 514.938 47.91L515.618 48.16C515.098 49.43 514.068 50.1 512.678 50.1ZM517.253 50V43.03H521.823V43.69H517.963V46.12H521.433V46.78H517.963V49.34H521.823V50H517.253Z" fill="black"/>
<path d="M463.843 107V100.03H464.553V106.34H467.733V107H463.843ZM470.865 107.08C469.455 107.08 468.505 105.99 468.505 104.53C468.505 103.07 469.455 101.99 470.865 101.99C472.265 101.99 473.235 103.07 473.235 104.53C473.235 105.98 472.275 107.08 470.865 107.08ZM470.865 106.47C471.925 106.47 472.545 105.63 472.545 104.53C472.545 103.41 471.915 102.6 470.865 102.6C469.805 102.6 469.195 103.42 469.195 104.53C469.195 105.65 469.815 106.47 470.865 106.47ZM476.449 107.08C475.019 107.08 474.219 105.92 474.219 104.55C474.219 103.25 474.949 101.99 476.439 101.99C477.319 101.99 478.049 102.43 478.439 103.35L477.779 103.61C477.549 102.98 477.059 102.6 476.439 102.6C475.389 102.6 474.919 103.54 474.919 104.55C474.919 105.56 475.389 106.47 476.449 106.47C477.069 106.47 477.559 106.1 477.749 105.47L478.389 105.71C478.059 106.61 477.339 107.08 476.449 107.08ZM481.368 101.99C482.608 101.99 483.328 102.7 483.328 103.93V107H482.698L482.658 106.24C482.268 106.79 481.668 107.08 480.888 107.08C479.818 107.08 479.188 106.52 479.188 105.57C479.188 105.07 479.388 104.69 479.748 104.47C480.128 104.25 480.658 104.16 481.628 104.16H482.638V103.93C482.638 103.07 482.188 102.6 481.358 102.6C480.738 102.6 480.258 102.87 479.858 103.42L479.358 103C479.888 102.31 480.528 101.99 481.368 101.99ZM481.088 106.51C482.038 106.51 482.638 105.84 482.638 104.79V104.72H481.688C480.778 104.72 480.388 104.78 480.148 104.97C479.968 105.11 479.878 105.33 479.878 105.61C479.878 106.16 480.348 106.51 481.088 106.51ZM487.05 106.34L487.06 106.95C486.8 107.03 486.54 107.08 486.31 107.08C485.65 107.08 485.17 106.71 485.17 105.84V102.65H484.35V102.07H485.17V100.79L485.86 100.27V102.07H487.05V102.65H485.86V105.75C485.86 106.23 486.08 106.45 486.47 106.45C486.64 106.45 486.83 106.41 487.05 106.34ZM488.309 101.05V100.03H489.109V101.05H488.309ZM488.369 107V102.07H489.059V107H488.369ZM492.809 107.08C491.399 107.08 490.449 105.99 490.449 104.53C490.449 103.07 491.399 101.99 492.809 101.99C494.209 101.99 495.179 103.07 495.179 104.53C495.179 105.98 494.219 107.08 492.809 107.08ZM492.809 106.47C493.869 106.47 494.489 105.63 494.489 104.53C494.489 103.41 493.859 102.6 492.809 102.6C491.749 102.6 491.139 103.42 491.139 104.53C491.139 105.65 491.759 106.47 492.809 106.47ZM498.892 101.99C499.952 101.99 500.502 102.67 500.502 103.98V107H499.812V104.15C499.812 103.09 499.472 102.6 498.732 102.6C497.802 102.6 497.262 103.4 497.262 104.79V107H496.572V102.07H497.262V102.79C497.582 102.29 498.182 101.99 498.892 101.99Z" fill="black"/>
<circle cx="482" cy="82" r="15" fill="#D9D9D9"/>
<path d="M530.19 107V100.03H530.9V106.34H534.08V107H530.19ZM537.212 107.08C535.802 107.08 534.852 105.99 534.852 104.53C534.852 103.07 535.802 101.99 537.212 101.99C538.612 101.99 539.582 103.07 539.582 104.53C539.582 105.98 538.622 107.08 537.212 107.08ZM537.212 106.47C538.272 106.47 538.892 105.63 538.892 104.53C538.892 103.41 538.262 102.6 537.212 102.6C536.152 102.6 535.542 103.42 535.542 104.53C535.542 105.65 536.162 106.47 537.212 106.47ZM542.795 107.08C541.365 107.08 540.565 105.92 540.565 104.55C540.565 103.25 541.295 101.99 542.785 101.99C543.665 101.99 544.395 102.43 544.785 103.35L544.125 103.61C543.895 102.98 543.405 102.6 542.785 102.6C541.735 102.6 541.265 103.54 541.265 104.55C541.265 105.56 541.735 106.47 542.795 106.47C543.415 106.47 543.905 106.1 544.095 105.47L544.735 105.71C544.405 106.61 543.685 107.08 542.795 107.08ZM547.715 101.99C548.955 101.99 549.675 102.7 549.675 103.93V107H549.045L549.005 106.24C548.615 106.79 548.015 107.08 547.235 107.08C546.165 107.08 545.535 106.52 545.535 105.57C545.535 105.07 545.735 104.69 546.095 104.47C546.475 104.25 547.005 104.16 547.975 104.16H548.985V103.93C548.985 103.07 548.535 102.6 547.705 102.6C547.085 102.6 546.605 102.87 546.205 103.42L545.705 103C546.235 102.31 546.875 101.99 547.715 101.99ZM547.435 106.51C548.385 106.51 548.985 105.84 548.985 104.79V104.72H548.035C547.125 104.72 546.735 104.78 546.495 104.97C546.315 105.11 546.225 105.33 546.225 105.61C546.225 106.16 546.695 106.51 547.435 106.51ZM553.396 106.34L553.406 106.95C553.146 107.03 552.886 107.08 552.656 107.08C551.996 107.08 551.516 106.71 551.516 105.84V102.65H550.696V102.07H551.516V100.79L552.206 100.27V102.07H553.396V102.65H552.206V105.75C552.206 106.23 552.426 106.45 552.816 106.45C552.986 106.45 553.176 106.41 553.396 106.34ZM554.656 101.05V100.03H555.456V101.05H554.656ZM554.716 107V102.07H555.406V107H554.716ZM559.155 107.08C557.745 107.08 556.795 105.99 556.795 104.53C556.795 103.07 557.745 101.99 559.155 101.99C560.555 101.99 561.525 103.07 561.525 104.53C561.525 105.98 560.565 107.08 559.155 107.08ZM559.155 106.47C560.215 106.47 560.835 105.63 560.835 104.53C560.835 103.41 560.205 102.6 559.155 102.6C558.095 102.6 557.485 103.42 557.485 104.53C557.485 105.65 558.105 106.47 559.155 106.47ZM565.239 101.99C566.299 101.99 566.849 102.67 566.849 103.98V107H566.159V104.15C566.159 103.09 565.819 102.6 565.079 102.6C564.149 102.6 563.609 103.4 563.609 104.79V107H562.919V102.07H563.609V102.79C563.929 102.29 564.529 101.99 565.239 101.99ZM573.108 107.08C571.678 107.08 570.878 105.92 570.878 104.55C570.878 103.25 571.608 101.99 573.098 101.99C573.978 101.99 574.708 102.43 575.098 103.35L574.438 103.61C574.208 102.98 573.718 102.6 573.098 102.6C572.048 102.6 571.578 103.54 571.578 104.55C571.578 105.56 572.048 106.47 573.108 106.47C573.728 106.47 574.218 106.1 574.408 105.47L575.048 105.71C574.718 106.61 573.998 107.08 573.108 107.08ZM578.247 107.08C576.837 107.08 575.887 105.99 575.887 104.53C575.887 103.07 576.837 101.99 578.247 101.99C579.647 101.99 580.617 103.07 580.617 104.53C580.617 105.98 579.657 107.08 578.247 107.08ZM578.247 106.47C579.307 106.47 579.927 105.63 579.927 104.53C579.927 103.41 579.297 102.6 578.247 102.6C577.187 102.6 576.577 103.42 576.577 104.53C576.577 105.65 577.197 106.47 578.247 106.47ZM584.331 101.99C585.391 101.99 585.941 102.67 585.941 103.98V107H585.251V104.15C585.251 103.09 584.911 102.6 584.171 102.6C583.241 102.6 582.701 103.4 582.701 104.79V107H582.011V102.07H582.701V102.79C583.021 102.29 583.621 101.99 584.331 101.99ZM589.685 106.34L589.695 106.95C589.435 107.03 589.175 107.08 588.945 107.08C588.285 107.08 587.805 106.71 587.805 105.84V102.65H586.985V102.07H587.805V100.79L588.495 100.27V102.07H589.685V102.65H588.495V105.75C588.495 106.23 588.715 106.45 589.105 106.45C589.275 106.45 589.465 106.41 589.685 106.34ZM592.715 101.99C593.955 101.99 594.675 102.7 594.675 103.93V107H594.045L594.005 106.24C593.615 106.79 593.015 107.08 592.235 107.08C591.165 107.08 590.535 106.52 590.535 105.57C590.535 105.07 590.735 104.69 591.095 104.47C591.475 104.25 592.005 104.16 592.975 104.16H593.985V103.93C593.985 103.07 593.535 102.6 592.705 102.6C592.085 102.6 591.605 102.87 591.205 103.42L590.705 103C591.235 102.31 591.875 101.99 592.715 101.99ZM592.435 106.51C593.385 106.51 593.985 105.84 593.985 104.79V104.72H593.035C592.125 104.72 591.735 104.78 591.495 104.97C591.315 105.11 591.225 105.33 591.225 105.61C591.225 106.16 591.695 106.51 592.435 106.51ZM596.296 101.05V100.03H597.096V101.05H596.296ZM596.356 107V102.07H597.046V107H596.356ZM601.186 101.99C602.246 101.99 602.796 102.67 602.796 103.98V107H602.106V104.15C602.106 103.09 601.766 102.6 601.026 102.6C600.096 102.6 599.556 103.4 599.556 104.79V107H598.866V102.07H599.556V102.79C599.876 102.29 600.476 101.99 601.186 101.99ZM604.441 101.05V100.03H605.241V101.05H604.441ZM604.501 107V102.07H605.191V107H604.501ZM609.331 101.99C610.391 101.99 610.941 102.67 610.941 103.98V107H610.251V104.15C610.251 103.09 609.911 102.6 609.171 102.6C608.241 102.6 607.701 103.4 607.701 104.79V107H607.011V102.07H607.701V102.79C608.021 102.29 608.621 101.99 609.331 101.99ZM614.345 106.4C615.325 106.55 616.485 106.69 616.485 107.76C616.485 108.69 615.615 109.12 614.375 109.12C613.005 109.12 612.175 108.58 612.175 107.6C612.175 107.5 612.185 107.44 612.195 107.38L612.995 106.7C612.615 106.53 612.355 106.25 612.355 105.76C612.355 105.36 612.535 105.06 612.885 104.82C612.625 104.52 612.465 104.14 612.465 103.7C612.465 102.7 613.285 101.99 614.345 101.99C614.825 101.99 615.255 102.14 615.575 102.39L616.255 101.8L616.615 102.25L615.945 102.81C616.115 103.08 616.215 103.39 616.215 103.74C616.215 104.75 615.395 105.42 614.355 105.42C613.975 105.42 613.625 105.33 613.335 105.17C613.135 105.28 613.015 105.46 613.015 105.67C613.015 106.17 613.635 106.29 614.345 106.4ZM614.355 102.57C613.655 102.57 613.145 103.04 613.145 103.72C613.145 104.36 613.605 104.85 614.345 104.85C615.085 104.85 615.525 104.37 615.525 103.72C615.525 103.04 615.065 102.57 614.355 102.57ZM614.405 108.54C615.275 108.54 615.795 108.3 615.795 107.82C615.795 107.22 615.015 107.13 614.195 107C613.975 106.97 613.745 106.93 613.535 106.88L612.865 107.53C612.855 107.58 612.855 107.6 612.855 107.62C612.855 108.32 613.565 108.54 614.405 108.54ZM542.168 120.08C540.758 120.08 539.808 118.99 539.808 117.53C539.808 116.07 540.758 114.99 542.168 114.99C543.568 114.99 544.538 116.07 544.538 117.53C544.538 118.98 543.578 120.08 542.168 120.08ZM542.168 119.47C543.228 119.47 543.848 118.63 543.848 117.53C543.848 116.41 543.218 115.6 542.168 115.6C541.108 115.6 540.498 116.42 540.498 117.53C540.498 118.65 541.118 119.47 542.168 119.47ZM547.923 119.34L547.933 119.95C547.673 120.03 547.413 120.08 547.183 120.08C546.523 120.08 546.043 119.71 546.043 118.84V115.65H545.223V115.07H546.043V113.79L546.733 113.27V115.07H547.923V115.65H546.733V118.75C546.733 119.23 546.953 119.45 547.343 119.45C547.513 119.45 547.703 119.41 547.923 119.34ZM551.562 114.99C552.622 114.99 553.172 115.67 553.172 116.98V120H552.482V117.15C552.482 116.08 552.142 115.6 551.402 115.6C550.462 115.6 549.932 116.37 549.932 117.73V120H549.242V113.03H549.932V115.79C550.252 115.29 550.852 114.99 551.562 114.99ZM558.807 117.29C558.807 117.43 558.797 117.6 558.777 117.72H555.167C555.187 118.8 555.787 119.45 556.757 119.45C557.297 119.45 557.727 119.31 558.177 118.83L558.657 119.25C558.077 119.86 557.507 120.08 556.747 120.08C555.247 120.08 554.477 118.96 554.477 117.56C554.477 116.17 555.237 114.99 556.667 114.99C558.177 114.99 558.807 116.17 558.807 117.29ZM556.667 115.57C555.777 115.57 555.227 116.27 555.167 117.14H558.147C558.147 117.12 558.137 117.07 558.137 116.98C558.087 116.18 557.577 115.57 556.667 115.57ZM562.349 114.99C562.649 114.99 562.929 115.05 563.199 115.2L562.859 115.76C562.629 115.66 562.419 115.61 562.209 115.61C561.449 115.61 560.889 116.18 560.889 117.25V120H560.199V115.07H560.889V115.81C561.249 115.16 561.849 114.99 562.349 114.99ZM567.857 120.08C567.287 120.08 566.917 119.7 566.917 118.93V113.03H567.607V118.89C567.607 119.23 567.727 119.45 568.057 119.45C568.207 119.45 568.377 119.41 568.527 119.36L568.537 119.95C568.327 120.02 568.077 120.08 567.857 120.08ZM571.582 120.08C570.172 120.08 569.222 118.99 569.222 117.53C569.222 116.07 570.172 114.99 571.582 114.99C572.982 114.99 573.952 116.07 573.952 117.53C573.952 118.98 572.992 120.08 571.582 120.08ZM571.582 119.47C572.642 119.47 573.262 118.63 573.262 117.53C573.262 116.41 572.632 115.6 571.582 115.6C570.522 115.6 569.912 116.42 569.912 117.53C569.912 118.65 570.532 119.47 571.582 119.47ZM577.166 120.08C575.736 120.08 574.936 118.92 574.936 117.55C574.936 116.25 575.666 114.99 577.156 114.99C578.036 114.99 578.766 115.43 579.156 116.35L578.496 116.61C578.266 115.98 577.776 115.6 577.156 115.6C576.106 115.6 575.636 116.54 575.636 117.55C575.636 118.56 576.106 119.47 577.166 119.47C577.786 119.47 578.276 119.1 578.466 118.47L579.106 118.71C578.776 119.61 578.056 120.08 577.166 120.08ZM582.085 114.99C583.325 114.99 584.045 115.7 584.045 116.93V120H583.415L583.375 119.24C582.985 119.79 582.385 120.08 581.605 120.08C580.535 120.08 579.905 119.52 579.905 118.57C579.905 118.07 580.105 117.69 580.465 117.47C580.845 117.25 581.375 117.16 582.345 117.16H583.355V116.93C583.355 116.07 582.905 115.6 582.075 115.6C581.455 115.6 580.975 115.87 580.575 116.42L580.075 116C580.605 115.31 581.245 114.99 582.085 114.99ZM581.805 119.51C582.755 119.51 583.355 118.84 583.355 117.79V117.72H582.405C581.495 117.72 581.105 117.78 580.865 117.97C580.685 118.11 580.595 118.33 580.595 118.61C580.595 119.16 581.065 119.51 581.805 119.51ZM587.766 119.34L587.776 119.95C587.516 120.03 587.256 120.08 587.026 120.08C586.366 120.08 585.886 119.71 585.886 118.84V115.65H585.066V115.07H585.886V113.79L586.576 113.27V115.07H587.766V115.65H586.576V118.75C586.576 119.23 586.796 119.45 587.186 119.45C587.356 119.45 587.546 119.41 587.766 119.34ZM589.026 114.05V113.03H589.826V114.05H589.026ZM589.086 120V115.07H589.776V120H589.086ZM593.526 120.08C592.116 120.08 591.166 118.99 591.166 117.53C591.166 116.07 592.116 114.99 593.526 114.99C594.926 114.99 595.896 116.07 595.896 117.53C595.896 118.98 594.936 120.08 593.526 120.08ZM593.526 119.47C594.586 119.47 595.206 118.63 595.206 117.53C595.206 116.41 594.576 115.6 593.526 115.6C592.466 115.6 591.856 116.42 591.856 117.53C591.856 118.65 592.476 119.47 593.526 119.47ZM599.609 114.99C600.669 114.99 601.219 115.67 601.219 116.98V120H600.529V117.15C600.529 116.09 600.189 115.6 599.449 115.6C598.519 115.6 597.979 116.4 597.979 117.79V120H597.289V115.07H597.979V115.79C598.299 115.29 598.899 114.99 599.609 114.99ZM604.414 120.08C603.444 120.08 602.654 119.58 602.394 118.79L602.974 118.53C603.154 119.04 603.634 119.47 604.404 119.47C605.074 119.47 605.504 119.14 605.504 118.62C605.504 117.31 602.664 118.13 602.664 116.38C602.664 115.52 603.364 114.99 604.354 114.99C605.144 114.99 605.784 115.32 606.124 116.02L605.574 116.32C605.334 115.88 604.944 115.6 604.334 115.6C603.724 115.6 603.334 115.85 603.334 116.28C603.334 117.45 606.184 116.71 606.184 118.58C606.184 119.58 605.364 120.08 604.414 120.08Z" fill="black"/>
<circle cx="573" cy="83" r="14.5" fill="#D9D9D9" stroke="black"/>
<path d="M463.021 159V152.69H460.611V152.03H466.161V152.69H463.741V159H463.021ZM469.656 159V156.33L466.996 152.03H467.836L470.006 155.64L472.186 152.03H473.036L470.376 156.33V159H469.656ZM474.477 159V152.03H476.467C477.947 152.03 478.767 152.73 478.767 153.98C478.767 155.25 477.937 155.96 476.467 155.96H475.187V159H474.477ZM475.187 155.3H476.397C477.487 155.3 478.047 154.85 478.047 153.99C478.047 153.13 477.487 152.69 476.397 152.69H475.187V155.3ZM480.502 159V152.03H485.072V152.69H481.212V155.12H484.682V155.78H481.212V158.34H485.072V159H480.502ZM492.275 159.1C490.365 159.1 489.085 157.67 489.085 155.52C489.085 153.36 490.365 151.93 492.275 151.93C494.185 151.93 495.465 153.36 495.465 155.52C495.465 157.67 494.185 159.1 492.275 159.1ZM492.275 158.42C493.785 158.42 494.755 157.29 494.755 155.52C494.755 153.74 493.785 152.61 492.275 152.61C490.765 152.61 489.795 153.74 489.795 155.52C489.795 157.29 490.765 158.42 492.275 158.42ZM497.28 159V152.03H502.01V152.69H497.99V155.12H501.51V155.78H497.99V159H497.28ZM506.293 159V152.03H507.003V158.34H510.183V159H506.293ZM514.033 159.1C512.123 159.1 510.843 157.67 510.843 155.52C510.843 153.36 512.123 151.93 514.033 151.93C515.943 151.93 517.223 153.36 517.223 155.52C517.223 157.67 515.943 159.1 514.033 159.1ZM514.033 158.42C515.543 158.42 516.513 157.29 516.513 155.52C516.513 153.74 515.543 152.61 514.033 152.61C512.523 152.61 511.553 153.74 511.553 155.52C511.553 157.29 512.523 158.42 514.033 158.42ZM521.747 159.1C519.767 159.1 518.577 157.75 518.577 155.5C518.577 153.26 519.787 151.93 521.797 151.93C523.197 151.93 524.177 152.57 524.667 153.84L524.007 154.09C523.637 153.09 522.897 152.61 521.797 152.61C520.197 152.61 519.287 153.65 519.287 155.5C519.287 157.36 520.187 158.42 521.747 158.42C522.837 158.42 523.617 157.91 524.007 156.91L524.687 157.16C524.167 158.43 523.137 159.1 521.747 159.1ZM530.357 159L529.697 157.13H526.797L526.127 159H525.347L527.947 152.03H528.537L531.147 159H530.357ZM527.007 156.52H529.477L528.247 153.04L527.007 156.52ZM533.597 159V152.69H531.187V152.03H536.737V152.69H534.317V159H533.597ZM538.217 159V152.03H538.927V159H538.217ZM543.925 159.1C542.015 159.1 540.735 157.67 540.735 155.52C540.735 153.36 542.015 151.93 543.925 151.93C545.835 151.93 547.115 153.36 547.115 155.52C547.115 157.67 545.835 159.1 543.925 159.1ZM543.925 158.42C545.435 158.42 546.405 157.29 546.405 155.52C546.405 153.74 545.435 152.61 543.925 152.61C542.415 152.61 541.445 153.74 541.445 155.52C541.445 157.29 542.415 158.42 543.925 158.42ZM553.14 152.03H553.85V159H553.07L549.64 153.24V159H548.93V152.03H549.7L553.14 157.76V152.03ZM557.927 159.1C556.637 159.1 555.667 158.33 555.477 157.16L556.187 156.99C556.317 157.89 556.997 158.46 557.937 158.46C558.947 158.46 559.457 157.93 559.457 157.24C559.457 156.49 559.027 156.1 557.797 155.63C556.387 155.1 555.897 154.6 555.897 153.69C555.897 152.63 556.697 151.93 557.877 151.93C558.757 151.93 559.447 152.32 559.867 153.06L559.267 153.43C558.967 152.89 558.457 152.57 557.857 152.57C557.127 152.57 556.607 153.07 556.607 153.66C556.607 154.3 557.087 154.64 558.187 155.06C559.737 155.65 560.177 156.21 560.177 157.18C560.177 158.35 559.367 159.1 557.927 159.1Z" fill="black"/>
<path d="M490.281 187.1C488.991 187.1 488.021 186.33 487.831 185.16L488.541 184.99C488.671 185.89 489.351 186.46 490.291 186.46C491.301 186.46 491.811 185.93 491.811 185.24C491.811 184.49 491.381 184.1 490.151 183.63C488.741 183.1 488.251 182.6 488.251 181.69C488.251 180.63 489.051 179.93 490.231 179.93C491.111 179.93 491.801 180.32 492.221 181.06L491.621 181.43C491.321 180.89 490.811 180.57 490.211 180.57C489.481 180.57 488.961 181.07 488.961 181.66C488.961 182.3 489.441 182.64 490.541 183.06C492.091 183.65 492.531 184.21 492.531 185.18C492.531 186.35 491.721 187.1 490.281 187.1ZM496.01 181.98C497.38 181.98 498.2 182.99 498.2 184.53C498.2 186 497.45 187.08 496.01 187.08C495.29 187.08 494.74 186.8 494.38 186.34V189.04H493.69V182.07H494.38V182.73C494.75 182.25 495.31 181.98 496.01 181.98ZM495.91 186.47C496.96 186.47 497.51 185.65 497.51 184.53C497.51 183.36 496.91 182.59 495.91 182.59C494.92 182.59 494.32 183.36 494.32 184.53C494.32 185.65 494.87 186.47 495.91 186.47ZM503.558 184.29C503.558 184.43 503.548 184.6 503.528 184.72H499.918C499.938 185.8 500.538 186.45 501.508 186.45C502.048 186.45 502.478 186.31 502.928 185.83L503.408 186.25C502.828 186.86 502.258 187.08 501.498 187.08C499.998 187.08 499.228 185.96 499.228 184.56C499.228 183.17 499.988 181.99 501.418 181.99C502.928 181.99 503.558 183.17 503.558 184.29ZM501.418 182.57C500.528 182.57 499.978 183.27 499.918 184.14H502.898C502.898 184.12 502.888 184.07 502.888 183.98C502.838 183.18 502.328 182.57 501.418 182.57ZM506.77 187.08C505.34 187.08 504.54 185.92 504.54 184.55C504.54 183.25 505.27 181.99 506.76 181.99C507.64 181.99 508.37 182.43 508.76 183.35L508.1 183.61C507.87 182.98 507.38 182.6 506.76 182.6C505.71 182.6 505.24 183.54 505.24 184.55C505.24 185.56 505.71 186.47 506.77 186.47C507.39 186.47 507.88 186.1 508.07 185.47L508.71 185.71C508.38 186.61 507.66 187.08 506.77 187.08ZM509.968 181.05V180.03H510.768V181.05H509.968ZM510.028 187V182.07H510.718V187H510.028ZM515.938 182.07V187H515.248V182.65H513.338V187H512.648V182.65H511.798V182.07H512.648V181.67C512.648 180.5 513.438 179.95 514.408 179.95C515.008 179.95 515.488 180.11 515.938 180.42L515.608 180.9C515.278 180.66 514.918 180.52 514.438 180.52C513.728 180.52 513.338 180.87 513.338 181.68V182.07H515.938ZM519.524 187.08C518.094 187.08 517.294 185.92 517.294 184.55C517.294 183.25 518.024 181.99 519.514 181.99C520.394 181.99 521.124 182.43 521.514 183.35L520.854 183.61C520.624 182.98 520.134 182.6 519.514 182.6C518.464 182.6 517.994 183.54 517.994 184.55C517.994 185.56 518.464 186.47 519.524 186.47C520.144 186.47 520.634 186.1 520.824 185.47L521.464 185.71C521.134 186.61 520.414 187.08 519.524 187.08ZM527.556 186.34L527.566 186.95C527.306 187.03 527.046 187.08 526.816 187.08C526.156 187.08 525.676 186.71 525.676 185.84V182.65H524.856V182.07H525.676V180.79L526.366 180.27V182.07H527.556V182.65H526.366V185.75C526.366 186.23 526.586 186.45 526.976 186.45C527.146 186.45 527.336 186.41 527.556 186.34ZM532.757 184.29C532.757 184.43 532.747 184.6 532.727 184.72H529.117C529.137 185.8 529.737 186.45 530.707 186.45C531.247 186.45 531.677 186.31 532.127 185.83L532.607 186.25C532.027 186.86 531.457 187.08 530.697 187.08C529.197 187.08 528.427 185.96 528.427 184.56C528.427 183.17 529.187 181.99 530.617 181.99C532.127 181.99 532.757 183.17 532.757 184.29ZM530.617 182.57C529.727 182.57 529.177 183.27 529.117 184.14H532.097C532.097 184.12 532.087 184.07 532.087 183.98C532.037 183.18 531.527 182.57 530.617 182.57ZM536.299 181.99C536.599 181.99 536.879 182.05 537.149 182.2L536.809 182.76C536.579 182.66 536.369 182.61 536.159 182.61C535.399 182.61 534.839 183.18 534.839 184.25V187H534.149V182.07H534.839V182.81C535.199 182.16 535.799 181.99 536.299 181.99ZM540.323 181.99C540.623 181.99 540.903 182.05 541.173 182.2L540.833 182.76C540.603 182.66 540.393 182.61 540.183 182.61C539.423 182.61 538.863 183.18 538.863 184.25V187H538.173V182.07H538.863V182.81C539.223 182.16 539.823 181.99 540.323 181.99ZM545.677 184.29C545.677 184.43 545.667 184.6 545.647 184.72H542.037C542.057 185.8 542.657 186.45 543.627 186.45C544.167 186.45 544.597 186.31 545.047 185.83L545.527 186.25C544.947 186.86 544.377 187.08 543.617 187.08C542.117 187.08 541.347 185.96 541.347 184.56C541.347 183.17 542.107 181.99 543.537 181.99C545.047 181.99 545.677 183.17 545.677 184.29ZM543.537 182.57C542.647 182.57 542.097 183.27 542.037 184.14H545.017C545.017 184.12 545.007 184.07 545.007 183.98C544.957 183.18 544.447 182.57 543.537 182.57ZM548.559 187.08C547.589 187.08 546.799 186.58 546.539 185.79L547.119 185.53C547.299 186.04 547.779 186.47 548.549 186.47C549.219 186.47 549.649 186.14 549.649 185.62C549.649 184.31 546.809 185.13 546.809 183.38C546.809 182.52 547.509 181.99 548.499 181.99C549.289 181.99 549.929 182.32 550.269 183.02L549.719 183.32C549.479 182.88 549.089 182.6 548.479 182.6C547.869 182.6 547.479 182.85 547.479 183.28C547.479 184.45 550.329 183.71 550.329 185.58C550.329 186.58 549.509 187.08 548.559 187.08ZM553.767 186.34L553.777 186.95C553.517 187.03 553.257 187.08 553.027 187.08C552.367 187.08 551.887 186.71 551.887 185.84V182.65H551.067V182.07H551.887V180.79L552.577 180.27V182.07H553.767V182.65H552.577V185.75C552.577 186.23 552.797 186.45 553.187 186.45C553.357 186.45 553.547 186.41 553.767 186.34ZM557.139 181.99C557.439 181.99 557.719 182.05 557.989 182.2L557.649 182.76C557.419 182.66 557.209 182.61 556.999 182.61C556.239 182.61 555.679 183.18 555.679 184.25V187H554.989V182.07H555.679V182.81C556.039 182.16 556.639 181.99 557.139 181.99ZM558.953 181.05V180.03H559.753V181.05H558.953ZM559.013 187V182.07H559.703V187H559.013ZM563.232 181.99C564.472 181.99 565.192 182.7 565.192 183.93V187H564.562L564.522 186.24C564.132 186.79 563.532 187.08 562.752 187.08C561.682 187.08 561.052 186.52 561.052 185.57C561.052 185.07 561.252 184.69 561.612 184.47C561.992 184.25 562.522 184.16 563.492 184.16H564.502V183.93C564.502 183.07 564.052 182.6 563.222 182.6C562.602 182.6 562.122 182.87 561.722 183.42L561.222 183C561.752 182.31 562.392 181.99 563.232 181.99ZM562.952 186.51C563.902 186.51 564.502 185.84 564.502 184.79V184.72H563.552C562.642 184.72 562.252 184.78 562.012 184.97C561.832 185.11 561.742 185.33 561.742 185.61C561.742 186.16 562.212 186.51 562.952 186.51ZM567.774 187.08C567.204 187.08 566.834 186.7 566.834 185.93V180.03H567.524V185.89C567.524 186.23 567.644 186.45 567.974 186.45C568.124 186.45 568.294 186.41 568.444 186.36L568.454 186.95C568.244 187.02 567.994 187.08 567.774 187.08Z" fill="black"/>
<path d="M491.932 206.1C490.312 206.1 489.432 205.19 489.432 203.48V199.03H490.142V203.41C490.142 204.76 490.722 205.4 491.932 205.4C493.152 205.4 493.732 204.75 493.732 203.38V199.03H494.442V203.43C494.442 205.18 493.562 206.1 491.932 206.1ZM498.616 200.99C499.676 200.99 500.226 201.67 500.226 202.98V206H499.536V203.15C499.536 202.09 499.196 201.6 498.456 201.6C497.526 201.6 496.986 202.4 496.986 203.79V206H496.296V201.07H496.986V201.79C497.306 201.29 497.906 200.99 498.616 200.99ZM503.421 206.08C502.451 206.08 501.661 205.58 501.401 204.79L501.981 204.53C502.161 205.04 502.641 205.47 503.411 205.47C504.081 205.47 504.511 205.14 504.511 204.62C504.511 203.31 501.671 204.13 501.671 202.38C501.671 201.52 502.371 200.99 503.361 200.99C504.151 200.99 504.791 201.32 505.131 202.02L504.581 202.32C504.341 201.88 503.951 201.6 503.341 201.6C502.731 201.6 502.341 201.85 502.341 202.28C502.341 203.45 505.191 202.71 505.191 204.58C505.191 205.58 504.371 206.08 503.421 206.08ZM508.909 200.98C510.279 200.98 511.099 201.99 511.099 203.53C511.099 205 510.349 206.08 508.909 206.08C508.189 206.08 507.639 205.8 507.279 205.34V208.04H506.589V201.07H507.279V201.73C507.649 201.25 508.209 200.98 508.909 200.98ZM508.809 205.47C509.859 205.47 510.409 204.65 510.409 203.53C510.409 202.36 509.809 201.59 508.809 201.59C507.819 201.59 507.219 202.36 507.219 203.53C507.219 204.65 507.769 205.47 508.809 205.47ZM516.456 203.29C516.456 203.43 516.446 203.6 516.426 203.72H512.816C512.836 204.8 513.436 205.45 514.406 205.45C514.946 205.45 515.376 205.31 515.826 204.83L516.306 205.25C515.726 205.86 515.156 206.08 514.396 206.08C512.896 206.08 512.126 204.96 512.126 203.56C512.126 202.17 512.886 200.99 514.316 200.99C515.826 200.99 516.456 202.17 516.456 203.29ZM514.316 201.57C513.426 201.57 512.876 202.27 512.816 203.14H515.796C515.796 203.12 515.786 203.07 515.786 202.98C515.736 202.18 515.226 201.57 514.316 201.57ZM519.668 206.08C518.238 206.08 517.438 204.92 517.438 203.55C517.438 202.25 518.168 200.99 519.658 200.99C520.538 200.99 521.268 201.43 521.658 202.35L520.998 202.61C520.768 201.98 520.278 201.6 519.658 201.6C518.608 201.6 518.138 202.54 518.138 203.55C518.138 204.56 518.608 205.47 519.668 205.47C520.288 205.47 520.778 205.1 520.968 204.47L521.608 204.71C521.278 205.61 520.558 206.08 519.668 206.08ZM522.867 200.05V199.03H523.667V200.05H522.867ZM522.927 206V201.07H523.617V206H522.927ZM528.836 201.07V206H528.146V201.65H526.236V206H525.546V201.65H524.696V201.07H525.546V200.67C525.546 199.5 526.336 198.95 527.306 198.95C527.906 198.95 528.386 199.11 528.836 199.42L528.506 199.9C528.176 199.66 527.816 199.52 527.336 199.52C526.626 199.52 526.236 199.87 526.236 200.68V201.07H528.836ZM532.422 206.08C530.992 206.08 530.192 204.92 530.192 203.55C530.192 202.25 530.922 200.99 532.412 200.99C533.292 200.99 534.022 201.43 534.412 202.35L533.752 202.61C533.522 201.98 533.032 201.6 532.412 201.6C531.362 201.6 530.892 202.54 530.892 203.55C530.892 204.56 531.362 205.47 532.422 205.47C533.042 205.47 533.532 205.1 533.722 204.47L534.362 204.71C534.032 205.61 533.312 206.08 532.422 206.08ZM540.455 205.34L540.465 205.95C540.205 206.03 539.945 206.08 539.715 206.08C539.055 206.08 538.575 205.71 538.575 204.84V201.65H537.755V201.07H538.575V199.79L539.265 199.27V201.07H540.455V201.65H539.265V204.75C539.265 205.23 539.485 205.45 539.875 205.45C540.045 205.45 540.235 205.41 540.455 205.34ZM545.655 203.29C545.655 203.43 545.645 203.6 545.625 203.72H542.015C542.035 204.8 542.635 205.45 543.605 205.45C544.145 205.45 544.575 205.31 545.025 204.83L545.505 205.25C544.925 205.86 544.355 206.08 543.595 206.08C542.095 206.08 541.325 204.96 541.325 203.56C541.325 202.17 542.085 200.99 543.515 200.99C545.025 200.99 545.655 202.17 545.655 203.29ZM543.515 201.57C542.625 201.57 542.075 202.27 542.015 203.14H544.995C544.995 203.12 544.985 203.07 544.985 202.98C544.935 202.18 544.425 201.57 543.515 201.57ZM549.198 200.99C549.498 200.99 549.778 201.05 550.048 201.2L549.708 201.76C549.478 201.66 549.268 201.61 549.058 201.61C548.298 201.61 547.738 202.18 547.738 203.25V206H547.048V201.07H547.738V201.81C548.098 201.16 548.698 200.99 549.198 200.99ZM553.221 200.99C553.521 200.99 553.801 201.05 554.071 201.2L553.731 201.76C553.501 201.66 553.291 201.61 553.081 201.61C552.321 201.61 551.761 202.18 551.761 203.25V206H551.071V201.07H551.761V201.81C552.121 201.16 552.721 200.99 553.221 200.99ZM558.575 203.29C558.575 203.43 558.565 203.6 558.545 203.72H554.935C554.955 204.8 555.555 205.45 556.525 205.45C557.065 205.45 557.495 205.31 557.945 204.83L558.425 205.25C557.845 205.86 557.275 206.08 556.515 206.08C555.015 206.08 554.245 204.96 554.245 203.56C554.245 202.17 555.005 200.99 556.435 200.99C557.945 200.99 558.575 202.17 558.575 203.29ZM556.435 201.57C555.545 201.57 554.995 202.27 554.935 203.14H557.915C557.915 203.12 557.905 203.07 557.905 202.98C557.855 202.18 557.345 201.57 556.435 201.57ZM561.458 206.08C560.488 206.08 559.698 205.58 559.438 204.79L560.018 204.53C560.198 205.04 560.678 205.47 561.448 205.47C562.118 205.47 562.548 205.14 562.548 204.62C562.548 203.31 559.708 204.13 559.708 202.38C559.708 201.52 560.408 200.99 561.398 200.99C562.188 200.99 562.828 201.32 563.168 202.02L562.618 202.32C562.378 201.88 561.988 201.6 561.378 201.6C560.768 201.6 560.378 201.85 560.378 202.28C560.378 203.45 563.228 202.71 563.228 204.58C563.228 205.58 562.408 206.08 561.458 206.08ZM566.666 205.34L566.676 205.95C566.416 206.03 566.156 206.08 565.926 206.08C565.266 206.08 564.786 205.71 564.786 204.84V201.65H563.966V201.07H564.786V199.79L565.476 199.27V201.07H566.666V201.65H565.476V204.75C565.476 205.23 565.696 205.45 566.086 205.45C566.256 205.45 566.446 205.41 566.666 205.34ZM570.038 200.99C570.338 200.99 570.618 201.05 570.888 201.2L570.548 201.76C570.318 201.66 570.108 201.61 569.898 201.61C569.138 201.61 568.578 202.18 568.578 203.25V206H567.888V201.07H568.578V201.81C568.938 201.16 569.538 200.99 570.038 200.99ZM571.851 200.05V199.03H572.651V200.05H571.851ZM571.911 206V201.07H572.601V206H571.911ZM576.131 200.99C577.371 200.99 578.091 201.7 578.091 202.93V206H577.461L577.421 205.24C577.031 205.79 576.431 206.08 575.651 206.08C574.581 206.08 573.951 205.52 573.951 204.57C573.951 204.07 574.151 203.69 574.511 203.47C574.891 203.25 575.421 203.16 576.391 203.16H577.401V202.93C577.401 202.07 576.951 201.6 576.121 201.6C575.501 201.6 575.021 201.87 574.621 202.42L574.121 202C574.651 201.31 575.291 200.99 576.131 200.99ZM575.851 205.51C576.801 205.51 577.401 204.84 577.401 203.79V203.72H576.451C575.541 203.72 575.151 203.78 574.911 203.97C574.731 204.11 574.641 204.33 574.641 204.61C574.641 205.16 575.111 205.51 575.851 205.51ZM580.672 206.08C580.102 206.08 579.732 205.7 579.732 204.93V199.03H580.422V204.89C580.422 205.23 580.542 205.45 580.872 205.45C581.022 205.45 581.192 205.41 581.342 205.36L581.352 205.95C581.142 206.02 580.892 206.08 580.672 206.08Z" fill="black"/>
<rect x="463" y="181" width="14" height="6" rx="1" fill="#FFCE00"/>
<rect x="463" y="200" width="14" height="6" rx="1" fill="#FF6C39"/>
</svg>
