<svg width="1048" height="387" viewBox="0 0 1048 387" fill="none" xmlns="http://www.w3.org/2000/svg">
<rect width="1048" height="387" fill="white"/>
<circle cx="568.5" cy="53.5" r="7.5" fill="black"/>
<rect x="452.5" y="53.5" width="233" height="24" rx="5.5" fill="white" stroke="black"/>
<path d="M514.089 69V60.7207H519.503V61.4648H514.891V64.4707H519.04V65.2148H514.891V68.2383H519.503V69H514.089ZM520.522 69L522.673 66.0586L520.522 63.1465H521.466L523.182 65.5254L524.893 63.1465H525.843L523.692 66.0586L525.848 69H524.899L523.182 66.5977L521.471 69H520.522ZM527.196 71.4258V63.1465H527.993V64.4414C528.362 63.5742 529.171 63.0527 530.096 63.0527C531.667 63.0527 532.575 64.418 532.575 66.0762C532.575 67.7402 531.667 69.0879 530.085 69.0879C529.153 69.0879 528.362 68.5664 527.993 67.7109V71.4258H527.196ZM529.915 68.3848C531.139 68.3848 531.796 67.3711 531.796 66.0762C531.796 64.7754 531.139 63.7734 529.915 63.7734C528.696 63.7734 527.928 64.7637 527.928 66.0762C527.928 67.3887 528.696 68.3848 529.915 68.3848ZM535.264 69.0879C534.432 69.0879 534.186 68.5898 534.186 67.7637V60.7207H534.96V67.5645C534.96 68.0156 535.018 68.3906 535.604 68.3906C535.727 68.3906 535.903 68.3672 536.079 68.332L536.091 68.9941C535.833 69.0469 535.516 69.0879 535.264 69.0879ZM539.747 69.0879C538.083 69.0879 536.923 67.7461 536.923 66.0586C536.923 64.3887 538.083 63.0527 539.747 63.0527C541.417 63.0527 542.594 64.3887 542.594 66.0586C542.594 67.7402 541.417 69.0879 539.747 69.0879ZM539.747 68.4141C541.024 68.4141 541.792 67.3535 541.792 66.0586C541.792 64.7695 541.024 63.7324 539.747 63.7324C538.481 63.7324 537.725 64.7637 537.725 66.0586C537.725 67.3594 538.481 68.4141 539.747 68.4141ZM544.188 69V63.1465H544.944V64.3711C545.237 63.4688 546.051 63.0527 546.749 63.0527C547.077 63.0527 547.411 63.1465 547.663 63.334L547.311 63.9785C547.106 63.8672 546.878 63.8086 546.643 63.8086C545.864 63.8086 544.938 64.4238 544.938 66.0117V69H544.188ZM548.846 61.9219V60.7207H549.655V61.9219H548.846ZM548.864 69V63.1465H549.632V69H548.864ZM551.735 69V63.1465H552.509V64.1426C552.878 63.4277 553.569 63.0527 554.343 63.0527C555.708 63.0527 556.352 64.0254 556.376 65.291V69H555.602V65.4727C555.602 64.4062 555.098 63.7734 554.137 63.7734C553.147 63.7734 552.509 64.4004 552.509 65.5371V69H551.735ZM561.169 68.2266C562.264 68.2266 563.026 68.7539 563.026 69.8203C563.026 70.9453 562.159 71.6777 560.553 71.6777C558.925 71.6777 557.764 70.9922 557.764 69.7383C557.764 69.5977 557.782 69.4688 557.817 69.3457L558.737 68.7129C558.321 68.5195 557.975 68.1445 557.964 67.541C557.952 67.0957 558.145 66.6855 558.608 66.3457C558.321 66.0059 558.157 65.5664 558.157 65.0684C558.157 63.8848 559.089 63.0527 560.343 63.0527C560.952 63.0527 561.462 63.2461 561.837 63.5742L562.733 62.7832L563.132 63.2871L562.241 64.0605C562.417 64.3594 562.51 64.7168 562.51 65.0977C562.51 66.293 561.573 67.0781 560.337 67.0781C559.856 67.0781 559.423 66.9609 559.077 66.7441C558.778 66.9668 558.678 67.2012 558.69 67.4707C558.702 68.0508 559.218 68.2266 559.856 68.2266H561.169ZM560.354 63.6797C559.493 63.6797 558.93 64.2773 558.93 65.0801C558.93 65.8828 559.481 66.4512 560.348 66.4512C561.216 66.4512 561.76 65.8887 561.76 65.0859C561.76 64.2715 561.216 63.6797 560.354 63.6797ZM560.507 71.0684C561.52 71.0684 562.282 70.7227 562.282 69.8848C562.282 69.2285 561.79 68.8828 560.87 68.8828H559.481C559.399 68.8828 559.311 68.877 559.223 68.8652L558.491 69.5625V69.7266C558.491 70.3828 558.907 71.0684 560.507 71.0684ZM569.36 69.0879C568.323 69.0879 567.766 68.4785 567.766 67.3594V63.8027H566.794V63.1465H567.778V61.4531L568.54 60.8848V63.1465H570.18V63.8027H568.54V67.2363C568.54 68.0625 568.868 68.4023 569.489 68.4023C569.747 68.4023 570.01 68.3262 570.175 68.2617L570.186 68.9707C570.005 69.0293 569.688 69.0879 569.36 69.0879ZM571.563 69V60.7207H572.348V64.1426C572.718 63.4277 573.397 63.0527 574.171 63.0527C575.536 63.0527 576.192 64.0254 576.216 65.291V69H575.43V65.4727C575.43 64.4297 575.02 63.7617 573.995 63.7617C572.952 63.7617 572.348 64.541 572.348 65.6602V69H571.563ZM580.417 69.0879C578.653 69.0879 577.686 67.7812 577.686 66.0996C577.686 64.4473 578.618 63.0527 580.323 63.0527C582.233 63.0527 582.86 64.5996 582.86 65.7598C582.86 65.959 582.843 66.1934 582.819 66.2812H578.507C578.565 67.5879 579.245 68.3848 580.423 68.3848C581.126 68.3848 581.612 68.1914 582.139 67.6406L582.678 68.1152C582.022 68.8008 581.36 69.0879 580.417 69.0879ZM578.507 65.707H582.087C582.093 65.584 582.093 65.4551 582.075 65.3379C582.005 64.5469 581.477 63.7148 580.317 63.7148C579.251 63.7148 578.606 64.5352 578.507 65.707ZM589.68 69.0879C587.999 69.0879 587.044 67.7402 587.044 66.082C587.044 64.5469 587.911 63.0527 589.669 63.0527C590.735 63.0527 591.591 63.6094 592.024 64.6641L591.286 64.9512C591.01 64.2188 590.419 63.7617 589.669 63.7617C588.409 63.7617 587.829 64.8926 587.829 66.082C587.829 67.2891 588.409 68.3848 589.675 68.3848C590.436 68.3848 591.022 67.9336 591.257 67.207L591.966 67.4766C591.608 68.4961 590.759 69.0879 589.68 69.0879ZM595.727 69.0879C594.063 69.0879 592.903 67.7461 592.903 66.0586C592.903 64.3887 594.063 63.0527 595.727 63.0527C597.397 63.0527 598.575 64.3887 598.575 66.0586C598.575 67.7402 597.397 69.0879 595.727 69.0879ZM595.727 68.4141C597.005 68.4141 597.772 67.3535 597.772 66.0586C597.772 64.7695 597.005 63.7324 595.727 63.7324C594.462 63.7324 593.706 64.7637 593.706 66.0586C593.706 67.3594 594.462 68.4141 595.727 68.4141ZM600.169 69V63.1465H600.925V64.3711C601.218 63.4688 602.032 63.0527 602.729 63.0527C603.057 63.0527 603.391 63.1465 603.643 63.334L603.292 63.9785C603.087 63.8672 602.858 63.8086 602.624 63.8086C601.844 63.8086 600.919 64.4238 600.919 66.0117V69H600.169ZM604.856 71.4258V63.1465H605.653V64.4414C606.022 63.5742 606.831 63.0527 607.757 63.0527C609.327 63.0527 610.235 64.418 610.235 66.0762C610.235 67.7402 609.327 69.0879 607.745 69.0879C606.813 69.0879 606.022 68.5664 605.653 67.7109V71.4258H604.856ZM607.575 68.3848C608.8 68.3848 609.456 67.3711 609.456 66.0762C609.456 64.7754 608.8 63.7734 607.575 63.7734C606.356 63.7734 605.589 64.7637 605.589 66.0762C605.589 67.3887 606.356 68.3848 607.575 68.3848ZM613.71 69.0879C612.339 69.0879 611.706 68.1152 611.682 66.8496V63.1465H612.45V66.6738C612.45 67.7402 612.954 68.3672 613.915 68.3672C614.899 68.3672 615.544 67.7461 615.544 66.6035V63.1465H616.311V69H615.544V68.0039C615.18 68.7188 614.483 69.0879 613.71 69.0879ZM620.155 69.0879C619.001 69.0879 618.081 68.4375 617.782 67.5469L618.409 67.2715C618.632 67.8984 619.212 68.4375 620.12 68.4375C621.005 68.4375 621.473 67.9746 621.473 67.3594C621.473 65.7715 618.075 66.7793 618.075 64.6641C618.075 63.6211 618.96 63.0527 620.079 63.0527C621.005 63.0527 621.725 63.5039 622.135 64.2773L621.538 64.5996C621.257 64.0723 620.77 63.6797 620.055 63.6797C619.3 63.6797 618.819 64.043 618.819 64.5645C618.819 66.0176 622.235 65.0801 622.235 67.3242C622.235 68.4961 621.298 69.0879 620.155 69.0879Z" fill="black"/>
<rect x="362" y="140" width="121.042" height="45" rx="6" fill="#989292"/>
<rect x="452.5" y="140.5" width="233" height="44" rx="5.5" fill="white" stroke="#989292" stroke-dasharray="1 1"/>
<path d="M373.209 169.363V161.084H374.006V162.379C374.375 161.512 375.184 160.99 376.109 160.99C377.68 160.99 378.588 162.355 378.588 164.014C378.588 165.678 377.68 167.025 376.098 167.025C375.166 167.025 374.375 166.504 374.006 165.648V169.363H373.209ZM375.928 166.322C377.152 166.322 377.809 165.309 377.809 164.014C377.809 162.713 377.152 161.711 375.928 161.711C374.709 161.711 373.941 162.701 373.941 164.014C373.941 165.326 374.709 166.322 375.928 166.322ZM380.24 166.938V158.658H381.025V162.08C381.395 161.365 382.074 160.99 382.848 160.99C384.213 160.99 384.869 161.963 384.893 163.229V166.938H384.107V163.41C384.107 162.367 383.697 161.699 382.672 161.699C381.629 161.699 381.025 162.479 381.025 163.598V166.938H380.24ZM389.094 167.025C387.33 167.025 386.363 165.719 386.363 164.037C386.363 162.385 387.295 160.99 389 160.99C390.91 160.99 391.537 162.537 391.537 163.697C391.537 163.896 391.52 164.131 391.496 164.219H387.184C387.242 165.525 387.922 166.322 389.1 166.322C389.803 166.322 390.289 166.129 390.816 165.578L391.355 166.053C390.699 166.738 390.037 167.025 389.094 167.025ZM387.184 163.645H390.764C390.77 163.521 390.77 163.393 390.752 163.275C390.682 162.484 390.154 161.652 388.994 161.652C387.928 161.652 387.283 162.473 387.184 163.645ZM393.131 166.938V161.084H393.904V162.08C394.273 161.365 394.965 160.99 395.738 160.99C397.104 160.99 397.748 161.963 397.771 163.229V166.938H396.998V163.41C396.998 162.344 396.494 161.711 395.533 161.711C394.543 161.711 393.904 162.338 393.904 163.475V166.938H393.131ZM402.025 167.025C400.361 167.025 399.201 165.684 399.201 163.996C399.201 162.326 400.361 160.99 402.025 160.99C403.695 160.99 404.873 162.326 404.873 163.996C404.873 165.678 403.695 167.025 402.025 167.025ZM402.025 166.352C403.303 166.352 404.07 165.291 404.07 163.996C404.07 162.707 403.303 161.67 402.025 161.67C400.76 161.67 400.004 162.701 400.004 163.996C400.004 165.297 400.76 166.352 402.025 166.352ZM406.473 166.938L406.467 161.084H407.217V162.104C407.539 161.354 408.195 160.99 408.98 160.99C409.842 160.99 410.521 161.389 410.785 162.285C411.131 161.43 411.852 160.99 412.719 160.99C414.125 160.99 414.734 162.016 414.734 163.516V166.938H413.961V163.609C413.961 162.396 413.574 161.717 412.578 161.717C411.605 161.717 410.99 162.449 410.99 163.469V166.938H410.217V163.398C410.217 162.361 409.801 161.717 408.84 161.717C407.861 161.717 407.246 162.449 407.246 163.469V166.938H406.473ZM418.941 167.025C417.178 167.025 416.211 165.719 416.211 164.037C416.211 162.385 417.143 160.99 418.848 160.99C420.758 160.99 421.385 162.537 421.385 163.697C421.385 163.896 421.367 164.131 421.344 164.219H417.031C417.09 165.525 417.77 166.322 418.947 166.322C419.65 166.322 420.137 166.129 420.664 165.578L421.203 166.053C420.547 166.738 419.885 167.025 418.941 167.025ZM417.031 163.645H420.611C420.617 163.521 420.617 163.393 420.6 163.275C420.529 162.484 420.002 161.652 418.842 161.652C417.775 161.652 417.131 162.473 417.031 163.645ZM422.979 166.938V161.084H423.752V162.08C424.121 161.365 424.812 160.99 425.586 160.99C426.951 160.99 427.596 161.963 427.619 163.229V166.938H426.846V163.41C426.846 162.344 426.342 161.711 425.381 161.711C424.391 161.711 423.752 162.338 423.752 163.475V166.938H422.979ZM431.873 167.025C430.209 167.025 429.049 165.684 429.049 163.996C429.049 162.326 430.209 160.99 431.873 160.99C433.543 160.99 434.721 162.326 434.721 163.996C434.721 165.678 433.543 167.025 431.873 167.025ZM431.873 166.352C433.15 166.352 433.918 165.291 433.918 163.996C433.918 162.707 433.15 161.67 431.873 161.67C430.607 161.67 429.852 162.701 429.852 163.996C429.852 165.297 430.607 166.352 431.873 166.352ZM436.314 166.938V161.084H437.088V162.08C437.457 161.365 438.148 160.99 438.922 160.99C440.287 160.99 440.932 161.963 440.955 163.229V166.938H440.182V163.41C440.182 162.344 439.678 161.711 438.717 161.711C437.727 161.711 437.088 162.338 437.088 163.475V166.938H436.314Z" fill="white"/>
<rect x="362" y="276" width="121.042" height="45" rx="6" fill="#989292"/>
<rect x="452.5" y="276.5" width="233" height="44" rx="5.5" fill="white" stroke="#989292" stroke-dasharray="1 1"/>
<path d="M385.666 305.363V297.084H386.463V298.379C386.832 297.512 387.641 296.99 388.566 296.99C390.137 296.99 391.045 298.355 391.045 300.014C391.045 301.678 390.137 303.025 388.555 303.025C387.623 303.025 386.832 302.504 386.463 301.648V305.363H385.666ZM388.385 302.322C389.609 302.322 390.266 301.309 390.266 300.014C390.266 298.713 389.609 297.711 388.385 297.711C387.166 297.711 386.398 298.701 386.398 300.014C386.398 301.326 387.166 302.322 388.385 302.322ZM392.686 302.938V297.084H393.441V298.309C393.734 297.406 394.549 296.99 395.246 296.99C395.574 296.99 395.908 297.084 396.16 297.271L395.809 297.916C395.604 297.805 395.375 297.746 395.141 297.746C394.361 297.746 393.436 298.361 393.436 299.949V302.938H392.686ZM399.236 303.025C397.572 303.025 396.412 301.684 396.412 299.996C396.412 298.326 397.572 296.99 399.236 296.99C400.906 296.99 402.084 298.326 402.084 299.996C402.084 301.678 400.906 303.025 399.236 303.025ZM399.236 302.352C400.514 302.352 401.281 301.291 401.281 299.996C401.281 298.707 400.514 297.67 399.236 297.67C397.971 297.67 397.215 298.701 397.215 299.996C397.215 301.297 397.971 302.352 399.236 302.352ZM406.59 303.025C405.664 303.025 404.855 302.504 404.486 301.643V302.938H403.689V294.658H404.486V298.373C404.855 297.512 405.646 296.99 406.578 296.99C408.16 296.99 409.068 298.344 409.068 300.002C409.068 301.666 408.16 303.025 406.59 303.025ZM406.408 302.305C407.633 302.305 408.289 301.303 408.289 300.002C408.289 298.707 407.633 297.699 406.408 297.699C405.189 297.699 404.422 298.695 404.422 300.002C404.422 301.32 405.189 302.305 406.408 302.305ZM411.758 303.025C410.926 303.025 410.68 302.527 410.68 301.701V294.658H411.453V301.502C411.453 301.953 411.512 302.328 412.098 302.328C412.221 302.328 412.396 302.305 412.572 302.27L412.584 302.932C412.326 302.984 412.01 303.025 411.758 303.025ZM416.188 303.025C414.424 303.025 413.457 301.719 413.457 300.037C413.457 298.385 414.389 296.99 416.094 296.99C418.004 296.99 418.631 298.537 418.631 299.697C418.631 299.896 418.613 300.131 418.59 300.219H414.277C414.336 301.525 415.016 302.322 416.193 302.322C416.896 302.322 417.383 302.129 417.91 301.578L418.449 302.053C417.793 302.738 417.131 303.025 416.188 303.025ZM414.277 299.645H417.857C417.863 299.521 417.863 299.393 417.846 299.275C417.775 298.484 417.248 297.652 416.088 297.652C415.021 297.652 414.377 298.473 414.277 299.645ZM420.23 302.938L420.225 297.084H420.975V298.104C421.297 297.354 421.953 296.99 422.738 296.99C423.6 296.99 424.279 297.389 424.543 298.285C424.889 297.43 425.609 296.99 426.477 296.99C427.883 296.99 428.492 298.016 428.492 299.516V302.938H427.719V299.609C427.719 298.396 427.332 297.717 426.336 297.717C425.363 297.717 424.748 298.449 424.748 299.469V302.938H423.975V299.398C423.975 298.361 423.559 297.717 422.598 297.717C421.619 297.717 421.004 298.449 421.004 299.469V302.938H420.23Z" fill="white"/>
<rect x="362" y="208" width="121.042" height="45" rx="6" fill="#989292"/>
<rect x="452.5" y="208.5" width="233" height="44" rx="5.5" fill="white" stroke="#989292" stroke-dasharray="1 1"/>
<path d="M387.518 238.301V230.021H388.314V231.316C388.684 230.449 389.492 229.928 390.418 229.928C391.988 229.928 392.896 231.293 392.896 232.951C392.896 234.615 391.988 235.963 390.406 235.963C389.475 235.963 388.684 235.441 388.314 234.586V238.301H387.518ZM390.236 235.26C391.461 235.26 392.117 234.246 392.117 232.951C392.117 231.65 391.461 230.648 390.236 230.648C389.018 230.648 388.25 231.639 388.25 232.951C388.25 234.264 389.018 235.26 390.236 235.26ZM394.537 235.875V230.021H395.293V231.246C395.586 230.344 396.4 229.928 397.098 229.928C397.426 229.928 397.76 230.021 398.012 230.209L397.66 230.854C397.455 230.742 397.227 230.684 396.992 230.684C396.213 230.684 395.287 231.299 395.287 232.887V235.875H394.537ZM401.088 235.963C399.424 235.963 398.264 234.621 398.264 232.934C398.264 231.264 399.424 229.928 401.088 229.928C402.758 229.928 403.936 231.264 403.936 232.934C403.936 234.615 402.758 235.963 401.088 235.963ZM401.088 235.289C402.365 235.289 403.133 234.229 403.133 232.934C403.133 231.645 402.365 230.607 401.088 230.607C399.822 230.607 399.066 231.639 399.066 232.934C399.066 234.234 399.822 235.289 401.088 235.289ZM407.686 235.963C406.004 235.963 405.049 234.615 405.049 232.957C405.049 231.422 405.916 229.928 407.674 229.928C408.74 229.928 409.596 230.484 410.029 231.539L409.291 231.826C409.016 231.094 408.424 230.637 407.674 230.637C406.414 230.637 405.834 231.768 405.834 232.957C405.834 234.164 406.414 235.26 407.68 235.26C408.441 235.26 409.027 234.809 409.262 234.082L409.971 234.352C409.613 235.371 408.764 235.963 407.686 235.963ZM413.68 235.963C411.916 235.963 410.949 234.656 410.949 232.975C410.949 231.322 411.881 229.928 413.586 229.928C415.496 229.928 416.123 231.475 416.123 232.635C416.123 232.834 416.105 233.068 416.082 233.156H411.77C411.828 234.463 412.508 235.26 413.686 235.26C414.389 235.26 414.875 235.066 415.402 234.516L415.941 234.99C415.285 235.676 414.623 235.963 413.68 235.963ZM411.77 232.582H415.35C415.355 232.459 415.355 232.33 415.338 232.213C415.268 231.422 414.74 230.59 413.58 230.59C412.514 230.59 411.869 231.41 411.77 232.582ZM419.457 235.963C418.303 235.963 417.383 235.312 417.084 234.422L417.711 234.146C417.934 234.773 418.514 235.312 419.422 235.312C420.307 235.312 420.775 234.85 420.775 234.234C420.775 232.646 417.377 233.654 417.377 231.539C417.377 230.496 418.262 229.928 419.381 229.928C420.307 229.928 421.027 230.379 421.438 231.152L420.84 231.475C420.559 230.947 420.072 230.555 419.357 230.555C418.602 230.555 418.121 230.918 418.121 231.439C418.121 232.893 421.537 231.955 421.537 234.199C421.537 235.371 420.6 235.963 419.457 235.963ZM424.895 235.963C423.74 235.963 422.82 235.312 422.521 234.422L423.148 234.146C423.371 234.773 423.951 235.312 424.859 235.312C425.744 235.312 426.213 234.85 426.213 234.234C426.213 232.646 422.814 233.654 422.814 231.539C422.814 230.496 423.699 229.928 424.818 229.928C425.744 229.928 426.465 230.379 426.875 231.152L426.277 231.475C425.996 230.947 425.51 230.555 424.795 230.555C424.039 230.555 423.559 230.918 423.559 231.439C423.559 232.893 426.975 231.955 426.975 234.199C426.975 235.371 426.037 235.963 424.895 235.963Z" fill="white"/>
<line x1="492" y1="297" x2="492" y2="78" stroke="black" stroke-width="2"/>
<circle cx="491.5" cy="156.5" r="7.5" fill="black"/>
<circle cx="491.5" cy="224.5" r="7.5" fill="black"/>
<circle cx="491.5" cy="291.5" r="7.5" fill="black"/>
<line x1="568" y1="297" x2="568" y2="78" stroke="black" stroke-width="2"/>
<circle cx="567.5" cy="156.5" r="7.5" fill="black"/>
<circle cx="567.5" cy="224.5" r="7.5" fill="black"/>
<circle cx="567.5" cy="291.5" r="7.5" fill="black"/>
<line x1="644" y1="297" x2="644" y2="78" stroke="black" stroke-width="2"/>
<circle cx="644.5" cy="156.5" r="7.5" fill="black"/>
<circle cx="644.5" cy="224.5" r="7.5" fill="black"/>
<circle cx="644.5" cy="291.5" r="7.5" fill="black"/>
<rect x="465" y="97" width="53" height="25" rx="6" fill="black"/>
<path d="M472.312 113V104.721H474.545C477.287 104.721 478.77 106.227 478.77 108.922C478.77 111.512 477.252 113 474.533 113H472.312ZM473.115 112.256H474.463C476.666 112.256 477.967 111.189 477.967 108.893C477.967 106.584 476.854 105.465 474.533 105.465H473.115V112.256ZM484.09 113.088C481.512 113.088 480.299 111.113 480.299 108.857C480.299 106.602 481.512 104.633 484.09 104.633C486.686 104.633 487.893 106.602 487.893 108.857C487.893 111.113 486.686 113.088 484.09 113.088ZM484.09 112.367C486.17 112.367 487.049 110.756 487.049 108.857C487.049 106.965 486.17 105.348 484.09 105.348C482.027 105.348 481.143 106.965 481.143 108.857C481.143 110.756 482.027 112.367 484.09 112.367ZM492.768 113.088C490.775 113.088 489.814 111.887 489.814 109.895V104.721H490.617V109.807C490.617 111.418 491.256 112.309 492.768 112.309C494.291 112.309 494.936 111.406 494.936 109.777V104.721H495.738V109.83C495.738 111.869 494.766 113.088 492.768 113.088ZM498.199 113V104.721H500.707C502.096 104.721 503.186 105.354 503.186 106.848C503.186 107.691 502.688 108.365 502.066 108.617C502.98 108.84 503.59 109.678 503.59 110.709C503.59 112.197 502.494 113 500.947 113H498.199ZM499.002 108.348H500.959C501.773 108.348 502.441 107.844 502.441 106.895C502.441 105.939 501.809 105.453 500.719 105.453H499.002V108.348ZM499.002 112.232H500.959C502.16 112.232 502.799 111.693 502.799 110.621C502.799 109.684 502.189 109.051 501.17 109.051H499.002V112.232ZM507.633 113V105.447H504.744V104.721H511.324V105.447H508.436V113H507.633Z" fill="white"/>
<rect x="541" y="97" width="53" height="25" rx="6" fill="black"/>
<path d="M552.84 113.076C551.41 113.076 550.197 112.273 549.951 110.803L550.748 110.604C550.912 111.752 551.744 112.355 552.852 112.355C553.971 112.355 554.697 111.688 554.697 110.791C554.697 108.617 550.443 109.326 550.443 106.742C550.443 105.453 551.486 104.633 552.787 104.633C553.801 104.633 554.604 105.037 555.131 105.963L554.463 106.379C554.082 105.688 553.525 105.348 552.758 105.348C551.896 105.348 551.246 105.922 551.246 106.707C551.246 108.676 555.5 107.996 555.5 110.727C555.5 112.145 554.34 113.076 552.84 113.076ZM557.445 113V104.721H559.719C561.389 104.721 562.502 105.582 562.502 107.064C562.502 108.547 561.406 109.379 559.719 109.379H558.242V113H557.445ZM558.242 108.617H559.719C561.043 108.617 561.705 108.066 561.705 107.064C561.705 106.062 561.02 105.477 559.719 105.477H558.242V108.617ZM562.748 113L565.824 104.721H566.498L569.568 113H568.695L567.992 111.002H564.342L563.627 113H562.748ZM564.594 110.305H567.74L566.164 105.846L564.594 110.305ZM574.139 113.088C571.666 113.088 570.389 111.301 570.389 108.846C570.389 106.391 571.666 104.621 574.186 104.621C575.826 104.621 576.951 105.383 577.561 106.859L576.805 107.164C576.389 105.928 575.51 105.395 574.18 105.395C572.182 105.395 571.186 106.754 571.186 108.816C571.186 110.791 572.064 112.32 574.139 112.32C575.439 112.32 576.301 111.764 576.822 110.527L577.572 110.832C576.922 112.309 575.756 113.088 574.139 113.088ZM579.453 113V104.721H584.867V105.465H580.256V108.471H584.404V109.215H580.256V112.238H584.867V113H579.453Z" fill="white"/>
<rect x="618" y="97" width="53" height="25" rx="6" fill="black"/>
<path d="M628.168 113V104.721H633.764V105.465H628.971V108.471H633.178V109.215H628.971V113H628.168ZM638.738 113.088C636.16 113.088 634.947 111.113 634.947 108.857C634.947 106.602 636.16 104.633 638.738 104.633C641.334 104.633 642.541 106.602 642.541 108.857C642.541 111.113 641.334 113.088 638.738 113.088ZM638.738 112.367C640.818 112.367 641.697 110.756 641.697 108.857C641.697 106.965 640.818 105.348 638.738 105.348C636.676 105.348 635.791 106.965 635.791 108.857C635.791 110.756 636.676 112.367 638.738 112.367ZM644.633 113V104.721H646.953C648.547 104.721 649.707 105.553 649.707 107.029C649.707 108.148 649.027 108.904 647.955 109.162L650.246 113H649.332L647.17 109.244C647 109.256 646.807 109.262 646.613 109.262H645.436V113H644.633ZM645.441 108.594H647.018C648.225 108.576 648.904 108.025 648.904 107.041C648.904 106.033 648.172 105.447 646.959 105.447H645.441V108.594ZM658.713 104.721H659.82V113H659.047V105.775L656.322 112.32H655.537L652.812 105.764V113H652.039V104.721H653.152L655.936 111.424L658.713 104.721Z" fill="white"/>
<rect x="479.5" y="156.5" width="25" height="18" rx="5.5" fill="white" stroke="black"/>
<path d="M484.094 168V161.101H488.757V161.721H484.763V164.226H488.269V164.846H484.763V168H484.094ZM491.608 168.073C490.222 168.073 489.255 166.955 489.255 165.549C489.255 164.157 490.222 163.044 491.608 163.044C493 163.044 493.982 164.157 493.982 165.549C493.982 166.95 493 168.073 491.608 168.073ZM491.608 167.512C492.673 167.512 493.313 166.628 493.313 165.549C493.313 164.475 492.673 163.61 491.608 163.61C490.554 163.61 489.924 164.47 489.924 165.549C489.924 166.633 490.554 167.512 491.608 167.512ZM497.683 167.355C498.596 167.355 499.231 167.795 499.231 168.684C499.231 169.621 498.508 170.231 497.17 170.231C495.813 170.231 494.846 169.66 494.846 168.615C494.846 168.498 494.86 168.391 494.89 168.288L495.656 167.761C495.31 167.6 495.022 167.287 495.012 166.784C495.002 166.413 495.163 166.071 495.549 165.788C495.31 165.505 495.173 165.139 495.173 164.724C495.173 163.737 495.949 163.044 496.994 163.044C497.502 163.044 497.927 163.205 498.239 163.479L498.986 162.819L499.318 163.239L498.576 163.884C498.723 164.133 498.801 164.431 498.801 164.748C498.801 165.744 498.02 166.398 496.989 166.398C496.589 166.398 496.228 166.301 495.94 166.12C495.69 166.306 495.607 166.501 495.617 166.726C495.627 167.209 496.057 167.355 496.589 167.355H497.683ZM497.004 163.566C496.286 163.566 495.817 164.064 495.817 164.733C495.817 165.402 496.276 165.876 496.999 165.876C497.722 165.876 498.176 165.407 498.176 164.738C498.176 164.06 497.722 163.566 497.004 163.566ZM497.131 169.724C497.976 169.724 498.61 169.436 498.61 168.737C498.61 168.19 498.2 167.902 497.434 167.902H496.276C496.208 167.902 496.135 167.897 496.062 167.888L495.451 168.469V168.605C495.451 169.152 495.798 169.724 497.131 169.724Z" fill="black"/>
<rect x="541.5" y="156.5" width="54" height="18" rx="5.5" fill="white" stroke="black"/>
<path d="M548.094 168V161.101H548.763V167.365H551.922V168H548.094ZM555.023 168.073C553.636 168.073 552.669 166.955 552.669 165.549C552.669 164.157 553.636 163.044 555.023 163.044C556.414 163.044 557.396 164.157 557.396 165.549C557.396 166.95 556.414 168.073 555.023 168.073ZM555.023 167.512C556.087 167.512 556.727 166.628 556.727 165.549C556.727 164.475 556.087 163.61 555.023 163.61C553.968 163.61 553.338 164.47 553.338 165.549C553.338 166.633 553.968 167.512 555.023 167.512ZM560.521 168.073C559.119 168.073 558.323 166.95 558.323 165.568C558.323 164.289 559.046 163.044 560.511 163.044C561.399 163.044 562.112 163.508 562.474 164.387L561.858 164.626C561.629 164.016 561.136 163.635 560.511 163.635C559.461 163.635 558.978 164.577 558.978 165.568C558.978 166.574 559.461 167.487 560.516 167.487C561.15 167.487 561.639 167.111 561.834 166.506L562.425 166.73C562.127 167.58 561.419 168.073 560.521 168.073ZM565.291 163.044C566.541 163.044 567.234 163.796 567.234 165.021V168H566.697L566.653 167.009C566.287 167.717 565.608 168.073 564.881 168.073C563.89 168.073 563.196 167.521 563.196 166.584C563.196 165.593 563.982 165.192 565.242 165.192H566.648V165.134C566.648 164.104 566.273 163.615 565.296 163.615C564.647 163.615 564.217 163.908 563.88 164.411L563.387 164.05C563.86 163.396 564.427 163.044 565.291 163.044ZM565.003 167.521C565.853 167.521 566.424 166.97 566.648 166.169V165.671H565.276C564.315 165.671 563.856 166.018 563.856 166.604C563.856 167.16 564.271 167.521 565.003 167.521ZM570.315 168.073C569.451 168.073 568.987 167.565 568.987 166.633V163.669H568.177V163.122H568.997V161.711L569.632 161.237V163.122H570.999V163.669H569.632V166.53C569.632 167.219 569.905 167.502 570.423 167.502C570.638 167.502 570.857 167.438 570.994 167.385L571.004 167.976C570.853 168.024 570.589 168.073 570.315 168.073ZM572.264 162.102V161.101H572.938V162.102H572.264ZM572.278 168V163.122H572.918V168H572.278ZM576.595 168.073C575.208 168.073 574.241 166.955 574.241 165.549C574.241 164.157 575.208 163.044 576.595 163.044C577.986 163.044 578.968 164.157 578.968 165.549C578.968 166.95 577.986 168.073 576.595 168.073ZM576.595 167.512C577.659 167.512 578.299 166.628 578.299 165.549C578.299 164.475 577.659 163.61 576.595 163.61C575.54 163.61 574.91 164.47 574.91 165.549C574.91 166.633 575.54 167.512 576.595 167.512ZM580.296 168V163.122H580.94V163.952C581.248 163.356 581.824 163.044 582.469 163.044C583.607 163.044 584.144 163.854 584.163 164.909V168H583.519V165.061C583.519 164.172 583.099 163.645 582.298 163.645C581.473 163.645 580.94 164.167 580.94 165.114V168H580.296ZM587.234 168.073C586.273 168.073 585.506 167.531 585.257 166.789L585.779 166.56C585.965 167.082 586.448 167.531 587.205 167.531C587.942 167.531 588.333 167.146 588.333 166.633C588.333 165.31 585.501 166.149 585.501 164.387C585.501 163.518 586.238 163.044 587.171 163.044C587.942 163.044 588.543 163.42 588.885 164.064L588.387 164.333C588.152 163.894 587.747 163.566 587.151 163.566C586.522 163.566 586.121 163.869 586.121 164.304C586.121 165.515 588.968 164.733 588.968 166.604C588.968 167.58 588.187 168.073 587.234 168.073Z" fill="black"/>
<rect x="629.5" y="156.5" width="28" height="18" rx="5.5" fill="white" stroke="black"/>
<path d="M635.094 168V161.101H635.763V167.365H638.922V168H635.094ZM640.104 162.102V161.101H640.777V162.102H640.104ZM640.118 168V163.122H640.758V168H640.118ZM643.961 168.073C642.999 168.073 642.232 167.531 641.983 166.789L642.506 166.56C642.691 167.082 643.175 167.531 643.932 167.531C644.669 167.531 645.06 167.146 645.06 166.633C645.06 165.31 642.228 166.149 642.228 164.387C642.228 163.518 642.965 163.044 643.897 163.044C644.669 163.044 645.27 163.42 645.611 164.064L645.113 164.333C644.879 163.894 644.474 163.566 643.878 163.566C643.248 163.566 642.848 163.869 642.848 164.304C642.848 165.515 645.694 164.733 645.694 166.604C645.694 167.58 644.913 168.073 643.961 168.073ZM648.526 168.073C647.662 168.073 647.198 167.565 647.198 166.633V163.669H646.388V163.122H647.208V161.711L647.843 161.237V163.122H649.21V163.669H647.843V166.53C647.843 167.219 648.116 167.502 648.634 167.502C648.849 167.502 649.068 167.438 649.205 167.385L649.215 167.976C649.063 168.024 648.8 168.073 648.526 168.073ZM652.018 168.073C651.056 168.073 650.289 167.531 650.04 166.789L650.562 166.56C650.748 167.082 651.231 167.531 651.988 167.531C652.726 167.531 653.116 167.146 653.116 166.633C653.116 165.31 650.284 166.149 650.284 164.387C650.284 163.518 651.021 163.044 651.954 163.044C652.726 163.044 653.326 163.42 653.668 164.064L653.17 164.333C652.936 163.894 652.53 163.566 651.935 163.566C651.305 163.566 650.904 163.869 650.904 164.304C650.904 165.515 653.751 164.733 653.751 166.604C653.751 167.58 652.97 168.073 652.018 168.073Z" fill="black"/>
<rect x="464.5" y="224.5" width="53" height="18" rx="5.5" fill="white" stroke="black"/>
<path d="M471.84 236V229.101H473.7C475.985 229.101 477.221 230.355 477.221 232.602C477.221 234.76 475.956 236 473.69 236H471.84ZM472.509 235.38H473.632C475.468 235.38 476.552 234.491 476.552 232.577C476.552 230.653 475.624 229.721 473.69 229.721H472.509V235.38ZM480.673 236.073C479.286 236.073 478.319 234.955 478.319 233.549C478.319 232.157 479.286 231.044 480.673 231.044C482.064 231.044 483.046 232.157 483.046 233.549C483.046 234.95 482.064 236.073 480.673 236.073ZM480.673 235.512C481.737 235.512 482.377 234.628 482.377 233.549C482.377 232.475 481.737 231.61 480.673 231.61C479.618 231.61 478.988 232.47 478.988 233.549C478.988 234.633 479.618 235.512 480.673 235.512ZM485.902 236.073C484.76 236.073 484.232 235.263 484.213 234.208V231.122H484.853V234.062C484.853 234.95 485.272 235.473 486.073 235.473C486.894 235.473 487.431 234.955 487.431 234.003V231.122H488.07V236H487.431V235.17C487.128 235.766 486.547 236.073 485.902 236.073ZM492.25 236.073C491.479 236.073 490.805 235.639 490.497 234.921V236H489.833V229.101H490.497V232.196C490.805 231.479 491.464 231.044 492.24 231.044C493.559 231.044 494.315 232.172 494.315 233.554C494.315 234.94 493.559 236.073 492.25 236.073ZM492.099 235.473C493.119 235.473 493.666 234.638 493.666 233.554C493.666 232.475 493.119 231.635 492.099 231.635C491.083 231.635 490.443 232.465 490.443 233.554C490.443 234.652 491.083 235.473 492.099 235.473ZM497.128 236.073C496.264 236.073 495.8 235.565 495.8 234.633V231.669H494.989V231.122H495.81V229.711L496.444 229.237V231.122H497.812V231.669H496.444V234.53C496.444 235.219 496.718 235.502 497.235 235.502C497.45 235.502 497.67 235.438 497.807 235.385L497.816 235.976C497.665 236.024 497.401 236.073 497.128 236.073ZM499.076 230.102V229.101H499.75V230.102H499.076ZM499.091 236V231.122H499.73V236H499.091ZM501.483 236V231.122H502.128V231.952C502.436 231.356 503.012 231.044 503.656 231.044C504.794 231.044 505.331 231.854 505.351 232.909V236H504.706V233.061C504.706 232.172 504.286 231.645 503.485 231.645C502.66 231.645 502.128 232.167 502.128 233.114V236H501.483ZM509.345 235.355C510.258 235.355 510.893 235.795 510.893 236.684C510.893 237.621 510.17 238.231 508.832 238.231C507.475 238.231 506.508 237.66 506.508 236.615C506.508 236.498 506.522 236.391 506.552 236.288L507.318 235.761C506.972 235.6 506.684 235.287 506.674 234.784C506.664 234.413 506.825 234.071 507.211 233.788C506.972 233.505 506.835 233.139 506.835 232.724C506.835 231.737 507.611 231.044 508.656 231.044C509.164 231.044 509.589 231.205 509.901 231.479L510.648 230.819L510.98 231.239L510.238 231.884C510.385 232.133 510.463 232.431 510.463 232.748C510.463 233.744 509.682 234.398 508.651 234.398C508.251 234.398 507.89 234.301 507.602 234.12C507.353 234.306 507.27 234.501 507.279 234.726C507.289 235.209 507.719 235.355 508.251 235.355H509.345ZM508.666 231.566C507.948 231.566 507.479 232.064 507.479 232.733C507.479 233.402 507.938 233.876 508.661 233.876C509.384 233.876 509.838 233.407 509.838 232.738C509.838 232.06 509.384 231.566 508.666 231.566ZM508.793 237.724C509.638 237.724 510.272 237.436 510.272 236.737C510.272 236.19 509.862 235.902 509.096 235.902H507.938C507.87 235.902 507.797 235.897 507.724 235.888L507.113 236.469V236.605C507.113 237.152 507.46 237.724 508.793 237.724Z" fill="black"/>
<rect x="534.5" y="224.5" width="66" height="18" rx="5.5" fill="white" stroke="black"/>
<path d="M540.725 236V229.706H538.317V229.101H543.801V229.706H541.394V236H540.725ZM544.323 236V231.122H544.953V232.143C545.197 231.391 545.876 231.044 546.457 231.044C546.731 231.044 547.009 231.122 547.219 231.278L546.926 231.815C546.755 231.723 546.565 231.674 546.369 231.674C545.72 231.674 544.948 232.187 544.948 233.51V236H544.323ZM549.875 231.044C551.125 231.044 551.818 231.796 551.818 233.021V236H551.281L551.237 235.009C550.871 235.717 550.192 236.073 549.465 236.073C548.474 236.073 547.78 235.521 547.78 234.584C547.78 233.593 548.566 233.192 549.826 233.192H551.232V233.134C551.232 232.104 550.857 231.615 549.88 231.615C549.231 231.615 548.801 231.908 548.464 232.411L547.971 232.05C548.444 231.396 549.011 231.044 549.875 231.044ZM549.587 235.521C550.437 235.521 551.008 234.97 551.232 234.169V233.671H549.86C548.898 233.671 548.44 234.018 548.44 234.604C548.44 235.16 548.855 235.521 549.587 235.521ZM553.435 236V231.122H554.079V231.952C554.387 231.356 554.963 231.044 555.607 231.044C556.745 231.044 557.282 231.854 557.302 232.909V236H556.657V233.061C556.657 232.172 556.237 231.645 555.437 231.645C554.611 231.645 554.079 232.167 554.079 233.114V236H553.435ZM560.373 236.073C559.411 236.073 558.645 235.531 558.396 234.789L558.918 234.56C559.104 235.082 559.587 235.531 560.344 235.531C561.081 235.531 561.472 235.146 561.472 234.633C561.472 233.31 558.64 234.149 558.64 232.387C558.64 231.518 559.377 231.044 560.31 231.044C561.081 231.044 561.682 231.42 562.023 232.064L561.525 232.333C561.291 231.894 560.886 231.566 560.29 231.566C559.66 231.566 559.26 231.869 559.26 232.304C559.26 233.515 562.107 232.733 562.107 234.604C562.107 235.58 561.325 236.073 560.373 236.073ZM563.791 236V231.669H562.775V231.122H563.796V230.365C563.796 229.486 564.367 229.027 565.178 229.027C565.437 229.027 565.681 229.096 565.905 229.208L565.69 229.74C565.534 229.657 565.383 229.604 565.236 229.604C564.738 229.604 564.455 229.862 564.455 230.424V231.122H565.886V231.669H564.455V236H563.791ZM568.669 236.073C567.282 236.073 566.315 234.955 566.315 233.549C566.315 232.157 567.282 231.044 568.669 231.044C570.061 231.044 571.042 232.157 571.042 233.549C571.042 234.95 570.061 236.073 568.669 236.073ZM568.669 235.512C569.733 235.512 570.373 234.628 570.373 233.549C570.373 232.475 569.733 231.61 568.669 231.61C567.614 231.61 566.984 232.47 566.984 233.549C566.984 234.633 567.614 235.512 568.669 235.512ZM572.37 236V231.122H573V232.143C573.244 231.391 573.923 231.044 574.504 231.044C574.777 231.044 575.056 231.122 575.266 231.278L574.973 231.815C574.802 231.723 574.611 231.674 574.416 231.674C573.767 231.674 572.995 232.187 572.995 233.51V236H572.37ZM576.272 236L576.267 231.122H576.892V231.972C577.16 231.347 577.707 231.044 578.361 231.044C579.079 231.044 579.646 231.376 579.865 232.123C580.153 231.41 580.754 231.044 581.477 231.044C582.648 231.044 583.156 231.898 583.156 233.148V236H582.512V233.227C582.512 232.216 582.19 231.649 581.359 231.649C580.549 231.649 580.036 232.26 580.036 233.109V236H579.392V233.051C579.392 232.187 579.045 231.649 578.244 231.649C577.429 231.649 576.916 232.26 576.916 233.109V236H576.272ZM584.768 230.102V229.101H585.441V230.102H584.768ZM584.782 236V231.122H585.422V236H584.782ZM587.175 236V231.122H587.819V231.952C588.127 231.356 588.703 231.044 589.348 231.044C590.485 231.044 591.023 231.854 591.042 232.909V236H590.398V233.061C590.398 232.172 589.978 231.645 589.177 231.645C588.352 231.645 587.819 232.167 587.819 233.114V236H587.175ZM595.036 235.355C595.949 235.355 596.584 235.795 596.584 236.684C596.584 237.621 595.861 238.231 594.523 238.231C593.166 238.231 592.199 237.66 592.199 236.615C592.199 236.498 592.214 236.391 592.243 236.288L593.01 235.761C592.663 235.6 592.375 235.287 592.365 234.784C592.356 234.413 592.517 234.071 592.902 233.788C592.663 233.505 592.526 233.139 592.526 232.724C592.526 231.737 593.303 231.044 594.348 231.044C594.856 231.044 595.28 231.205 595.593 231.479L596.34 230.819L596.672 231.239L595.93 231.884C596.076 232.133 596.154 232.431 596.154 232.748C596.154 233.744 595.373 234.398 594.343 234.398C593.942 234.398 593.581 234.301 593.293 234.12C593.044 234.306 592.961 234.501 592.971 234.726C592.981 235.209 593.41 235.355 593.942 235.355H595.036ZM594.357 231.566C593.64 231.566 593.171 232.064 593.171 232.733C593.171 233.402 593.63 233.876 594.353 233.876C595.075 233.876 595.529 233.407 595.529 232.738C595.529 232.06 595.075 231.566 594.357 231.566ZM594.484 237.724C595.329 237.724 595.964 237.436 595.964 236.737C595.964 236.19 595.554 235.902 594.787 235.902H593.63C593.562 235.902 593.488 235.897 593.415 235.888L592.805 236.469V236.605C592.805 237.152 593.151 237.724 594.484 237.724Z" fill="black"/>
<rect x="616.5" y="224.5" width="55" height="18" rx="5.5" fill="white" stroke="black"/>
<path d="M623.774 236.073C621.714 236.073 620.649 234.584 620.649 232.538C620.649 230.492 621.714 229.018 623.813 229.018C625.181 229.018 626.118 229.652 626.626 230.883L625.996 231.137C625.649 230.106 624.917 229.662 623.809 229.662C622.144 229.662 621.313 230.795 621.313 232.514C621.313 234.159 622.046 235.434 623.774 235.434C624.858 235.434 625.576 234.97 626.011 233.939L626.636 234.193C626.094 235.424 625.122 236.073 623.774 236.073ZM629.712 236.073C628.325 236.073 627.358 234.955 627.358 233.549C627.358 232.157 628.325 231.044 629.712 231.044C631.104 231.044 632.085 232.157 632.085 233.549C632.085 234.95 631.104 236.073 629.712 236.073ZM629.712 235.512C630.776 235.512 631.416 234.628 631.416 233.549C631.416 232.475 630.776 231.61 629.712 231.61C628.657 231.61 628.027 232.47 628.027 233.549C628.027 234.633 628.657 235.512 629.712 235.512ZM633.418 236L633.413 231.122H634.038V231.972C634.307 231.347 634.854 231.044 635.508 231.044C636.226 231.044 636.792 231.376 637.012 232.123C637.3 231.41 637.9 231.044 638.623 231.044C639.795 231.044 640.303 231.898 640.303 233.148V236H639.658V233.227C639.658 232.216 639.336 231.649 638.506 231.649C637.695 231.649 637.183 232.26 637.183 233.109V236H636.538V233.051C636.538 232.187 636.191 231.649 635.391 231.649C634.575 231.649 634.062 232.26 634.062 233.109V236H633.418ZM644.355 236.073C643.584 236.073 642.91 235.639 642.603 234.921V236H641.938V229.101H642.603V232.196C642.91 231.479 643.569 231.044 644.346 231.044C645.664 231.044 646.421 232.172 646.421 233.554C646.421 234.94 645.664 236.073 644.355 236.073ZM644.204 235.473C645.225 235.473 645.771 234.638 645.771 233.554C645.771 232.475 645.225 231.635 644.204 231.635C643.188 231.635 642.549 232.465 642.549 233.554C642.549 234.652 643.188 235.473 644.204 235.473ZM647.773 230.102V229.101H648.447V230.102H647.773ZM647.788 236V231.122H648.428V236H647.788ZM650.181 236V231.122H650.825V231.952C651.133 231.356 651.709 231.044 652.354 231.044C653.491 231.044 654.028 231.854 654.048 232.909V236H653.403V233.061C653.403 232.172 652.983 231.645 652.183 231.645C651.357 231.645 650.825 232.167 650.825 233.114V236H650.181ZM655.654 230.102V229.101H656.328V230.102H655.654ZM655.669 236V231.122H656.309V236H655.669ZM658.062 236V231.122H658.706V231.952C659.014 231.356 659.59 231.044 660.234 231.044C661.372 231.044 661.909 231.854 661.929 232.909V236H661.284V233.061C661.284 232.172 660.864 231.645 660.063 231.645C659.238 231.645 658.706 232.167 658.706 233.114V236H658.062ZM665.923 235.355C666.836 235.355 667.471 235.795 667.471 236.684C667.471 237.621 666.748 238.231 665.41 238.231C664.053 238.231 663.086 237.66 663.086 236.615C663.086 236.498 663.101 236.391 663.13 236.288L663.896 235.761C663.55 235.6 663.262 235.287 663.252 234.784C663.242 234.413 663.403 234.071 663.789 233.788C663.55 233.505 663.413 233.139 663.413 232.724C663.413 231.737 664.189 231.044 665.234 231.044C665.742 231.044 666.167 231.205 666.479 231.479L667.227 230.819L667.559 231.239L666.816 231.884C666.963 232.133 667.041 232.431 667.041 232.748C667.041 233.744 666.26 234.398 665.229 234.398C664.829 234.398 664.468 234.301 664.18 234.12C663.931 234.306 663.848 234.501 663.857 234.726C663.867 235.209 664.297 235.355 664.829 235.355H665.923ZM665.244 231.566C664.526 231.566 664.058 232.064 664.058 232.733C664.058 233.402 664.517 233.876 665.239 233.876C665.962 233.876 666.416 233.407 666.416 232.738C666.416 232.06 665.962 231.566 665.244 231.566ZM665.371 237.724C666.216 237.724 666.851 237.436 666.851 236.737C666.851 236.19 666.44 235.902 665.674 235.902H664.517C664.448 235.902 664.375 235.897 664.302 235.888L663.691 236.469V236.605C663.691 237.152 664.038 237.724 665.371 237.724Z" fill="black"/>
<rect x="469.5" y="291.5" width="45" height="18" rx="5.5" fill="white" stroke="black"/>
<path d="M477.094 303V296.101H481.605V296.721H477.763V299.226H481.22V299.846H477.763V302.365H481.605V303H477.094ZM482.978 303V298.122H483.607V299.143C483.852 298.391 484.53 298.044 485.111 298.044C485.385 298.044 485.663 298.122 485.873 298.278L485.58 298.815C485.409 298.723 485.219 298.674 485.023 298.674C484.374 298.674 483.603 299.187 483.603 300.51V303H482.978ZM488.529 298.044C489.779 298.044 490.473 298.796 490.473 300.021V303H489.936L489.892 302.009C489.525 302.717 488.847 303.073 488.119 303.073C487.128 303.073 486.435 302.521 486.435 301.584C486.435 300.593 487.221 300.192 488.48 300.192H489.887V300.134C489.887 299.104 489.511 298.615 488.534 298.615C487.885 298.615 487.455 298.908 487.118 299.411L486.625 299.05C487.099 298.396 487.665 298.044 488.529 298.044ZM488.241 302.521C489.091 302.521 489.662 301.97 489.887 301.169V300.671H488.515C487.553 300.671 487.094 301.018 487.094 301.604C487.094 302.16 487.509 302.521 488.241 302.521ZM493.539 303.073C492.577 303.073 491.811 302.531 491.562 301.789L492.084 301.56C492.27 302.082 492.753 302.531 493.51 302.531C494.247 302.531 494.638 302.146 494.638 301.633C494.638 300.31 491.806 301.149 491.806 299.387C491.806 298.518 492.543 298.044 493.476 298.044C494.247 298.044 494.848 298.42 495.189 299.064L494.691 299.333C494.457 298.894 494.052 298.566 493.456 298.566C492.826 298.566 492.426 298.869 492.426 299.304C492.426 300.515 495.272 299.733 495.272 301.604C495.272 302.58 494.491 303.073 493.539 303.073ZM498.139 303.073C496.996 303.073 496.469 302.263 496.449 301.208V298.122H497.089V301.062C497.089 301.95 497.509 302.473 498.31 302.473C499.13 302.473 499.667 301.955 499.667 301.003V298.122H500.307V303H499.667V302.17C499.364 302.766 498.783 303.073 498.139 303.073ZM502.06 303V298.122H502.689V299.143C502.934 298.391 503.612 298.044 504.193 298.044C504.467 298.044 504.745 298.122 504.955 298.278L504.662 298.815C504.491 298.723 504.301 298.674 504.105 298.674C503.456 298.674 502.685 299.187 502.685 300.51V303H502.06ZM507.475 303.073C506.005 303.073 505.199 301.984 505.199 300.583C505.199 299.206 505.976 298.044 507.396 298.044C508.988 298.044 509.511 299.333 509.511 300.3C509.511 300.466 509.496 300.661 509.477 300.734H505.883C505.932 301.823 506.498 302.487 507.479 302.487C508.065 302.487 508.471 302.326 508.91 301.867L509.359 302.263C508.812 302.834 508.261 303.073 507.475 303.073ZM505.883 300.256H508.866C508.871 300.153 508.871 300.046 508.856 299.948C508.798 299.289 508.358 298.596 507.392 298.596C506.503 298.596 505.966 299.279 505.883 300.256Z" fill="black"/>
<rect x="543.5" y="291.5" width="48" height="18" rx="5.5" fill="white" stroke="black"/>
<path d="M551.094 303V296.101H553.027C554.355 296.101 555.322 296.794 555.322 298.024C555.322 298.957 554.756 299.587 553.862 299.802L555.771 303H555.01L553.208 299.87C553.066 299.88 552.905 299.885 552.744 299.885H551.763V303H551.094ZM551.768 299.328H553.081C554.087 299.313 554.653 298.854 554.653 298.034C554.653 297.194 554.043 296.706 553.032 296.706H551.768V299.328ZM558.75 303.073C557.28 303.073 556.475 301.984 556.475 300.583C556.475 299.206 557.251 298.044 558.672 298.044C560.264 298.044 560.786 299.333 560.786 300.3C560.786 300.466 560.771 300.661 560.752 300.734H557.158C557.207 301.823 557.773 302.487 558.755 302.487C559.341 302.487 559.746 302.326 560.186 301.867L560.635 302.263C560.088 302.834 559.536 303.073 558.75 303.073ZM557.158 300.256H560.142C560.146 300.153 560.146 300.046 560.132 299.948C560.073 299.289 559.634 298.596 558.667 298.596C557.778 298.596 557.241 299.279 557.158 300.256ZM563.76 298.044C565.01 298.044 565.703 298.796 565.703 300.021V303H565.166L565.122 302.009C564.756 302.717 564.077 303.073 563.35 303.073C562.358 303.073 561.665 302.521 561.665 301.584C561.665 300.593 562.451 300.192 563.711 300.192H565.117V300.134C565.117 299.104 564.741 298.615 563.765 298.615C563.115 298.615 562.686 298.908 562.349 299.411L561.855 299.05C562.329 298.396 562.896 298.044 563.76 298.044ZM563.472 302.521C564.321 302.521 564.893 301.97 565.117 301.169V300.671H563.745C562.783 300.671 562.324 301.018 562.324 301.604C562.324 302.16 562.739 302.521 563.472 302.521ZM568.193 303.073C567.5 303.073 567.295 302.658 567.295 301.97V296.101H567.939V301.804C567.939 302.18 567.988 302.492 568.477 302.492C568.579 302.492 568.726 302.473 568.872 302.443L568.882 302.995C568.667 303.039 568.403 303.073 568.193 303.073ZM569.99 297.102V296.101H570.664V297.102H569.99ZM570.005 303V298.122H570.645V303H570.005ZM573.848 303.073C572.886 303.073 572.119 302.531 571.87 301.789L572.393 301.56C572.578 302.082 573.062 302.531 573.818 302.531C574.556 302.531 574.946 302.146 574.946 301.633C574.946 300.31 572.114 301.149 572.114 299.387C572.114 298.518 572.852 298.044 573.784 298.044C574.556 298.044 575.156 298.42 575.498 299.064L575 299.333C574.766 298.894 574.36 298.566 573.765 298.566C573.135 298.566 572.734 298.869 572.734 299.304C572.734 300.515 575.581 299.733 575.581 301.604C575.581 302.58 574.8 303.073 573.848 303.073ZM576.934 303L576.929 298.122H577.554V298.972C577.822 298.347 578.369 298.044 579.023 298.044C579.741 298.044 580.308 298.376 580.527 299.123C580.815 298.41 581.416 298.044 582.139 298.044C583.311 298.044 583.818 298.898 583.818 300.148V303H583.174V300.227C583.174 299.216 582.852 298.649 582.021 298.649C581.211 298.649 580.698 299.26 580.698 300.109V303H580.054V300.051C580.054 299.187 579.707 298.649 578.906 298.649C578.091 298.649 577.578 299.26 577.578 300.109V303H576.934Z" fill="black"/>
<rect x="629.5" y="291.5" width="29" height="18" rx="5.5" fill="white" stroke="black"/>
<path d="M636.094 303V296.101H637.988C639.38 296.101 640.308 296.818 640.308 298.054C640.308 299.289 639.395 299.982 637.988 299.982H636.758V303H636.094ZM636.758 299.348H637.988C639.092 299.348 639.644 298.889 639.644 298.054C639.644 297.219 639.072 296.73 637.988 296.73H636.758V299.348ZM642.432 303.073C641.738 303.073 641.533 302.658 641.533 301.97V296.101H642.178V301.804C642.178 302.18 642.227 302.492 642.715 302.492C642.817 302.492 642.964 302.473 643.11 302.443L643.12 302.995C642.905 303.039 642.642 303.073 642.432 303.073ZM646.167 303.073C644.78 303.073 643.813 301.955 643.813 300.549C643.813 299.157 644.78 298.044 646.167 298.044C647.559 298.044 648.54 299.157 648.54 300.549C648.54 301.95 647.559 303.073 646.167 303.073ZM646.167 302.512C647.231 302.512 647.871 301.628 647.871 300.549C647.871 299.475 647.231 298.61 646.167 298.61C645.112 298.61 644.482 299.47 644.482 300.549C644.482 301.633 645.112 302.512 646.167 302.512ZM651.313 303.073C650.449 303.073 649.985 302.565 649.985 301.633V298.669H649.175V298.122H649.995V296.711L650.63 296.237V298.122H651.997V298.669H650.63V301.53C650.63 302.219 650.903 302.502 651.421 302.502C651.636 302.502 651.855 302.438 651.992 302.385L652.002 302.976C651.851 303.024 651.587 303.073 651.313 303.073Z" fill="black"/>
<path d="M692.469 64.826L732 165.5" stroke="#5151FC"/>
<path d="M675.999 165.75H704H732.001" stroke="#5151FC"/>
<path d="M676 233L732 165.5" stroke="#5151FC"/>
<path d="M674.417 299.331L732 165.5" stroke="#5151FC"/>
<line x1="433.99" y1="109" x2="459.01" y2="109" stroke="#5151FC"/>
<line x1="316.561" y1="236.761" x2="354.561" y2="166.761" stroke="#5151FC"/>
<line x1="317" y1="236.5" x2="356" y2="236.5" stroke="#5151FC"/>
<line x1="317.438" y1="236.759" x2="356.438" y2="307.759" stroke="#5151FC"/>
<path d="M738.83 163.088C737.793 163.088 737.236 162.479 737.236 161.359V157.803H736.264V157.146H737.248V155.453L738.01 154.885V157.146H739.65V157.803H738.01V161.236C738.01 162.062 738.338 162.402 738.959 162.402C739.217 162.402 739.48 162.326 739.645 162.262L739.656 162.971C739.475 163.029 739.158 163.088 738.83 163.088ZM741.168 155.922V154.721H741.977V155.922H741.168ZM741.186 163V157.146H741.953V163H741.186ZM745.838 163.088C744.801 163.088 744.244 162.479 744.244 161.359V157.803H743.271V157.146H744.256V155.453L745.018 154.885V157.146H746.658V157.803H745.018V161.236C745.018 162.062 745.346 162.402 745.967 162.402C746.225 162.402 746.488 162.326 746.652 162.262L746.664 162.971C746.482 163.029 746.166 163.088 745.838 163.088ZM749.078 163.088C748.246 163.088 748 162.59 748 161.764V154.721H748.773V161.564C748.773 162.016 748.832 162.391 749.418 162.391C749.541 162.391 749.717 162.367 749.893 162.332L749.904 162.994C749.646 163.047 749.33 163.088 749.078 163.088ZM753.508 163.088C751.744 163.088 750.777 161.781 750.777 160.1C750.777 158.447 751.709 157.053 753.414 157.053C755.324 157.053 755.951 158.6 755.951 159.76C755.951 159.959 755.934 160.193 755.91 160.281H751.598C751.656 161.588 752.336 162.385 753.514 162.385C754.217 162.385 754.703 162.191 755.23 161.641L755.77 162.115C755.113 162.801 754.451 163.088 753.508 163.088ZM751.598 159.707H755.178C755.184 159.584 755.184 159.455 755.166 159.338C755.096 158.547 754.568 157.715 753.408 157.715C752.342 157.715 751.697 158.535 751.598 159.707ZM759.285 163.088C758.131 163.088 757.211 162.438 756.912 161.547L757.539 161.271C757.762 161.898 758.342 162.438 759.25 162.438C760.135 162.438 760.604 161.975 760.604 161.359C760.604 159.771 757.205 160.779 757.205 158.664C757.205 157.621 758.09 157.053 759.209 157.053C760.135 157.053 760.855 157.504 761.266 158.277L760.668 158.6C760.387 158.072 759.9 157.68 759.186 157.68C758.43 157.68 757.949 158.043 757.949 158.564C757.949 160.018 761.365 159.08 761.365 161.324C761.365 162.496 760.428 163.088 759.285 163.088ZM739.357 177.088C737.693 177.088 736.533 175.746 736.533 174.059C736.533 172.389 737.693 171.053 739.357 171.053C741.027 171.053 742.205 172.389 742.205 174.059C742.205 175.74 741.027 177.088 739.357 177.088ZM739.357 176.414C740.635 176.414 741.402 175.354 741.402 174.059C741.402 172.77 740.635 171.732 739.357 171.732C738.092 171.732 737.336 172.764 737.336 174.059C737.336 175.359 738.092 176.414 739.357 176.414ZM744.203 177V171.803H742.984V171.146H744.209V170.238C744.209 169.184 744.895 168.633 745.867 168.633C746.178 168.633 746.471 168.715 746.74 168.85L746.482 169.488C746.295 169.389 746.113 169.324 745.938 169.324C745.34 169.324 745 169.635 745 170.309V171.146H746.717V171.803H745V177H744.203ZM752.57 177L750.18 171.146H751.023L752.904 176.016L754.779 171.146H755.629L753.232 177H752.57ZM756.871 169.922V168.721H757.68V169.922H756.871ZM756.889 177V171.146H757.656V177H756.889ZM761.5 177.088C760.346 177.088 759.426 176.438 759.127 175.547L759.754 175.271C759.977 175.898 760.557 176.438 761.465 176.438C762.35 176.438 762.818 175.975 762.818 175.359C762.818 173.771 759.42 174.779 759.42 172.664C759.42 171.621 760.305 171.053 761.424 171.053C762.35 171.053 763.07 171.504 763.48 172.277L762.883 172.6C762.602 172.072 762.115 171.68 761.4 171.68C760.645 171.68 760.164 172.043 760.164 172.564C760.164 174.018 763.58 173.08 763.58 175.324C763.58 176.496 762.643 177.088 761.5 177.088ZM767.02 177.088C765.648 177.088 765.016 176.115 764.992 174.85V171.146H765.76V174.674C765.76 175.74 766.264 176.367 767.225 176.367C768.209 176.367 768.854 175.746 768.854 174.604V171.146H769.621V177H768.854V176.004C768.49 176.719 767.793 177.088 767.02 177.088ZM773.699 171.053C775.199 171.053 776.031 171.955 776.031 173.426V177H775.387L775.334 175.811C774.895 176.66 774.08 177.088 773.207 177.088C772.018 177.088 771.186 176.426 771.186 175.301C771.186 174.111 772.129 173.631 773.641 173.631H775.328V173.561C775.328 172.324 774.877 171.738 773.705 171.738C772.926 171.738 772.41 172.09 772.006 172.693L771.414 172.26C771.982 171.475 772.662 171.053 773.699 171.053ZM773.354 176.426C774.373 176.426 775.059 175.764 775.328 174.803V174.205H773.682C772.527 174.205 771.977 174.621 771.977 175.324C771.977 175.992 772.475 176.426 773.354 176.426ZM779.02 177.088C778.188 177.088 777.941 176.59 777.941 175.764V168.721H778.715V175.564C778.715 176.016 778.773 176.391 779.359 176.391C779.482 176.391 779.658 176.367 779.834 176.332L779.846 176.994C779.588 177.047 779.271 177.088 779.02 177.088ZM781.176 169.922V168.721H781.984V169.922H781.176ZM781.193 177V171.146H781.961V177H781.193ZM788.283 171.146V171.768L784.445 176.338H788.254V177H783.414V176.432L787.334 171.803H783.607V171.146H788.283ZM791.816 171.053C793.316 171.053 794.148 171.955 794.148 173.426V177H793.504L793.451 175.811C793.012 176.66 792.197 177.088 791.324 177.088C790.135 177.088 789.303 176.426 789.303 175.301C789.303 174.111 790.246 173.631 791.758 173.631H793.445V173.561C793.445 172.324 792.994 171.738 791.822 171.738C791.043 171.738 790.527 172.09 790.123 172.693L789.531 172.26C790.1 171.475 790.779 171.053 791.816 171.053ZM791.471 176.426C792.49 176.426 793.176 175.764 793.445 174.803V174.205H791.799C790.645 174.205 790.094 174.621 790.094 175.324C790.094 175.992 790.592 176.426 791.471 176.426ZM797.846 177.088C796.809 177.088 796.252 176.479 796.252 175.359V171.803H795.279V171.146H796.264V169.453L797.025 168.885V171.146H798.666V171.803H797.025V175.236C797.025 176.062 797.354 176.402 797.975 176.402C798.232 176.402 798.496 176.326 798.66 176.262L798.672 176.971C798.49 177.029 798.174 177.088 797.846 177.088ZM800.184 169.922V168.721H800.992V169.922H800.184ZM800.201 177V171.146H800.969V177H800.201ZM805.381 177.088C803.717 177.088 802.557 175.746 802.557 174.059C802.557 172.389 803.717 171.053 805.381 171.053C807.051 171.053 808.229 172.389 808.229 174.059C808.229 175.74 807.051 177.088 805.381 177.088ZM805.381 176.414C806.658 176.414 807.426 175.354 807.426 174.059C807.426 172.77 806.658 171.732 805.381 171.732C804.115 171.732 803.359 172.764 803.359 174.059C803.359 175.359 804.115 176.414 805.381 176.414ZM809.822 177V171.146H810.596V172.143C810.965 171.428 811.656 171.053 812.43 171.053C813.795 171.053 814.439 172.025 814.463 173.291V177H813.689V173.473C813.689 172.406 813.186 171.773 812.225 171.773C811.234 171.773 810.596 172.4 810.596 173.537V177H809.822ZM818.148 177.088C816.994 177.088 816.074 176.438 815.775 175.547L816.402 175.271C816.625 175.898 817.205 176.438 818.113 176.438C818.998 176.438 819.467 175.975 819.467 175.359C819.467 173.771 816.068 174.779 816.068 172.664C816.068 171.621 816.953 171.053 818.072 171.053C818.998 171.053 819.719 171.504 820.129 172.277L819.531 172.6C819.25 172.072 818.764 171.68 818.049 171.68C817.293 171.68 816.812 172.043 816.812 172.564C816.812 174.018 820.229 173.08 820.229 175.324C820.229 176.496 819.291 177.088 818.148 177.088Z" fill="#5151FC"/>
<path d="M378.031 105.922V104.721H378.84V105.922H378.031ZM378.049 113V107.146H378.816V113H378.049ZM382.701 113.088C381.664 113.088 381.107 112.479 381.107 111.359V107.803H380.135V107.146H381.119V105.453L381.881 104.885V107.146H383.521V107.803H381.881V111.236C381.881 112.062 382.209 112.402 382.83 112.402C383.088 112.402 383.352 112.326 383.516 112.262L383.527 112.971C383.346 113.029 383.029 113.088 382.701 113.088ZM385.039 105.922V104.721H385.848V105.922H385.039ZM385.057 113V107.146H385.824V113H385.057ZM387.928 113V107.146H388.701V108.143C389.07 107.428 389.762 107.053 390.535 107.053C391.9 107.053 392.545 108.025 392.568 109.291V113H391.795V109.473C391.795 108.406 391.291 107.773 390.33 107.773C389.34 107.773 388.701 108.4 388.701 109.537V113H387.928ZM396.77 113.088C395.006 113.088 394.039 111.781 394.039 110.1C394.039 108.447 394.971 107.053 396.676 107.053C398.586 107.053 399.213 108.6 399.213 109.76C399.213 109.959 399.195 110.193 399.172 110.281H394.859C394.918 111.588 395.598 112.385 396.775 112.385C397.479 112.385 397.965 112.191 398.492 111.641L399.031 112.115C398.375 112.801 397.713 113.088 396.77 113.088ZM394.859 109.707H398.439C398.445 109.584 398.445 109.455 398.428 109.338C398.357 108.547 397.83 107.715 396.67 107.715C395.604 107.715 394.959 108.535 394.859 109.707ZM400.807 113V107.146H401.562V108.371C401.855 107.469 402.67 107.053 403.367 107.053C403.695 107.053 404.029 107.146 404.281 107.334L403.93 107.979C403.725 107.867 403.496 107.809 403.262 107.809C402.482 107.809 401.557 108.424 401.557 110.012V113H400.807ZM407.469 107.053C408.969 107.053 409.801 107.955 409.801 109.426V113H409.156L409.104 111.811C408.664 112.66 407.85 113.088 406.977 113.088C405.787 113.088 404.955 112.426 404.955 111.301C404.955 110.111 405.898 109.631 407.41 109.631H409.098V109.561C409.098 108.324 408.646 107.738 407.475 107.738C406.695 107.738 406.18 108.09 405.775 108.693L405.184 108.26C405.752 107.475 406.432 107.053 407.469 107.053ZM407.123 112.426C408.143 112.426 408.828 111.764 409.098 110.803V110.205H407.451C406.297 110.205 405.746 110.621 405.746 111.324C405.746 111.992 406.244 112.426 407.123 112.426ZM411.74 113V107.146H412.496V108.371C412.789 107.469 413.604 107.053 414.301 107.053C414.629 107.053 414.963 107.146 415.215 107.334L414.863 107.979C414.658 107.867 414.43 107.809 414.195 107.809C413.416 107.809 412.49 108.424 412.49 110.012V113H411.74ZM416.398 105.922V104.721H417.207V105.922H416.398ZM416.416 113V107.146H417.184V113H416.416ZM421.543 113.088C419.779 113.088 418.812 111.781 418.812 110.1C418.812 108.447 419.744 107.053 421.449 107.053C423.359 107.053 423.986 108.6 423.986 109.76C423.986 109.959 423.969 110.193 423.945 110.281H419.633C419.691 111.588 420.371 112.385 421.549 112.385C422.252 112.385 422.738 112.191 423.266 111.641L423.805 112.115C423.148 112.801 422.486 113.088 421.543 113.088ZM419.633 109.707H423.213C423.219 109.584 423.219 109.455 423.201 109.338C423.131 108.547 422.604 107.715 421.443 107.715C420.377 107.715 419.732 108.535 419.633 109.707ZM427.32 113.088C426.166 113.088 425.246 112.438 424.947 111.547L425.574 111.271C425.797 111.898 426.377 112.438 427.285 112.438C428.17 112.438 428.639 111.975 428.639 111.359C428.639 109.771 425.24 110.779 425.24 108.664C425.24 107.621 426.125 107.053 427.244 107.053C428.17 107.053 428.891 107.504 429.301 108.277L428.703 108.6C428.422 108.072 427.936 107.68 427.221 107.68C426.465 107.68 425.984 108.043 425.984 108.564C425.984 110.018 429.4 109.08 429.4 111.324C429.4 112.496 428.463 113.088 427.32 113.088Z" fill="#5151FC"/>
<path d="M283.789 240.088C282.635 240.088 281.715 239.438 281.416 238.547L282.043 238.271C282.266 238.898 282.846 239.438 283.754 239.438C284.639 239.438 285.107 238.975 285.107 238.359C285.107 236.771 281.709 237.779 281.709 235.664C281.709 234.621 282.594 234.053 283.713 234.053C284.639 234.053 285.359 234.504 285.77 235.277L285.172 235.6C284.891 235.072 284.404 234.68 283.689 234.68C282.934 234.68 282.453 235.043 282.453 235.564C282.453 237.018 285.869 236.08 285.869 238.324C285.869 239.496 284.932 240.088 283.789 240.088ZM289.268 240.088C288.23 240.088 287.674 239.479 287.674 238.359V234.803H286.701V234.146H287.686V232.453L288.447 231.885V234.146H290.088V234.803H288.447V238.236C288.447 239.062 288.775 239.402 289.396 239.402C289.654 239.402 289.918 239.326 290.082 239.262L290.094 239.971C289.912 240.029 289.596 240.088 289.268 240.088ZM293.609 234.053C295.109 234.053 295.941 234.955 295.941 236.426V240H295.297L295.244 238.811C294.805 239.66 293.99 240.088 293.117 240.088C291.928 240.088 291.096 239.426 291.096 238.301C291.096 237.111 292.039 236.631 293.551 236.631H295.238V236.561C295.238 235.324 294.787 234.738 293.615 234.738C292.836 234.738 292.32 235.09 291.916 235.693L291.324 235.26C291.893 234.475 292.572 234.053 293.609 234.053ZM293.264 239.426C294.283 239.426 294.969 238.764 295.238 237.803V237.205H293.592C292.438 237.205 291.887 237.621 291.887 238.324C291.887 238.992 292.385 239.426 293.264 239.426ZM300.717 239.227C301.812 239.227 302.574 239.754 302.574 240.82C302.574 241.945 301.707 242.678 300.102 242.678C298.473 242.678 297.312 241.992 297.312 240.738C297.312 240.598 297.33 240.469 297.365 240.346L298.285 239.713C297.869 239.52 297.523 239.145 297.512 238.541C297.5 238.096 297.693 237.686 298.156 237.346C297.869 237.006 297.705 236.566 297.705 236.068C297.705 234.885 298.637 234.053 299.891 234.053C300.5 234.053 301.01 234.246 301.385 234.574L302.281 233.783L302.68 234.287L301.789 235.061C301.965 235.359 302.059 235.717 302.059 236.098C302.059 237.293 301.121 238.078 299.885 238.078C299.404 238.078 298.971 237.961 298.625 237.744C298.326 237.967 298.227 238.201 298.238 238.471C298.25 239.051 298.766 239.227 299.404 239.227H300.717ZM299.902 234.68C299.041 234.68 298.479 235.277 298.479 236.08C298.479 236.883 299.029 237.451 299.896 237.451C300.764 237.451 301.309 236.889 301.309 236.086C301.309 235.271 300.764 234.68 299.902 234.68ZM300.055 242.068C301.068 242.068 301.83 241.723 301.83 240.885C301.83 240.229 301.338 239.883 300.418 239.883H299.029C298.947 239.883 298.859 239.877 298.771 239.865L298.039 240.562V240.727C298.039 241.383 298.455 242.068 300.055 242.068ZM306.312 240.088C304.549 240.088 303.582 238.781 303.582 237.1C303.582 235.447 304.514 234.053 306.219 234.053C308.129 234.053 308.756 235.6 308.756 236.76C308.756 236.959 308.738 237.193 308.715 237.281H304.402C304.461 238.588 305.141 239.385 306.318 239.385C307.021 239.385 307.508 239.191 308.035 238.641L308.574 239.115C307.918 239.801 307.256 240.088 306.312 240.088ZM304.402 236.707H307.982C307.988 236.584 307.988 236.455 307.971 236.338C307.9 235.547 307.373 234.715 306.213 234.715C305.146 234.715 304.502 235.535 304.402 236.707ZM312.09 240.088C310.936 240.088 310.016 239.438 309.717 238.547L310.344 238.271C310.566 238.898 311.146 239.438 312.055 239.438C312.939 239.438 313.408 238.975 313.408 238.359C313.408 236.771 310.01 237.779 310.01 235.664C310.01 234.621 310.895 234.053 312.014 234.053C312.939 234.053 313.66 234.504 314.07 235.277L313.473 235.6C313.191 235.072 312.705 234.68 311.99 234.68C311.234 234.68 310.754 235.043 310.754 235.564C310.754 237.018 314.17 236.08 314.17 238.324C314.17 239.496 313.232 240.088 312.09 240.088Z" fill="#5151FC"/>
</svg>
